<?xml version="1.0" encoding="UTF-8"?>
<svg version="1.1" xmlns="http://www.w3.org/2000/svg" width="512" height="512">
<path d="M0 0 C3.53303943 2.95279573 6.73894812 5.83341262 8.515625 10.1640625 C8.495 11.0921875 8.474375 12.0203125 8.453125 12.9765625 C8.53914222 17.36344056 10.01934306 20.57965767 12.515625 24.1640625 C14.16168326 25.19763397 15.82525942 26.20466582 17.515625 27.1640625 C21.27898493 39.32441928 19.10226658 54.99077935 13.515625 66.1640625 C14.37220703 66.29361328 14.37220703 66.29361328 15.24609375 66.42578125 C31.62186769 69.26355448 44.75898861 76.61467451 56.515625 88.1640625 C57.27875 88.90269531 58.041875 89.64132813 58.828125 90.40234375 C69.34144227 101.26245447 75.57913518 114.71482929 79.515625 129.1640625 C79.83402344 130.22625 80.15242188 131.2884375 80.48046875 132.3828125 C86.80376901 157.32633797 82.92236788 184.99511177 73.78515625 208.6953125 C71.83260273 214.03028951 71.42938118 217.88780204 71.953125 223.5390625 C74.25281824 253.25846421 71.40445561 284.19471233 57.078125 310.9140625 C55.335974 313.85124058 55.335974 313.85124058 55.64837646 316.06837463 C56.84994624 318.97194274 58.63181735 320.70047426 60.82910156 322.94506836 C62.20754242 324.36190163 62.20754242 324.36190163 63.61383057 325.80735779 C64.62720478 326.83196505 65.64136549 327.85579493 66.65625 328.87890625 C67.6999217 329.93731177 68.74351999 330.99578969 69.78704834 332.05433655 C71.98062257 334.27491192 74.18084419 336.4886715 76.38476562 338.69897461 C79.18411046 341.50911954 81.95719869 344.34369169 84.7244606 347.1853857 C86.87462423 349.38437016 89.0429837 351.56473493 91.21642303 353.74069405 C92.2451313 354.7765582 93.26732655 355.81893879 94.28229523 356.86826897 C100.45666721 363.23524607 106.07168633 367.44724067 114.67547607 370.10377502 C119.69280322 371.97684903 122.91769085 375.5532006 125.66796875 380.046875 C127.54048383 384.72384814 127.38850011 390.50080152 125.828125 395.26171875 C123.25989457 400.1306556 119.57686912 403.97136999 114.41015625 405.984375 C109.09105758 407.43087688 104.56670303 407.49374339 99.515625 405.1640625 C92.78711727 400.96217808 89.59107139 395.21524207 87.59155273 387.68310547 C85.21121764 381.37793626 80.11162197 377.1431832 75.37890625 372.5390625 C74.37319017 371.54268699 73.3685835 370.54519054 72.36503601 369.54663086 C69.7374075 366.93797421 67.0951113 364.34469309 64.44934082 361.75445557 C61.74551498 359.10203519 59.05601698 356.43517113 56.36523438 353.76953125 C51.095854 348.55356501 45.81087499 343.35377794 40.515625 338.1640625 C37.28995029 341.36808392 34.19465695 344.61548115 31.203125 348.0390625 C26.65269657 353.11685846 21.94032985 357.84910521 16.2734375 361.6796875 C15.54898438 362.16953125 14.82453125 362.659375 14.078125 363.1640625 C13.41941406 363.5765625 12.76070312 363.9890625 12.08203125 364.4140625 C6.40737899 370.75382363 9.15170796 388.09266941 9.515625 396.1640625 C10.62014606 410.14972071 13.19585855 425.04135475 20.515625 437.1640625 C20.828125 440.3515625 20.828125 440.3515625 20.515625 443.1640625 C19.855625 443.8240625 19.195625 444.4840625 18.515625 445.1640625 C15.21847707 444.83434771 13.8929411 444.5413786 11.515625 442.1640625 C9.10751982 441.84925508 9.10751982 441.84925508 6.2638855 441.8855896 C5.15046783 441.87442612 4.03705017 441.86326263 2.88989258 441.85176086 C1.66278564 441.84960068 0.43567871 441.84744049 -0.82861328 441.84521484 C-2.11637665 441.83516922 -3.40414001 441.8251236 -4.73092651 441.81477356 C-8.26787263 441.78740768 -11.80477877 441.77230478 -15.34180307 441.75934553 C-19.03609219 441.74374368 -22.73029932 441.71694415 -26.42453003 441.6913147 C-33.4226278 441.64447456 -40.42074091 441.60775588 -47.41891563 441.57464182 C-55.38500367 441.53645733 -63.35100949 441.48703761 -71.31702828 441.43665767 C-87.70608486 441.33326 -104.09518699 441.24402519 -120.484375 441.1640625 C-121.144375 442.4840625 -121.804375 443.8040625 -122.484375 445.1640625 C-124.859375 444.9765625 -124.859375 444.9765625 -127.484375 444.1640625 C-128.8125 441.9765625 -128.8125 441.9765625 -129.484375 439.1640625 C-128.5078125 436.39453125 -128.5078125 436.39453125 -126.859375 433.3515625 C-116.52730027 412.40434249 -117.17172926 388.98239184 -117.484375 366.1640625 C-118.10207764 365.86330811 -118.71978027 365.56255371 -119.35620117 365.25268555 C-146.58437177 351.32468134 -166.39516231 317.08472228 -175.484375 289.1640625 C-180.04677534 274.0228787 -182.36155668 258.67341766 -182.609375 242.875 C-182.70722278 227.90797088 -182.70722278 227.90797088 -187.86328125 214.1171875 C-200.53361452 191.0358093 -201.88977417 158.66782891 -194.78417969 133.70410156 C-190.63707831 120.51162434 -184.90920101 107.45933422 -175.484375 97.1640625 C-173.4884028 96.48543195 -171.48868949 95.81764331 -169.484375 95.1640625 C-167.53220056 92.67335718 -166.58565845 90.92556402 -166.16796875 87.78515625 C-163.49563616 77.53866958 -147.03104784 68.16658863 -138.39111328 62.88427734 C-123.04659276 53.91770942 -105.4869405 47.1640625 -87.484375 47.1640625 C-87.53658203 46.07351562 -87.53658203 46.07351562 -87.58984375 44.9609375 C-87.9847453 30.29316581 -83.86653445 17.10042716 -74.234375 5.8515625 C-53.97117399 -15.29412298 -23.50956517 -17.3734208 0 0 Z " fill="#040303" transform="translate(300.484375,39.8359375)"/>
<path d="M0 0 C19.93217974 0.31099855 36.75335986 6.7771439 51 21 C51.69996094 21.68835938 52.39992188 22.37671875 53.12109375 23.0859375 C70.82964483 41.6574784 75.78526224 67.19300797 75.31640625 91.99609375 C74.76813264 106.19844487 71.37813695 119.88528081 66 133 C61.28799773 129.07333144 57.06687203 125.03176662 52.9921875 120.44140625 C51.03558093 118.68948853 51.03558093 118.68948853 48.2578125 119.27734375 C47.14019531 119.63505859 47.14019531 119.63505859 46 120 C46.50501547 124.13036861 47.48598452 125.9364364 50.5625 128.70703125 C51.27664063 129.37669922 51.99078125 130.04636719 52.7265625 130.73632812 C54.2363657 132.11512607 55.7519732 133.48759621 57.2734375 134.85351562 C57.98757813 135.52705078 58.70171875 136.20058594 59.4375 136.89453125 C60.09621094 137.49112549 60.75492188 138.08771973 61.43359375 138.70239258 C63.649165 141.95219636 63.79500567 145.17916964 64 149 C64.03623474 149.6630867 64.07246948 150.3261734 64.10980225 151.00935364 C64.19595258 153.09004877 64.24204553 155.1677735 64.2734375 157.25 C64.29229759 158.40105476 64.29229759 158.40105476 64.3115387 159.57536316 C64.6687993 186.63729964 62.26370904 213.24795935 48 237 C42.34929713 233.19158108 40.30580335 229.96131756 38.66015625 223.3984375 C37.30591832 218.4783068 34.90916812 215.70506915 30.9375 212.625 C26.17173334 210.18574739 21.20968575 210.24808659 16 211 C12.00754569 212.30876034 9.44709063 214.50584719 6.625 217.625 C4.17818235 222.70685205 3.15392583 227.65120292 4.55859375 233.2109375 C6.93326755 238.72018072 10.84723848 242.0783311 16 245 C17.65449419 245.65654531 19.32195362 246.28122974 21 246.875 C26.6572001 248.92420251 30.10949077 252.52265418 34 257 C31.93531961 263.00937899 27.99868219 266.53505137 23.5625 270.9375 C22.29237061 272.20122437 22.29237061 272.20122437 20.99658203 273.49047852 C13.32056449 280.96569065 5.11178416 287.30495684 -3.68896484 293.38574219 C-6.005665 295.003957 -8.28068322 296.66873643 -10.55078125 298.3515625 C-25.59428706 309.42944501 -41.81109182 316.92973201 -61 315 C-79.04694551 312.14192732 -91.51594697 302.63762359 -105.69873047 291.75341797 C-107.62904914 290.28264047 -109.57171931 288.83615819 -111.53515625 287.41015625 C-118.8438792 282.08509196 -125.49820859 276.27534492 -132 270 C-132.56195068 269.46286377 -133.12390137 268.92572754 -133.70288086 268.37231445 C-158.44283345 244.26976232 -172.73330773 208.99789198 -173.30078125 174.625 C-173.31806498 172.47455449 -173.3222436 170.32482012 -173.31567383 168.17431641 C-173.31246176 165.97380223 -173.33627435 163.77457306 -173.36132812 161.57421875 C-173.36359725 160.1536475 -173.36430642 158.7330727 -173.36328125 157.3125 C-173.36626221 156.05050781 -173.36924316 154.78851563 -173.37231445 153.48828125 C-172.46914698 145.02634236 -166.29253161 139.22337888 -161 133 C-160.07767578 131.89011719 -160.07767578 131.89011719 -159.13671875 130.7578125 C-155.12504004 126.01757605 -150.77739588 121.95791556 -146 118 C-145.27296875 117.37351562 -144.5459375 116.74703125 -143.796875 116.1015625 C-126.20669895 101.36542164 -106.29881179 92.59621577 -83 94 C-80.8139711 94.30787286 -78.63146904 94.64177483 -76.453125 95 C-52.9724067 98.45660759 -26.44837823 98.38690228 -6 85 C-0.33046668 80.74065517 4.50179625 76.20136119 8 70 C11.17142237 72.67679686 12.73377697 76.11296069 14.5625 79.75 C20.53166046 91.26587502 27.78520937 101.96272271 36 112 C38.475 111.505 38.475 111.505 41 111 C40.59272589 105.64277897 37.5342117 102.21659117 34.4375 98.0625 C29.03808821 90.61727368 24.35412085 83.10001639 20 75 C19.08154297 73.42412109 19.08154297 73.42412109 18.14453125 71.81640625 C13.98177425 64.33868487 13.25980188 59.31648636 15.52026367 51.11157227 C18.60189755 37.54767843 15.4457365 23.41156619 8.6953125 11.58984375 C6.51622115 8.26095535 4.04621279 5.35204387 1.3203125 2.4609375 C0 1 0 1 0 0 Z " fill="#FACC9B" transform="translate(300,113)"/>
<path d="M0 0 C8.40976319 7.09873547 15.97489265 17.21623315 17.07958984 28.53344727 C17.17972657 30.92224187 17.20377858 33.29667259 17.1875 35.6875 C17.18012817 36.9566626 17.18012817 36.9566626 17.17260742 38.25146484 C17.05727224 44.39912564 16.44992451 49.78726079 13.875 55.4375 C13.54628906 56.17742187 13.21757812 56.91734375 12.87890625 57.6796875 C6.68850327 70.06049345 -3.0517917 78.18651687 -16.01245117 82.52978516 C-25.80007696 85.38415747 -35.80644867 85.76607335 -45.9375 85.6875 C-47.16218994 85.68363281 -48.38687988 85.67976563 -49.64868164 85.67578125 C-57.47941754 85.60111887 -65.01667106 85.02831946 -72.75390625 83.8984375 C-95.9304717 80.72945173 -117.88136465 89.62676461 -136.125 103.4375 C-140.9514899 107.25847117 -145.57082776 111.29805749 -150.125 115.4375 C-150.79917969 116.03949219 -151.47335938 116.64148438 -152.16796875 117.26171875 C-156.79099877 121.62120311 -160.54317217 126.71528783 -164.30737305 131.81591797 C-165.51225412 133.40992238 -166.81261768 134.93076807 -168.125 136.4375 C-169.115 136.4375 -170.105 136.4375 -171.125 136.4375 C-182.3198649 107.29353505 -186.41763432 76.90693432 -173.6875 47.4375 C-172.85623809 45.75929199 -172.00173663 44.09240524 -171.125 42.4375 C-170.62742187 41.47070312 -170.12984375 40.50390625 -169.6171875 39.5078125 C-167.53747941 35.56786299 -165.65168201 32.03170534 -162.6875 28.6875 C-160.72432452 26.40546882 -160.72432452 26.40546882 -161.625 22.9375 C-162.125 19.4375 -162.125 19.4375 -160.625 16.5 C-158.125 14.4375 -158.125 14.4375 -154.875 14.625 C-149.8336435 14.37293217 -148.76073635 12.43192052 -145.4609375 8.84765625 C-108.17271874 -29.62530525 -42.32445979 -31.42696599 0 0 Z " fill="#FD607B" transform="translate(292.125,116.5625)"/>
<path d="M0 0 C4.54824398 2.49110761 8.52234236 5.09919651 12.5625 8.375 C26.68154512 19.078715 43.45877485 23.32832929 61 22 C78.38996107 19.59302041 91.75665703 11.80728533 105.34375 1.1640625 C107 0 107 0 109 0 C109.00410889 0.78834229 109.00821777 1.57668457 109.01245117 2.38891602 C109.20483921 23.60239054 110.59672817 44.00530222 119.08203125 63.76953125 C120 66 120 66 120 68 C76.44 68 32.88 68 -12 68 C-9.525 62.06 -9.525 62.06 -7 56 C-0.6372808 37.75764193 -0.51203251 19.10131016 0 0 Z " fill="#FBCD9C" transform="translate(192,413)"/>
<path d="M0 0 C19.93217974 0.31099855 36.75335986 6.7771439 51 21 C51.69996094 21.68835938 52.39992188 22.37671875 53.12109375 23.0859375 C70.82964483 41.6574784 75.78526224 67.19300797 75.31640625 91.99609375 C74.76813264 106.19844487 71.37813695 119.88528081 66 133 C62.02890647 129.69075539 58.42199471 126.38268784 54.9375 122.5625 C53.02677069 120.50532207 53.02677069 120.50532207 51 119 C47.59284767 118.78335544 47.59284767 118.78335544 45 120 C42 115.25 42 115.25 42 113 C41.01 112.505 41.01 112.505 40 112 C40.25523437 111.29617187 40.51046875 110.59234375 40.7734375 109.8671875 C41.04350481 106.44943918 40.12803285 105.28380324 37.98974609 102.7019043 C37.53937988 102.18152588 37.08901367 101.66114746 36.625 101.125 C30.95062612 94.15662869 26.3805121 86.83229372 22 79 C21.60941406 78.319375 21.21882813 77.63875 20.81640625 76.9375 C12.77988992 62.81431064 12.77988992 62.81431064 14.40234375 55.015625 C14.59957031 54.35046875 14.79679687 53.6853125 15 53 C18.56848079 40.21557302 16.17012338 25.89947945 10.25 14.3125 C7.72533363 9.89116216 4.80805023 6.16005328 1.3203125 2.4609375 C0 1 0 1 0 0 Z " fill="#FD607B" transform="translate(300,113)"/>
<path d="M0 0 C2.06246832 1.72210027 3.84994102 3.56611286 5.67578125 5.53515625 C8.18800381 8.20586014 8.60114693 8.61088461 12.42578125 9.09765625 C13.69421875 8.88109375 13.69421875 8.88109375 14.98828125 8.66015625 C16.63828125 11.96015625 18.28828125 15.26015625 19.98828125 18.66015625 C18.99828125 19.98015625 18.00828125 21.30015625 16.98828125 22.66015625 C17.1583033 24.25836352 17.34868748 25.85701069 17.640625 27.4375 C19.3449442 38.3336531 17.24308219 47.69360738 12.98828125 57.66015625 C9.74744535 60.90099215 5.56297456 60.26320769 1.20361328 60.30932617 C-7.45073062 60.06351492 -14.26030992 56.43583724 -21.88330078 52.66894531 C-37.23485456 45.39289344 -54.23782001 43.36822476 -71.01171875 42.66015625 C-71.79952734 29.02231419 -70.22923965 17.56698821 -61.01953125 6.72265625 C-44.53182119 -10.21413541 -19.92795268 -14.24466088 0 0 Z " fill="#FC617B" transform="translate(293.01171875,45.33984375)"/>
<path d="M0 0 C2.98770538 2.56089033 4.54473565 5.36183914 6 9 C5.4666612 15.20253272 1.53999849 18.16687126 -3 22 C-22.59796729 36.602407 -49.55909804 37.81751935 -73.15625 34.5078125 C-97.41636549 31.30271594 -118.54819153 36.1669798 -138.25439453 50.69262695 C-140.90042906 52.72518647 -143.45209223 54.84458977 -146 57 C-146.96679688 57.8146875 -147.93359375 58.629375 -148.9296875 59.46875 C-155.36461334 65.10153827 -160.81187056 71.21336581 -166 78 C-166.77984253 78.73536987 -166.77984253 78.73536987 -167.57543945 79.4855957 C-173.54551673 85.73815482 -172.80375419 93.37557524 -172.61743164 101.4777832 C-172.56331755 103.90089201 -172.55589952 106.32049528 -172.55664062 108.74414062 C-172.46351533 122.58065429 -170.70660286 136.18140923 -166.375 149.375 C-165.99758667 150.53926514 -165.99758667 150.53926514 -165.61254883 151.72705078 C-159.89124018 168.68475737 -151.52849689 183.35525805 -140 197 C-140.33 197.66 -140.66 198.32 -141 199 C-148.21167239 191.48721394 -154.34361227 183.74939376 -160 175 C-160.60585937 174.07960938 -161.21171875 173.15921875 -161.8359375 172.2109375 C-175.64444325 150.0298536 -181.39472979 124.05196911 -181.31567383 98.17431641 C-181.31246176 95.97380223 -181.33627435 93.77457306 -181.36132812 91.57421875 C-181.36359725 90.1536475 -181.36430642 88.7330727 -181.36328125 87.3125 C-181.36626221 86.05050781 -181.36924316 84.78851563 -181.37231445 83.48828125 C-180.46914698 75.02634236 -174.29253161 69.22337888 -169 63 C-168.38511719 62.26007813 -167.77023438 61.52015625 -167.13671875 60.7578125 C-163.12504004 56.01757605 -158.77739588 51.95791556 -154 48 C-153.27296875 47.37351563 -152.5459375 46.74703125 -151.796875 46.1015625 C-134.20669895 31.36542164 -114.29881179 22.59621577 -91 24 C-88.8139711 24.30787286 -86.63146904 24.64177483 -84.453125 25 C-60.9724067 28.45660759 -34.44837823 28.38690228 -14 15 C-8.33046668 10.74065517 -3.49820375 6.20136119 0 0 Z " fill="#FBFAF9" transform="translate(308,183)"/>
<path d="M0 0 C4.54824398 2.49110761 8.52234236 5.09919651 12.5625 8.375 C26.68154512 19.078715 43.45877485 23.32832929 61 22 C78.38996107 19.59302041 91.75665703 11.80728533 105.34375 1.1640625 C107 0 107 0 109 0 C108.84108023 4.47167366 108.57902857 6.43029693 105.33203125 9.625 C104.17599278 10.44148982 103.00140364 11.2321532 101.8125 12 C101.18827148 12.42224854 100.56404297 12.84449707 99.92089844 13.27954102 C81.12774601 25.69291275 60.54667057 31.37893454 38.15209961 26.87133789 C29.12276505 24.78890599 21.71127577 21.14085051 14 16 C11.35367713 16.3121764 11.35367713 16.3121764 9 17 C8.92523438 18.20011719 8.85046875 19.40023438 8.7734375 20.63671875 C8.06953672 30.09910154 6.76532297 39.05823376 4.125 48.1875 C3.88056152 49.03465576 3.63612305 49.88181152 3.38427734 50.75463867 C1.6465568 56.47985765 -0.51771676 61.41486271 -3 67 C37.59 67 78.18 67 120 67 C120 67.33 120 67.66 120 68 C76.44 68 32.88 68 -12 68 C-9.525 62.06 -9.525 62.06 -7 56 C-0.6372808 37.75764193 -0.51203251 19.10131016 0 0 Z " fill="#FAF9F8" transform="translate(192,413)"/>
<path d="M0 0 C1.50390625 1.4453125 1.50390625 1.4453125 2.50390625 3.4453125 C-0.030082 2.2204435 -2.4772664 0.89848415 -4.9375 -0.47265625 C-20.42710428 -9.06467984 -35.92619027 -15.01681255 -53.49609375 -17.5546875 C-54.61757812 -17.73773438 -55.7390625 -17.92078125 -56.89453125 -18.109375 C-84.71685552 -21.54944546 -112.59934692 -13.48064645 -134.68359375 3.6953125 C-157.09191587 21.69863355 -175.50265569 46.06391376 -179.28515625 75.26367188 C-181.02132048 93.22011117 -178.96283283 110.37699471 -173.03442383 127.35888672 C-171.39559182 132.14380671 -171.39559182 132.14380671 -172.49609375 135.4453125 C-175.9522809 128.33071449 -178.40785362 121.06781864 -180.49609375 113.4453125 C-180.79902344 112.39472656 -181.10195312 111.34414062 -181.4140625 110.26171875 C-187.13813264 87.01608179 -184.71400832 61.61995598 -173.49609375 40.4453125 C-172.99851562 39.47851562 -172.5009375 38.51171875 -171.98828125 37.515625 C-169.90857316 33.57567549 -168.02277576 30.03951784 -165.05859375 26.6953125 C-163.09541827 24.41328132 -163.09541827 24.41328132 -163.99609375 20.9453125 C-164.49609375 17.4453125 -164.49609375 17.4453125 -162.99609375 14.5078125 C-160.49609375 12.4453125 -160.49609375 12.4453125 -157.24609375 12.6328125 C-152.20473725 12.38074467 -151.1318301 10.43973302 -147.83203125 6.85546875 C-110.14328564 -32.03074537 -41.633776 -33.97063317 0 0 Z " fill="#F9F5F6" transform="translate(294.49609375,118.5546875)"/>
<path d="M0 0 C3.25545719 1.47975327 3.74731713 3.67701879 5.0625 6.9375 C5.52807099 9.8023064 5.58686207 12.60122203 5.5625 15.5 C5.55677979 16.29212891 5.55105957 17.08425781 5.54516602 17.90039062 C5.17506956 30.23195461 -0.25013748 40.76004708 -8.58984375 49.7109375 C-16.62831521 57.1630734 -26.38532936 59.95562023 -36.9375 61.9375 C-37.88238281 62.12441406 -38.82726562 62.31132812 -39.80078125 62.50390625 C-43.66581715 63.03817647 -47.48101849 63.12918888 -51.375 63.125 C-52.15617187 63.12419434 -52.93734375 63.12338867 -53.7421875 63.12255859 C-73.96135091 62.91364909 -73.96135091 62.91364909 -77.9375 58.9375 C-77.38194444 54.38194444 -77.38194444 54.38194444 -75.9375 52.9375 C-74.35041715 53.03434954 -72.76723029 53.19426814 -71.1875 53.375 C-51.76139642 55.13889949 -31.77856224 55.87938394 -15.2890625 44.03515625 C-12.90081259 41.90477385 -11.43168737 39.99730971 -9.8125 37.25 C-9.33554687 36.46238281 -8.85859375 35.67476562 -8.3671875 34.86328125 C-4.48825963 26.92525673 -3.52260235 20.18520144 -3.75 11.375 C-3.76353516 10.36630859 -3.77707031 9.35761719 -3.79101562 8.31835938 C-3.82600424 5.85749379 -3.87508842 3.39779665 -3.9375 0.9375 C-1.9375 -0.0625 -1.9375 -0.0625 0 0 Z " fill="#090304" transform="translate(293.9375,129.0625)"/>
<path d="M0 0 C3.43211029 2.76940606 6.25163153 5.43190909 8.6875 9.125 C8.5 12 8.5 12 7.6875 14.125 C6.0375 14.455 4.3875 14.785 2.6875 15.125 C2.20539063 14.55910156 1.72328125 13.99320312 1.2265625 13.41015625 C0.59492188 12.67667969 -0.03671875 11.94320313 -0.6875 11.1875 C-1.31398437 10.45660156 -1.94046875 9.72570312 -2.5859375 8.97265625 C-4.18997714 7.04119094 -4.18997714 7.04119094 -6.3125 6.125 C-6.704375 7.0325 -7.09625 7.94 -7.5 8.875 C-9.49745795 12.45664874 -10.7452909 14.10875138 -14.3125 16.125 C-17.50112805 16.861744 -20.13647349 16.95522447 -23.3125 16.125 C-26.02620023 14.19218086 -27.77557801 12.07518359 -29.3125 9.125 C-29.6875 5.6875 -29.6875 5.6875 -29.3125 3.125 C-34.13461661 5.01941877 -34.13461661 5.01941877 -38.4375 7.8125 C-40.85943027 9.50785119 -42.41858699 9.43785546 -45.3125 9.125 C-46.3125 8.125 -46.3125 8.125 -46.6015625 5.7578125 C-46.3125 3.125 -46.3125 3.125 -44.7734375 1.4296875 C-43.74089844 0.72199219 -43.74089844 0.72199219 -42.6875 0 C-41.95660156 -0.50144531 -41.22570312 -1.00289063 -40.47265625 -1.51953125 C-27.38443843 -9.73221042 -12.50953723 -8.86870177 0 0 Z " fill="#070604" transform="translate(215.3125,277.875)"/>
<path d="M0 0 C2.25 2.5 2.25 2.5 2.6875 5.25 C2.25 7.5 2.25 7.5 1.25 8.5 C-1.45312693 8.9770224 -3.16687674 8.85422181 -5.53125 7.41796875 C-6.73774584 6.53098982 -7.92889125 5.62264519 -9.1015625 4.69140625 C-10.85556907 3.29846811 -10.85556907 3.29846811 -13.75 2.5 C-13.9975 3.7375 -14.245 4.975 -14.5 6.25 C-15.43515319 10.02401107 -16.62034653 12.05495822 -19.75 14.5 C-22.96402479 16.1070124 -26.26404554 15.96746516 -29.75 15.5 C-32.6875 13.9375 -32.6875 13.9375 -34.75 11.5 C-35.5625 7.75 -35.5625 7.75 -35.75 4.5 C-40.19536093 7.49206986 -43.59778899 10.08690458 -46.75 14.5 C-48.4 14.17 -50.05 13.84 -51.75 13.5 C-52.453125 11.27734375 -52.453125 11.27734375 -52.75 8.5 C-48.63393439 1.19525394 -41.30276899 -3.33890087 -33.75 -6.5 C-21.69171697 -9.6105762 -10.02158094 -7.39296955 0 0 Z " fill="#070604" transform="translate(325.75,278.5)"/>
<path d="M0 0 C4.30520436 0.46105656 6.62381175 3.221117 9.50292969 6.16235352 C10.03996017 6.69894592 10.57699066 7.23553833 11.1302948 7.78839111 C12.90135963 9.56154385 14.66156518 11.34508126 16.421875 13.12890625 C17.64861623 14.36124341 18.87602204 15.59291933 20.10406494 16.82395935 C23.33290748 20.06425082 26.55263934 23.3134506 29.77056885 26.5645752 C33.05644411 29.88115011 36.35083879 33.18923834 39.64453125 36.49804688 C46.10473015 42.9904108 52.5553379 49.49221574 59 56 C56.525 58.97 56.525 58.97 54 62 C47.30470134 56.50280742 41.26303509 50.39046848 35.16015625 44.2578125 C34.02694801 43.12273594 32.89351638 41.98788237 31.75987244 40.85324097 C28.79691665 37.88649256 25.83697807 34.91675198 22.87768555 31.9463501 C19.84933144 28.9077114 16.81809501 25.87195091 13.78710938 22.8359375 C7.85526911 16.8934174 1.92661739 10.947729 -4 5 C-2.68 3.35 -1.36 1.7 0 0 Z " fill="#AED8B0" transform="translate(338,354)"/>
<path d="M0 0 C1 1 1 1 1.125 3.5 C1 6 1 6 0 7 C-2.85964925 7.29317413 -4.48067551 7.32030193 -6.95703125 5.79296875 C-7.87548828 4.99826172 -7.87548828 4.99826172 -8.8125 4.1875 C-17.67033652 -2.91216481 -27.97378268 -3.86923743 -39 -3 C-44.99433884 -1.45745681 -50.03762409 1.36899324 -55 5 C-58.22791555 7.1519437 -59.28400809 7.20086443 -63 7 C-63.33 5.02 -63.66 3.04 -64 1 C-43.92535188 -14.99759193 -20.18949107 -16.73873622 0 0 Z " fill="#070504" transform="translate(279,367)"/>
<path d="M0 0 C0.53882813 0.44988281 1.07765625 0.89976563 1.6328125 1.36328125 C0.91738281 1.21890625 0.20195312 1.07453125 -0.53515625 0.92578125 C-17.12081129 -2.16391387 -30.17105918 -0.91175362 -44.23828125 8.6328125 C-52.8086504 15.2562381 -58.36273807 25.71554252 -59.76171875 36.3671875 C-60.01701944 39.03252673 -60.22227569 41.68990821 -60.3671875 44.36328125 C-62.3471875 44.36328125 -64.3271875 44.36328125 -66.3671875 44.36328125 C-67.19534869 31.05749147 -65.30880925 19.94524496 -56.375 9.42578125 C-42.19835068 -5.13700248 -18.29805909 -12.65162831 0 0 Z " fill="#FAF7F7" transform="translate(288.3671875,42.63671875)"/>
<path d="M0 0 C14.86714649 0.23196966 28.44522728 3.53917491 41 12 C41.495 12.99 41.495 12.99 42 14 C38.76019986 12.92841232 35.53030963 11.83598114 32.30859375 10.7109375 C31.0182577 10.26554232 29.72789277 9.82023081 28.4375 9.375 C27.79103516 9.14554688 27.14457031 8.91609375 26.47851562 8.6796875 C22.89828086 7.45592465 19.78973133 6.52028717 16 7 C13.78215558 8.83475748 13.78215558 8.83475748 13.5625 11.5 C13.9927866 14.94229283 14.73369461 16.72554149 16.3125 19.75 C20.49178598 27.76425579 22.25292745 34.60805935 22.3125 43.625 C22.31805908 44.32955322 22.32361816 45.03410645 22.3293457 45.76000977 C22.26063518 50.79114686 21.29926083 55.14433108 20 60 C19.61850242 66.00858688 20.49336458 71.18869196 22 77 C17.44742168 71.13520792 13.37481051 65.30875902 14.125 57.625 C14.47932565 55.40504133 14.92483289 53.2746327 15.51806641 51.10717773 C18.6172877 37.5563272 15.43856621 23.39900917 8.6953125 11.58984375 C6.51622115 8.26095535 4.04621279 5.35204387 1.3203125 2.4609375 C0 1 0 1 0 0 Z " fill="#F6F0F1" transform="translate(300,113)"/>
<path d="M0 0 C7.97976323 0.08642343 15.84685611 4.14092214 21.6875 9.375 C27.07706777 15.86980171 30.33195247 22.89510112 31 31.3125 C30.6875 34.375 30.6875 34.375 28.6875 36.375 C24.13194444 35.81944444 24.13194444 35.81944444 22.6875 34.375 C22.44168645 32.68984443 22.21609058 31.00172422 22 29.3125 C20.74204586 22.08395754 17.39995802 17.95183512 12.1875 13 C8.22664124 10.42544181 4.5995005 9.49660007 -0.0625 8.875 C-3.3125 8.375 -3.3125 8.375 -5.3125 6.375 C-4.5985476 0.52059029 -4.5985476 0.52059029 0 0 Z " fill="#090304" transform="translate(270.3125,46.625)"/>
<path d="M0 0 C4.09707774 1.14689324 6.06319636 4.12105919 8.21875 7.62109375 C9.99508213 11.01227328 10.88594605 13.8085449 10.21875 17.62109375 C8.28125 20.49609375 8.28125 20.49609375 5.21875 22.62109375 C0.34397222 23.24069167 -3.67725777 22.01698416 -7.71875 19.30859375 C-10.16749485 17.31437231 -12.03720017 15.78330551 -12.78125 12.62109375 C-12.70495158 8.42468064 -12.15239292 6.16620991 -9.78125 2.68359375 C-6.27716698 0.27453667 -4.19155405 -0.23053547 0 0 Z " fill="#F9F9F8" transform="translate(323.78125,330.37890625)"/>
<path d="M0 0 C6.31546896 1.31052222 11.11082519 2.78027313 15.0625 8.1015625 C16 10 16 10 16.1875 13.625 C14.76250099 17.6749972 13.45254789 19.44811678 10 22 C5.81488778 23.29358014 3.84559112 23.3647648 -0.1875 21.625 C-3.75961283 18.29102803 -5.78806185 14.74745428 -7 10 C-6.65641484 6.61504986 -5.38163686 5.03812812 -2.9375 2.75 C-2.38964844 2.22921875 -1.84179688 1.7084375 -1.27734375 1.171875 C-0.64505859 0.59179688 -0.64505859 0.59179688 0 0 Z " fill="#F8F8F8" transform="translate(403,415)"/>
<path d="M0 0 C1.03060547 -0.00322266 2.06121094 -0.00644531 3.12304688 -0.00976562 C10.66974103 0.04474103 10.66974103 0.04474103 12.9375 2.3125 C12.38194444 6.86805556 12.38194444 6.86805556 10.9375 8.3125 C9.50598271 8.43344692 8.06908782 8.4920828 6.6328125 8.5234375 C5.74392334 8.54978271 4.85503418 8.57612793 3.93920898 8.60327148 C2.98989502 8.63106689 2.04058105 8.6588623 1.0625 8.6875 C-7.38848305 9.00714379 -15.51012126 9.46959998 -23.17578125 13.39453125 C-25.61806436 14.58280564 -27.38013294 14.59485443 -30.0625 14.3125 C-30.7225 13.6525 -31.3825 12.9925 -32.0625 12.3125 C-31.8539678 9.8150787 -31.43379206 8.66294411 -29.6015625 6.93359375 C-20.26939211 1.1628843 -10.82498559 -0.17516158 0 0 Z " fill="#0C0A07" transform="translate(308.0625,243.6875)"/>
<path d="M0 0 C9.34683724 0.11677335 23.17002115 1.34751138 30.14599609 8.32348633 C30.27099609 10.82348633 30.27099609 10.82348633 30.14599609 13.32348633 C29.81599609 13.65348633 29.48599609 13.98348633 29.14599609 14.32348633 C24.44952182 13.94010067 20.56754351 12.8738235 16.23583984 11.04223633 C9.49884655 8.72521433 2.18190288 9.01043546 -4.86181641 8.8059082 C-5.73064453 8.77174805 -6.59947266 8.73758789 -7.49462891 8.70239258 C-8.28385742 8.67733643 -9.07308594 8.65228027 -9.88623047 8.62646484 C-11.85400391 8.32348633 -11.85400391 8.32348633 -13.85400391 6.32348633 C-12.84005739 -1.99087513 -7.01751584 0.02825087 0 0 Z " fill="#090705" transform="translate(192.85400390625,243.676513671875)"/>
<path d="M0 0 C0.66 0.66 1.32 1.32 2 2 C1.63318342 4.93453261 1.13562754 5.86437246 -1 8 C-3.0321733 8.3180793 -5.07743363 8.55410527 -7.125 8.75 C-13.74753303 9.58379673 -19.43368223 11.40074656 -25.58056641 13.96777344 C-29.20346784 15.45593148 -32.06925563 16.34705229 -36 16 C-36.33 14.02 -36.66 12.04 -37 10 C-25.13969984 3.68027802 -13.88008966 -1.7155167 0 0 Z " fill="#0B0405" transform="translate(201,183)"/>
<path d="M0 0 C6.39534884 0.69767442 6.39534884 0.69767442 9 2 C14.11793278 2.25170161 17.27290435 1.99035606 22 0 C25.3125 -0.125 25.3125 -0.125 28 0 C28.6875 2.3125 28.6875 2.3125 29 5 C25.72022965 9.08694125 20.80766224 10.63314518 15.7578125 11.29296875 C9.79935254 11.50945259 3.94706793 10.49113141 -0.7421875 6.52734375 C-1.15726563 6.02332031 -1.57234375 5.51929688 -2 5 C-1.74853421 2.86254078 -1.54074221 1.54074221 0 0 Z " fill="#0A0806" transform="translate(234,326)"/>
<path d="M0 0 C4.55555556 0.55555556 4.55555556 0.55555556 6 2 C6.09823996 3.47648876 6.12973519 4.95775417 6.125 6.4375 C6.12757813 7.24058594 6.13015625 8.04367188 6.1328125 8.87109375 C6 11 6 11 5 13 C3.02 13 1.04 13 -1 13 C-2.17673198 10.64653604 -2.16623866 9.1193967 -2.1875 6.5 C-2.20167969 5.7059375 -2.21585937 4.911875 -2.23046875 4.09375 C-2 2 -2 2 0 0 Z " fill="#0C0A07" transform="translate(267,225)"/>
<path d="M0 0 C4.55555556 0.55555556 4.55555556 0.55555556 6 2 C6.16796875 3.99609375 6.16796875 3.99609375 6.1875 6.4375 C6.20167969 7.24058594 6.21585938 8.04367187 6.23046875 8.87109375 C6 11 6 11 4 13 C1.4375 12.75 1.4375 12.75 -1 12 C-2.11445498 9.77109005 -2.16480286 8.46944894 -2.1875 6 C-2.20167969 5.29875 -2.21585938 4.5975 -2.23046875 3.875 C-2 2 -2 2 0 0 Z " fill="#100D0A" transform="translate(199,323)"/>
<path d="M0 0 C4.55555556 0.55555556 4.55555556 0.55555556 6 2 C5.39655172 9.60344828 5.39655172 9.60344828 3 12 C0.4375 12.1875 0.4375 12.1875 -2 12 C-2.33 11.67 -2.66 11.34 -3 11 C-2.94921875 9.00390625 -2.94921875 9.00390625 -2.6875 6.5625 C-2.60886719 5.75941406 -2.53023437 4.95632813 -2.44921875 4.12890625 C-2 2 -2 2 0 0 Z " fill="#120F0B" transform="translate(226,391)"/>
<path d="M0 0 C2.75 0.375 2.75 0.375 5.625 2.5625 C7.75 5.375 7.75 5.375 7.5625 8.1875 C7.294375 8.909375 7.02625 9.63125 6.75 10.375 C4.5625 11.1875 4.5625 11.1875 1.75 11.375 C-1.0625 9.25 -1.0625 9.25 -3.25 6.375 C-3.625 3.625 -3.625 3.625 -3.25 1.375 C-2.25 0.375 -2.25 0.375 0 0 Z " fill="#0E0B08" transform="translate(158.25,333.625)"/>
<path d="M0 0 C4.875 0.875 4.875 0.875 6 2 C5.39655172 9.60344828 5.39655172 9.60344828 3 12 C0.375 12.125 0.375 12.125 -2 12 C-3.35384615 5.72307692 -3.35384615 5.72307692 -1.5625 2.0625 C-1.046875 1.381875 -0.53125 0.70125 0 0 Z " fill="#100D0A" transform="translate(186,331)"/>
<path d="M0 0 C3.5027689 0.23351793 5.56565704 0.68816403 8.4375 2.75 C10 5 10 5 9.75 7.75 C9.5025 8.4925 9.255 9.235 9 10 C6.8125 10.75 6.8125 10.75 4 11 C1.1875 9.4375 1.1875 9.4375 -1 7 C-1.375 3.8125 -1.375 3.8125 -1 1 C-0.67 0.67 -0.34 0.34 0 0 Z " fill="#110E0A" transform="translate(232,225)"/>
<path d="M0 0 C4.09789669 0.37943488 6.53958935 0.69305957 10 3 C10.25 5.5625 10.25 5.5625 10 8 C9 9 9 9 6.25 9.25 C2.66642963 8.97434074 0.90141996 8.04806115 -2 6 C-1.125 1.125 -1.125 1.125 0 0 Z " fill="#0C0907" transform="translate(180,356)"/>
<path d="M0 0 C3.77800868 0.53971553 5.71576111 1.95434815 8 5 C8 7.625 8 7.625 7 10 C5.02 10.99 5.02 10.99 3 12 C0.69 9.69 -1.62 7.38 -4 5 C-2.68 3.35 -1.36 1.7 0 0 Z " fill="#F6F5F3" transform="translate(338,354)"/>
<path d="M0 0 C4.09789669 0.37943488 6.53958935 0.69305957 10 3 C10.25 5.5625 10.25 5.5625 10 8 C9 9 9 9 6.25 9.25 C2.66642963 8.97434074 0.90141996 8.04806115 -2 6 C-1.125 1.125 -1.125 1.125 0 0 Z " fill="#0C0A07" transform="translate(293,349)"/>
<path d="M0 0 C-0.11409593 1.45922693 -0.24165544 2.91740598 -0.375 4.375 C-0.44460938 5.18710937 -0.51421875 5.99921875 -0.5859375 6.8359375 C-1 9 -1 9 -3 11 C-5.625 10.625 -5.625 10.625 -8 10 C-9.15081169 5.97215907 -8.96281457 3.71901707 -7 0 C-4.3333581 -1.33332095 -2.83319697 -0.67102033 0 0 Z " fill="#0D0B08" transform="translate(303,315)"/>
<path d="M0 0 C3.73669693 0.41518855 6.73738338 1.11772118 10 3 C10.042721 4.66611905 10.04063832 6.33382885 10 8 C9.67 8.33 9.34 8.66 9 9 C7.00390625 8.94921875 7.00390625 8.94921875 4.5625 8.6875 C3.35787109 8.56955078 3.35787109 8.56955078 2.12890625 8.44921875 C0 8 0 8 -2 6 C-1.44444444 1.44444444 -1.44444444 1.44444444 0 0 Z " fill="#0C0A07" transform="translate(334,313)"/>
<path d="M0 0 C1.65 0.33 3.3 0.66 5 1 C5.36630156 4.93774177 5.30233203 6.56539771 3 9.875 C2.34 10.57625 1.68 11.2775 1 12 C-0.65 11.67 -2.3 11.34 -4 11 C-4.8125 8.875 -4.8125 8.875 -5 6 C-3.55576519 3.69892439 -1.89127865 1.98353614 0 0 Z " fill="#0D0B08" transform="translate(348,290)"/>
<path d="M0 0 C3.54339392 0.23622626 5.56517996 0.67667228 8.4375 2.8125 C10 5 10 5 9.8125 7.1875 C9 9 9 9 8 10 C5.75 10.375 5.75 10.375 3 10 C0.125 7.75 0.125 7.75 -2 5 C-1.87165745 2.68983403 -1.63394255 1.63394255 0 0 Z " fill="#0D0A08" transform="translate(257,390)"/>
<path d="M0 0 C3.92683725 0.37758051 5.42346736 1.65223399 8.25 4.3125 C7.375 8.1875 7.375 8.1875 6.25 9.3125 C2.15210331 8.93306512 -0.28958935 8.61944043 -3.75 6.3125 C-4 3.75 -4 3.75 -3.75 1.3125 C-2.75 0.3125 -2.75 0.3125 0 0 Z " fill="#0A0806" transform="translate(318.75,301.6875)"/>
<path d="M0 0 C7.41176471 0.70588235 7.41176471 0.70588235 10 2 C10.125 4.375 10.125 4.375 10 7 C9.34 7.66 8.68 8.32 8 9 C3.75534029 8.72317437 1.18382329 7.81645906 -2 5 C-1.125 1.125 -1.125 1.125 0 0 Z " fill="#0A0806" transform="translate(173,312)"/>
<path d="M0 0 C2.25 0.375 2.25 0.375 3.25 1.375 C3.625 3.6875 3.625 3.6875 3.25 6.375 C1.0625 8.75 1.0625 8.75 -1.75 10.375 C-4.5625 10.125 -4.5625 10.125 -6.75 9.375 C-7.5625 7.6875 -7.5625 7.6875 -7.75 5.375 C-5.35932759 2.28118865 -3.95209066 0.53892145 0 0 Z " fill="#080605" transform="translate(251.75,245.625)"/>
<path d="M0 0 C1.73426971 3.25666031 2.99026337 6.57452179 4.1875 10.0625 C4.55230469 11.10535156 4.91710937 12.14820313 5.29296875 13.22265625 C6 16 6 16 5 19 C4.00157071 16.77534445 3.00893157 14.5485579 2.02734375 12.31640625 C1.27317256 10.6159366 0.48874632 8.92880182 -0.3125 7.25 C-1.15404766 4.49584401 -0.78220878 2.73773075 0 0 Z " fill="#EFDBDE" transform="translate(117,235)"/>
<path d="M0 0 C4.43852727 -0.42496538 6.34386431 0.57465354 9.75 3.375 C10.52859375 4.00148438 11.3071875 4.62796875 12.109375 5.2734375 C14 7 14 7 15 9 C11.69918209 7.38102741 8.47442567 5.64075691 5.25 3.875 C4.26515625 3.33617188 3.2803125 2.79734375 2.265625 2.2421875 C1.51796875 1.83226563 0.7703125 1.42234375 0 1 C0 0.67 0 0.34 0 0 Z " fill="#EEDCDF" transform="translate(282,113)"/>
<path d="M0 0 C1.65 0.33 3.3 0.66 5 1 C4.67 2.32 4.34 3.64 4 5 C2.35 4.67 0.7 4.34 -1 4 C-0.67 2.68 -0.34 1.36 0 0 Z " fill="#EBE9E6" transform="translate(195,281)"/>
<path d="M0 0 C2.475 0.495 2.475 0.495 5 1 C4.67 2.32 4.34 3.64 4 5 C2.68 5 1.36 5 0 5 C0 3.35 0 1.7 0 0 Z " fill="#F6F5F4" transform="translate(298,281)"/>
<path d="M0 0 C3.75376152 1.25125384 4.24073289 2.5652404 6 6 C6 6.66 6 7.32 6 8 C5.01 8 4.02 8 3 8 C0 2.25 0 2.25 0 0 Z " fill="#F2E9EB" transform="translate(311,127)"/>
<path d="M0 0 C2.66666667 2.66666667 5.33333333 5.33333333 8 8 C7.67 8.66 7.34 9.32 7 10 C5.82739389 8.71372289 4.6620717 7.42080217 3.5 6.125 C2.8503125 5.40570313 2.200625 4.68640625 1.53125 3.9453125 C0 2 0 2 0 0 Z " fill="#EFEAE4" transform="translate(160,372)"/>
</svg>
