<?xml version="1.0" encoding="UTF-8"?>
<svg version="1.1" xmlns="http://www.w3.org/2000/svg" width="512" height="514">
<path d="M0 0 C1.4540625 0.0309375 1.4540625 0.0309375 2.9375 0.0625 C3.2675 1.0525 3.5975 2.0425 3.9375 3.0625 C67.2975 3.0625 130.6575 3.0625 195.9375 3.0625 C196.2675 2.0725 196.5975 1.0825 196.9375 0.0625 C199.8125 -0.0625 199.8125 -0.0625 202.9375 0.0625 C203.5975 0.7225 204.2575 1.3825 204.9375 2.0625 C204.58697931 6.99169724 202.82854468 11.36026829 200.9375 15.875 C200.62917236 16.61274658 200.32084473 17.35049316 200.00317383 18.1105957 C192.16268192 36.4712413 182.12032906 52.11649667 168.30859375 66.515625 C165.94292326 68.81653752 165.94292326 68.81653752 164.9375 71.0625 C165.37076607 78.39184419 167.03653321 88.35000289 172.54443359 93.59179688 C177.07585218 96.32530038 182.27360962 97.54591385 187.33056641 98.97119141 C194.14097809 101.03173968 200.76336488 103.63098932 207.41549683 106.14865112 C210.01407716 107.13031794 212.61614457 108.10222571 215.21899414 109.07250977 C281.31281796 133.79732682 281.31281796 133.79732682 306.9375 158.0625 C307.75992187 158.83207031 308.58234375 159.60164062 309.4296875 160.39453125 C335.24223684 185.28233194 354.86197459 224.65718856 356.06334114 260.85406208 C356.06877718 262.24631016 356.0688551 263.63858618 356.06448364 265.03083801 C356.06604363 265.80443954 356.06760362 266.57804106 356.06921089 267.37508506 C356.07318218 269.95425933 356.07004561 272.53337416 356.06689453 275.11254883 C356.06825085 276.97018976 356.07003209 278.82783042 356.07220459 280.68547058 C356.07676755 285.73838275 356.07498973 290.79127449 356.0718255 295.84418702 C356.06927693 301.19289339 356.07164812 306.54159812 356.07321167 311.89030457 C356.07503412 320.9266287 356.07263343 329.96294468 356.06787109 338.99926758 C356.0630981 348.15845272 356.06299122 357.31762155 356.06787109 366.47680664 C356.11308368 453.67374493 356.11308368 453.67374493 355.4921875 490.38671875 C355.46306463 492.20253417 355.46306463 492.20253417 355.43335342 494.05503273 C355.37861824 497.32681412 355.3162241 500.59831649 355.24951172 503.86987305 C355.22503023 505.27783803 355.22503023 505.27783803 355.20005417 506.71424675 C355.05432855 512.94567145 355.05432855 512.94567145 353.9375 514.0625 C351.93791636 514.10330783 349.93704746 514.10504356 347.9375 514.0625 C347.2775 512.7425 346.6175 511.4225 345.9375 510.0625 C326.4675 510.0625 306.9975 510.0625 286.9375 510.0625 C286.6075 511.3825 286.2775 512.7025 285.9375 514.0625 C283.9575 514.0625 281.9775 514.0625 279.9375 514.0625 C279.2775 512.7425 278.6175 511.4225 277.9375 510.0625 C233.38357423 510.12132522 188.8296988 510.19582881 144.27583606 510.29148628 C139.02096777 510.30275503 133.76609921 510.31389338 128.51123047 510.32495117 C127.46503992 510.32715486 126.41884937 510.32935854 125.34095608 510.331629 C108.38061607 510.36704281 91.42027611 510.39188386 74.45991279 510.41284702 C57.06898259 510.4345766 39.67810056 510.46759981 22.2872113 510.51120156 C11.54810747 510.53776741 0.80906371 510.55542639 -9.93007137 510.56184604 C-17.28506104 510.56708489 -24.63997501 510.58325091 -31.99492417 510.60816566 C-36.24421804 510.62223249 -40.49337623 510.63133229 -44.74269485 510.62750816 C-48.62757071 510.62411784 -52.51215595 510.63434643 -56.39697219 510.65573552 C-57.80748647 510.66103868 -59.21803065 510.66120176 -60.62854491 510.65589563 C-62.53580782 510.64944786 -64.44310782 510.66299412 -66.35032463 510.67773914 C-67.41278211 510.67963775 -68.4752396 510.68153635 -69.56989276 510.68349248 C-70.39245315 510.80856496 -71.21501354 510.93363744 -72.0625 511.0625 C-72.7225 512.0525 -73.3825 513.0425 -74.0625 514.0625 C-77.1875 514.25 -77.1875 514.25 -80.0625 514.0625 C-80.3925 512.7425 -80.7225 511.4225 -81.0625 510.0625 C-102.5125 510.0625 -123.9625 510.0625 -146.0625 510.0625 C-147.0525 512.0425 -147.0525 512.0425 -148.0625 514.0625 C-150.06204746 514.10504356 -152.06291636 514.10330783 -154.0625 514.0625 C-156.22639157 511.89860843 -155.31927127 506.85126838 -155.37011719 503.84790039 C-155.39027138 502.84138113 -155.41042557 501.83486187 -155.43119049 500.79784203 C-155.49745954 497.3145338 -155.55422824 493.83115775 -155.609375 490.34765625 C-155.63006798 489.10852037 -155.65076096 487.8693845 -155.67208099 486.59269905 C-156.30141613 447.86098785 -156.28530946 409.12160195 -156.3013196 370.38579118 C-156.30610108 359.03122019 -156.32378819 347.67676641 -156.3523953 336.32223076 C-156.37406047 327.40536816 -156.38410037 318.4885387 -156.38543582 309.57165009 C-156.3864737 304.29969219 -156.3921702 299.02784784 -156.41025543 293.7559185 C-156.42683788 288.83448568 -156.4288429 283.91325129 -156.42011642 278.99180031 C-156.41935346 277.20411008 -156.42358926 275.41640853 -156.43357468 273.62874603 C-156.50967805 259.14534548 -154.87777069 245.29788618 -150.9375 231.3125 C-150.73358643 230.58772461 -150.52967285 229.86294922 -150.31958008 229.11621094 C-142.65190763 203.2484393 -128.70716443 180.38074334 -110.0625 161.0625 C-109.27359375 160.21042969 -108.4846875 159.35835937 -107.671875 158.48046875 C-78.49019291 127.80105132 -32.62606178 115.73057534 5.9375 101.0625 C7.18702088 100.58693814 8.43653324 100.11135388 9.68603516 99.63574219 C10.78608887 99.21711914 11.88614258 98.79849609 13.01953125 98.3671875 C14.50936523 97.80016113 14.50936523 97.80016113 16.02929688 97.22167969 C17.77870322 96.55670434 19.52865941 95.89317276 21.27929688 95.23144531 C25.16388233 93.77653973 25.16388233 93.77653973 28.9375 92.0625 C29.78308633 89.84580759 29.78308633 89.84580759 30.4453125 87.15234375 C30.84169922 85.66831055 30.84169922 85.66831055 31.24609375 84.15429688 C31.51550781 83.11337891 31.78492188 82.07246094 32.0625 81 C32.33964844 79.95521484 32.61679688 78.91042969 32.90234375 77.83398438 C33.58793221 75.24529692 34.26595654 72.65485992 34.9375 70.0625 C34.34952637 69.50570557 33.76155273 68.94891113 33.15576172 68.37524414 C15.55836657 51.55981862 2.72454747 29.02685019 -5.0625 6.0625 C-4.55445302 0.09294802 -4.55445302 0.09294802 0 0 Z " fill="#FEFEFE" transform="translate(156.0625,-0.0625)"/>
<path d="M0 0 C2.93453261 0.36681658 3.86437246 0.86437246 6 3 C10.11767518 3.39800538 14.24088662 3.32904717 18.3762207 3.31567383 C20.42648614 3.31251696 22.47530405 3.3359576 24.52539062 3.36132812 C25.81509766 3.36197266 27.10480469 3.36261719 28.43359375 3.36328125 C29.62009521 3.36626221 30.80659668 3.36924316 32.02905273 3.37231445 C35.29603887 2.96290087 35.96224295 2.43659905 38 0 C40.13745922 0.25146579 41.45925779 0.45925779 43 2 C43.12109117 3.52807308 43.17960831 5.06120672 43.2109375 6.59375 C43.23929688 7.5425 43.26765625 8.49125 43.296875 9.46875 C43.34814859 11.45816518 43.39264464 13.44776897 43.4296875 15.4375 C43.63439168 21.78332946 44.61134411 27.1083499 47 33 C50.73529558 32.76654403 52.83794743 31.50420994 55.6875 29.25 C71.38436558 17.01524683 91.78813624 15.66475771 111 17 C120.5216169 18.28061597 129.5329161 21.50186168 138 26 C139.2065625 26.62648437 139.2065625 26.62648437 140.4375 27.265625 C153.64645016 34.63215489 163.26474034 44.87340424 172 57 C172.59167969 57.77601563 173.18335938 58.55203125 173.79296875 59.3515625 C176.81935001 63.60714623 177.23338368 66.34240761 176.83666992 71.49731445 C177.03900795 74.59771382 178.04871139 76.55429052 179.5 79.2890625 C179.9640625 80.1754541 180.428125 81.0618457 180.90625 81.97509766 C181.44765625 82.97742432 181.44765625 82.97742432 182 84 C182.49814209 83.01773438 182.49814209 83.01773438 183.00634766 82.015625 C184.53807547 79.00636161 186.08143225 76.00320628 187.625 73 C188.14707031 71.97003906 188.66914063 70.94007813 189.20703125 69.87890625 C192.33756477 63.81108201 195.6682595 58.28592829 200 53 C204.875 53.875 204.875 53.875 206 55 C206.13956395 56.65329603 206.27487657 58.30704142 206.39086914 59.9621582 C208.41120513 85.42184033 221.91929189 109.95199371 234 132 C243.45358148 125.21349039 249.16185384 115.01332343 254.8125 105.0625 C257 102 257 102 259.8125 101.5 C260.534375 101.665 261.25625 101.83 262 102 C276.5114601 128.76346041 282.86088223 169.87145097 274.1875 199.3125 C273.795625 200.529375 273.40375 201.74625 273 203 C272.649375 204.155 272.29875 205.31 271.9375 206.5 C266.58950351 222.24687856 255.95737394 232.99662806 241.35742188 240.21606445 C217.17515521 251.54239718 188.61370003 250.50268189 163.85400391 241.70751953 C151.85999541 237.1304012 140.85600229 228.94236128 134 218 C134 217.34 134 216.68 134 216 C133.39671875 216.28875 132.7934375 216.5775 132.171875 216.875 C131.37265625 217.24625 130.5734375 217.6175 129.75 218 C128.96109375 218.37125 128.1721875 218.7425 127.359375 219.125 C125 220 125 220 121 220 C120.67 221.65 120.34 223.3 120 225 C118.02435058 225.6565141 116.044244 226.29961906 114.0625 226.9375 C112.96035156 227.29714844 111.85820312 227.65679687 110.72265625 228.02734375 C102.77589065 230.103676 94.80111032 230.18207818 86.625 230.1875 C85.66078125 230.19974609 84.6965625 230.21199219 83.703125 230.22460938 C76.93544741 230.23821731 70.61230225 229.42638884 64 228 C64.07686035 228.68078613 64.1537207 229.36157227 64.23291016 230.06298828 C64.87522066 235.92363127 65.10915228 241.73493079 65.125 247.625 C65.12951172 248.33591797 65.13402344 249.04683594 65.13867188 249.77929688 C65.12381213 254.87618787 65.12381213 254.87618787 64 256 C62.00041636 256.04080783 59.99954746 256.04254356 58 256 C57.67 255.34 57.34 254.68 57 254 C44.79 253.67 32.58 253.34 20 253 C19.67 253.99 19.34 254.98 19 256 C16.625 256.125 16.625 256.125 14 256 C11.06195649 253.06195649 11.70823351 249.87582509 11.625 245.9375 C11.15828748 235.15025549 8.50344575 229.29798688 1.09375 221.390625 C-7.12917516 212.00176269 -12.44563409 201.37817888 -12.27734375 188.8125 C-11.2511873 178.40640642 -6.32189574 168.83180633 1.25 161.6875 C8.42196326 156.02874218 16.01646292 154.14442504 25 155 C25.82886719 155.05929687 26.65773437 155.11859375 27.51171875 155.1796875 C36.53114384 156.28520747 44.11327905 160.76333172 52 165 C56.60488261 167.30244131 63.34064421 166.73897143 68.20703125 165.38671875 C72.30105009 163.36200791 74.59693419 160.47715697 76.3359375 156.38671875 C79.3782153 145.45241443 75.59776423 135.80304508 70.49609375 126.15625 C61.66956976 111.35321217 47.66986661 99.06470424 34.3125 88.375 C15.61973276 73.31082875 2.0901866 54.02152633 -2 30 C-2.22106127 25.27300415 -2.18512586 20.54416424 -2.1875 15.8125 C-2.19974609 14.51634766 -2.21199219 13.22019531 -2.22460938 11.88476562 C-2.22750977 10.03334961 -2.22750977 10.03334961 -2.23046875 8.14453125 C-2.23457764 7.01378174 -2.23868652 5.88303223 -2.24291992 4.71801758 C-2 2 -2 2 0 0 Z " fill="#FDC6C8" transform="translate(130,200)"/>
<path d="M0 0 C4.55555556 0.55555556 4.55555556 0.55555556 6 2 C6.13956395 3.65329603 6.27487657 5.30704142 6.39086914 6.9621582 C8.41120513 32.42184033 21.91929189 56.95199371 34 79 C43.45358148 72.21349039 49.16185384 62.01332343 54.8125 52.0625 C57 49 57 49 59.8125 48.5 C60.534375 48.665 61.25625 48.83 62 49 C76.5114601 75.76346041 82.86088223 116.87145097 74.1875 146.3125 C73.795625 147.529375 73.40375 148.74625 73 150 C72.649375 151.155 72.29875 152.31 71.9375 153.5 C66.58950351 169.24687856 55.95737394 179.99662806 41.35742188 187.21606445 C17.17515521 198.54239718 -11.38629997 197.50268189 -36.14599609 188.70751953 C-51.61628733 182.80379238 -63.73861538 171.44573793 -70.8125 156.5 C-71.56949871 154.67798241 -72.29869549 152.84417112 -73 151 C-73.36867188 150.04351562 -73.73734375 149.08703125 -74.1171875 148.1015625 C-78.35226726 136.32371296 -79.37071802 124.50850087 -79.3125 112.0625 C-79.30758545 110.80123291 -79.3026709 109.53996582 -79.29760742 108.24047852 C-79.09039591 91.44997046 -78.64214362 66.46321543 -69 52 C-66.734375 51.34765625 -66.734375 51.34765625 -64 52 C-61.73876835 54.23173039 -60.0332836 56.81799393 -58.25 59.4375 C-52.22851814 67.86868935 -46.0452992 75.66559278 -37 81 C-36.89751953 79.41445313 -36.89751953 79.41445313 -36.79296875 77.796875 C-36.00548246 71.61083814 -33.60799729 66.00956043 -31.3125 60.25 C-30.82990723 59.03223877 -30.34731445 57.81447754 -29.85009766 56.55981445 C-11.87708283 11.87708283 -11.87708283 11.87708283 0 0 Z " fill="#FC7489" transform="translate(330,253)"/>
<path d="M0 0 C63.36 0 126.72 0 192 0 C189.96402464 6.78658453 187.95798566 12.87629571 184.9375 19.1875 C184.3504126 20.41460693 184.3504126 20.41460693 183.75146484 21.66650391 C169.42865586 50.84007321 142.54396671 78.83660684 111.5 89.875 C97.8146905 94.52923814 87.04688648 93.27135778 73.95654297 87.02490234 C64.63245303 82.28417775 56.11527342 76.60422641 48 70 C47.43539062 69.54222168 46.87078125 69.08444336 46.2890625 68.61279297 C24.48817232 50.81626935 9.28362274 28.54975442 0 2 C0 1.34 0 0.68 0 0 Z " fill="#FEFEFE" transform="translate(160,3)"/>
<path d="M0 0 C1.4540625 0.0309375 1.4540625 0.0309375 2.9375 0.0625 C3.1334375 0.57554688 3.329375 1.08859375 3.53125 1.6171875 C10.78655605 20.19327282 18.76543888 37.8776868 31.9375 53.0625 C32.98357422 54.30773438 32.98357422 54.30773438 34.05078125 55.578125 C39.46700798 61.85055809 45.37080777 67.02664175 51.9375 72.0625 C52.49711426 72.50239258 53.05672852 72.94228516 53.63330078 73.39550781 C66.79806392 83.72038663 84.8251011 96.30659389 102.32421875 95.44140625 C122.52446686 92.51252125 139.99424258 80.02137398 154.4921875 66.34765625 C156.57999882 64.39658657 158.71674463 62.60618703 160.9375 60.8125 C178.65128342 45.30841144 189.04293722 21.68565779 196.9375 0.0625 C199.8125 -0.0625 199.8125 -0.0625 202.9375 0.0625 C203.5975 0.7225 204.2575 1.3825 204.9375 2.0625 C204.58697931 6.99169724 202.82854468 11.36026829 200.9375 15.875 C200.62917236 16.61274658 200.32084473 17.35049316 200.00317383 18.1105957 C192.16268192 36.4712413 182.12032906 52.11649667 168.30859375 66.515625 C165.94292326 68.81653752 165.94292326 68.81653752 164.9375 71.0625 C165.37076607 78.39184419 167.03653321 88.35000289 172.54443359 93.59179688 C177.07585218 96.32530038 182.27360962 97.54591385 187.33056641 98.97119141 C194.14097809 101.03173968 200.76336488 103.63098932 207.41549683 106.14865112 C210.01407716 107.13031794 212.61614457 108.10222571 215.21899414 109.07250977 C281.31281796 133.79732682 281.31281796 133.79732682 306.9375 158.0625 C307.75992187 158.83207031 308.58234375 159.60164062 309.4296875 160.39453125 C335.24223684 185.28233194 354.86197459 224.65718856 356.06334114 260.85406208 C356.06877718 262.24631016 356.0688551 263.63858618 356.06448364 265.03083801 C356.06604363 265.80443954 356.06760362 266.57804106 356.06921089 267.37508506 C356.07318218 269.95425933 356.07004561 272.53337416 356.06689453 275.11254883 C356.06825085 276.97018976 356.07003209 278.82783042 356.07220459 280.68547058 C356.07676755 285.73838275 356.07498973 290.79127449 356.0718255 295.84418702 C356.06927693 301.19289339 356.07164812 306.54159812 356.07321167 311.89030457 C356.07503412 320.9266287 356.07263343 329.96294468 356.06787109 338.99926758 C356.0630981 348.15845272 356.06299122 357.31762155 356.06787109 366.47680664 C356.11308368 453.67374493 356.11308368 453.67374493 355.4921875 490.38671875 C355.46306463 492.20253417 355.46306463 492.20253417 355.43335342 494.05503273 C355.37861824 497.32681412 355.3162241 500.59831649 355.24951172 503.86987305 C355.22503023 505.27783803 355.22503023 505.27783803 355.20005417 506.71424675 C355.05432855 512.94567145 355.05432855 512.94567145 353.9375 514.0625 C351.93791636 514.10330783 349.93704746 514.10504356 347.9375 514.0625 C345.52636296 509.78633471 345.709996 505.88358165 345.80224609 501.08642578 C345.81169345 500.16690062 345.8211408 499.24737545 345.83087444 498.29998589 C345.86486631 495.20240759 345.91316435 492.10520656 345.9609375 489.0078125 C345.98750002 486.77857677 346.01297947 484.54932792 346.03746033 482.32006836 C346.09180453 477.48985493 346.15157626 472.65975033 346.21524048 467.82965088 C346.37651422 455.42836222 346.49170447 443.02657617 346.60927701 430.6248107 C346.62903449 428.54902666 346.64907332 426.4732455 346.66917229 424.39746475 C346.9581677 394.45038978 347.15479364 364.5031453 347.21713257 334.55470085 C347.23267715 327.16367623 347.25456254 319.7728275 347.2958374 312.38189697 C347.33114669 306.04959969 347.35206214 299.71745121 347.3551262 293.38505292 C347.3570574 290.14751618 347.36719501 286.91040337 347.39088249 283.67294312 C347.52481877 264.39353322 346.22569261 245.50186908 339.6875 227.1875 C339.39230469 226.33293213 339.09710938 225.47836426 338.79296875 224.59790039 C335.86376648 216.38556316 332.14474657 208.68666985 327.9375 201.0625 C327.36128906 199.99644531 326.78507812 198.93039063 326.19140625 197.83203125 C296.83292847 145.42070717 240.9692347 128.96772604 188.16796875 109.12109375 C187.12268005 108.72738838 187.12268005 108.72738838 186.05627441 108.32572937 C182.67222333 107.05830637 179.28116233 105.82588739 175.86181641 104.65673828 C175.21827713 104.434944 174.57473785 104.21314972 173.91169739 103.9846344 C172.17334863 103.38961018 170.43116453 102.80582383 168.6887207 102.22290039 C165.99293667 101.08588189 164.64815022 100.39707475 162.9375 98.0625 C162.04614258 95.79418945 162.04614258 95.79418945 161.33203125 93.17578125 C160.94047852 91.7690918 160.94047852 91.7690918 160.54101562 90.33398438 C160.14946289 88.86928711 160.14946289 88.86928711 159.75 87.375 C159.34104492 85.89290039 159.34104492 85.89290039 158.92382812 84.38085938 C158.25272986 81.94371305 157.5910217 79.50440712 156.9375 77.0625 C156.43903564 77.43979248 155.94057129 77.81708496 155.42700195 78.20581055 C145.41214169 85.75634935 135.40545135 92.62926536 124.0625 98.0625 C123.29059326 98.43608643 122.51868652 98.80967285 121.72338867 99.19458008 C109.32667969 104.93790586 97.72698666 105.52857979 84.66796875 101.44140625 C72.20254093 96.83376644 61.42451911 90.01778943 50.67480469 82.29492188 C48.13339419 80.49207755 45.53979957 78.77601418 42.9375 77.0625 C42.77668945 77.68294189 42.61587891 78.30338379 42.45019531 78.94262695 C41.71131225 81.75770816 40.94971847 84.56615165 40.1875 87.375 C39.93484375 88.35146484 39.6821875 89.32792969 39.421875 90.33398438 C39.1640625 91.27177734 38.90625 92.20957031 38.640625 93.17578125 C38.41020508 94.03985596 38.17978516 94.90393066 37.94238281 95.79418945 C36.11869767 99.9107732 33.01909528 101.10398108 29.01220703 102.68139648 C27.40901272 103.27211923 25.80318621 103.85572916 24.1953125 104.43359375 C23.3277533 104.75190155 22.46019409 105.07020935 21.56634521 105.39816284 C19.70289779 106.08162843 17.83844031 106.76234524 15.9730835 107.44058228 C11.06434827 109.22730343 6.16500337 111.03937108 1.265625 112.8515625 C0.2893515 113.21238419 -0.686922 113.57320587 -1.69277954 113.94496155 C-55.64273879 133.40583185 -55.64273879 133.40583185 -102.0625 166.0625 C-102.72636719 166.66191406 -103.39023438 167.26132813 -104.07421875 167.87890625 C-129.73191253 191.97527992 -145.44212965 230.49686612 -147.22843933 265.29508209 C-147.46998245 273.42424159 -147.4412605 281.55458482 -147.39953756 289.68634319 C-147.38421687 293.3009164 -147.38620283 296.91549032 -147.38577271 300.53009033 C-147.38218481 307.50934772 -147.36229171 314.48846418 -147.33660209 321.46767139 C-147.31641631 327.09581703 -147.30402674 332.72393529 -147.29669189 338.35211182 C-147.29563977 339.15327144 -147.29458765 339.95443106 -147.29350364 340.77986825 C-147.29245286 341.58244651 -147.29140207 342.38502478 -147.29031944 343.2119236 C-147.2483854 375.16847344 -147.09288299 407.12327812 -146.7578125 439.078125 C-146.74480606 440.33595669 -146.73179962 441.59378838 -146.71839905 442.88973618 C-146.59572626 454.65982099 -146.46306877 466.42960537 -146.29052162 478.19907379 C-146.23015988 482.40455296 -146.17702045 486.61010486 -146.12517929 490.81569672 C-146.08702271 493.66125723 -146.03785404 496.50648652 -145.98831177 499.35186768 C-145.96733442 501.03128303 -145.94693992 502.71070582 -145.92724609 504.39013672 C-145.91070606 505.14822947 -145.89416603 505.90632221 -145.87712479 506.68738747 C-145.86232229 508.48009574 -145.95252803 510.27310674 -146.0625 512.0625 C-148.0625 514.0625 -148.0625 514.0625 -151.125 514.25 C-154.0625 514.0625 -154.0625 514.0625 -155.0625 513.0625 C-155.22447679 509.98470768 -155.31796516 506.92841738 -155.37011719 503.84790039 C-155.39027138 502.84138113 -155.41042557 501.83486187 -155.43119049 500.79784203 C-155.49745954 497.3145338 -155.55422824 493.83115775 -155.609375 490.34765625 C-155.63006798 489.10852037 -155.65076096 487.8693845 -155.67208099 486.59269905 C-156.30141613 447.86098785 -156.28530946 409.12160195 -156.3013196 370.38579118 C-156.30610108 359.03122019 -156.32378819 347.67676641 -156.3523953 336.32223076 C-156.37406047 327.40536816 -156.38410037 318.4885387 -156.38543582 309.57165009 C-156.3864737 304.29969219 -156.3921702 299.02784784 -156.41025543 293.7559185 C-156.42683788 288.83448568 -156.4288429 283.91325129 -156.42011642 278.99180031 C-156.41935346 277.20411008 -156.42358926 275.41640853 -156.43357468 273.62874603 C-156.50967805 259.14534548 -154.87777069 245.29788618 -150.9375 231.3125 C-150.73358643 230.58772461 -150.52967285 229.86294922 -150.31958008 229.11621094 C-142.65190763 203.2484393 -128.70716443 180.38074334 -110.0625 161.0625 C-109.27359375 160.21042969 -108.4846875 159.35835937 -107.671875 158.48046875 C-78.49019291 127.80105132 -32.62606178 115.73057534 5.9375 101.0625 C7.18702088 100.58693814 8.43653324 100.11135388 9.68603516 99.63574219 C10.78608887 99.21711914 11.88614258 98.79849609 13.01953125 98.3671875 C14.50936523 97.80016113 14.50936523 97.80016113 16.02929688 97.22167969 C17.77870322 96.55670434 19.52865941 95.89317276 21.27929688 95.23144531 C25.16388233 93.77653973 25.16388233 93.77653973 28.9375 92.0625 C29.78308633 89.84580759 29.78308633 89.84580759 30.4453125 87.15234375 C30.84169922 85.66831055 30.84169922 85.66831055 31.24609375 84.15429688 C31.51550781 83.11337891 31.78492188 82.07246094 32.0625 81 C32.33964844 79.95521484 32.61679688 78.91042969 32.90234375 77.83398438 C33.58793221 75.24529692 34.26595654 72.65485992 34.9375 70.0625 C34.34952637 69.50570557 33.76155273 68.94891113 33.15576172 68.37524414 C15.55836657 51.55981862 2.72454747 29.02685019 -5.0625 6.0625 C-4.55445302 0.09294802 -4.55445302 0.09294802 0 0 Z " fill="#020202" transform="translate(156.0625,-0.0625)"/>
<path d="M0 0 C4.55555556 0.55555556 4.55555556 0.55555556 6 2 C6.13956395 3.65329603 6.27487657 5.30704142 6.39086914 6.9621582 C8.41120513 32.42184033 21.91929189 56.95199371 34 79 C43.45358148 72.21349039 49.16185384 62.01332343 54.8125 52.0625 C57 49 57 49 59.8125 48.5 C60.534375 48.665 61.25625 48.83 62 49 C76.5114601 75.76346041 82.86088223 116.87145097 74.1875 146.3125 C73.795625 147.529375 73.40375 148.74625 73 150 C72.649375 151.155 72.29875 152.31 71.9375 153.5 C66.58950351 169.24687856 55.95737394 179.99662806 41.35742188 187.21606445 C17.17515521 198.54239718 -11.38629997 197.50268189 -36.14599609 188.70751953 C-51.61628733 182.80379238 -63.73861538 171.44573793 -70.8125 156.5 C-71.56949871 154.67798241 -72.29869549 152.84417112 -73 151 C-73.36867188 150.04351562 -73.73734375 149.08703125 -74.1171875 148.1015625 C-78.35226726 136.32371296 -79.37071802 124.50850087 -79.3125 112.0625 C-79.30758545 110.80123291 -79.3026709 109.53996582 -79.29760742 108.24047852 C-79.09039591 91.44997046 -78.64214362 66.46321543 -69 52 C-66.734375 51.34765625 -66.734375 51.34765625 -64 52 C-61.73876835 54.23173039 -60.0332836 56.81799393 -58.25 59.4375 C-52.22851814 67.86868935 -46.0452992 75.66559278 -37 81 C-36.89751953 79.41445313 -36.89751953 79.41445313 -36.79296875 77.796875 C-36.00548246 71.61083814 -33.60799729 66.00956043 -31.3125 60.25 C-30.82990723 59.03223877 -30.34731445 57.81447754 -29.85009766 56.55981445 C-11.87708283 11.87708283 -11.87708283 11.87708283 0 0 Z M-2 18 C-10.95697041 34.69848555 -19.47594311 51.28078963 -25.9375 69.125 C-26.31527588 70.1680127 -26.69305176 71.21102539 -27.08227539 72.28564453 C-29.14876874 78.14613103 -30.78971105 83.90419912 -32 90 C-35.08664166 90.9811111 -36.47847096 91.25574982 -39.4375 89.8046875 C-46.80754886 84.2546812 -53.2377829 78.05789545 -59.62841797 71.41992188 C-61.39596482 69.59007986 -63.19456354 67.79238511 -65 66 C-72.21910226 90.22626658 -75.52387863 119.67779256 -67 144 C-66.61457031 145.10859375 -66.22914063 146.2171875 -65.83203125 147.359375 C-59.61945951 163.52412478 -49.27236497 173.45785917 -34 181 C-31.73709648 181.72610323 -31.73709648 181.72610323 -30 182 C-30.495 180.453125 -30.495 180.453125 -31 178.875 C-33.41498478 169.0050622 -33.1057676 158.89206717 -28 150 C-24.89126889 145.29563699 -21.45567702 140.86191247 -17.984375 136.421875 C-10.58339809 126.68988174 -2.67173331 115.55752404 -3.71875 102.84375 C-3.8115625 102.2353125 -3.904375 101.626875 -4 101 C-1.88671875 100.6484375 -1.88671875 100.6484375 1 101 C3.29700821 102.81231841 5.18769365 104.52506884 7.1875 106.625 C8.0396106 107.50309326 8.0396106 107.50309326 8.90893555 108.39892578 C23.26647356 123.54839537 35.60027849 142.97561831 36.4375 164.375 C36.21212346 169.49798223 34.70160552 174.19494813 33 179 C32.67 179.99 32.34 180.98 32 182 C44.71060109 178.65510498 54.25287905 169.93498912 61 159 C63.04198321 154.76380347 64.58648022 150.48150022 66 146 C66.3196875 145.07574219 66.639375 144.15148437 66.96875 143.19921875 C74.43777534 117.64547003 66.94987536 88.77810973 60 64 C59.01 64 58.02 64 57 64 C55.47566389 65.97231654 54.1418919 67.90250224 52.8125 70 C48.23226183 76.91551984 42.89370541 84.67633456 35 88 C31.6875 88.1875 31.6875 88.1875 29 88 C29.94418605 83.14418605 29.94418605 83.14418605 30.75 81.0625 C31.140526 77.84066053 29.55863615 75.74319962 28 73 C27.34 73 26.68 73 26 73 C25.34 74.32 24.68 75.64 24 77 C14.53791607 60.50742912 7.04580018 42.90459777 1.80029297 24.62402344 C1.25045917 22.73399582 0.63205729 20.86414194 0 19 C-0.99 18.505 -0.99 18.505 -2 18 Z " fill="#080505" transform="translate(330,253)"/>
<path d="M0 0 C2.93453261 0.36681658 3.86437246 0.86437246 6 3 C6.27124023 5.42333984 6.27124023 5.42333984 6.30859375 8.4609375 C6.33373047 9.57339844 6.35886719 10.68585938 6.38476562 11.83203125 C6.41933976 14.15490082 6.45070367 16.47782088 6.47851562 18.80078125 C7.02688407 42.15325206 17.49102654 61.0462718 34 77 C38.02510017 80.67928961 42.20754016 84.17057281 46.3984375 87.65820312 C64.13641252 102.51916512 83.89533899 120.74552218 86.31640625 145.1953125 C86.64342704 154.28860027 84.80130693 160.63827001 79.25 167.8125 C73.87230129 173.52215542 68.8278461 175.26436076 61 175.75 C52.34221038 175.55146644 46.18819348 172.04320029 38.75390625 167.92724609 C31.02954033 163.84356823 21.97261642 162.36100294 13.48046875 164.69140625 C5.76416939 167.74977366 2.53353615 172.47731769 -0.8125 179.8125 C-3.85000991 187.57396066 -4.01432228 193.81104822 -1.09765625 201.625 C2.66414838 209.76442069 8.14999065 216.65234933 13.984375 223.39453125 C19.64888083 230.71667348 20.16729453 237.36814772 20.125 246.25 C20.13080078 247.49136719 20.13080078 247.49136719 20.13671875 248.7578125 C20.12669335 254.87330665 20.12669335 254.87330665 19 256 C16.5625 256.1875 16.5625 256.1875 14 256 C11.06195649 253.06195649 11.70823351 249.87582509 11.625 245.9375 C11.15828748 235.15025549 8.50344575 229.29798688 1.09375 221.390625 C-7.12917516 212.00176269 -12.44563409 201.37817888 -12.27734375 188.8125 C-11.2511873 178.40640642 -6.32189574 168.83180633 1.25 161.6875 C8.42196326 156.02874218 16.01646292 154.14442504 25 155 C25.82886719 155.05929687 26.65773437 155.11859375 27.51171875 155.1796875 C36.53114384 156.28520747 44.11327905 160.76333172 52 165 C56.60488261 167.30244131 63.34064421 166.73897143 68.20703125 165.38671875 C72.30105009 163.36200791 74.59693419 160.47715697 76.3359375 156.38671875 C79.3782153 145.45241443 75.59776423 135.80304508 70.49609375 126.15625 C61.66956976 111.35321217 47.66986661 99.06470424 34.3125 88.375 C15.61973276 73.31082875 2.0901866 54.02152633 -2 30 C-2.22106127 25.27300415 -2.18512586 20.54416424 -2.1875 15.8125 C-2.19974609 14.51634766 -2.21199219 13.22019531 -2.22460938 11.88476562 C-2.22750977 10.03334961 -2.22750977 10.03334961 -2.23046875 8.14453125 C-2.23457764 7.01378174 -2.23868652 5.88303223 -2.24291992 4.71801758 C-2 2 -2 2 0 0 Z " fill="#080707" transform="translate(130,200)"/>
<path d="M0 0 C4.04196301 2.95070479 6.9620469 6.24367595 9.8125 10.3125 C10.45554077 11.22684814 10.45554077 11.22684814 11.11157227 12.15966797 C19.53516688 24.39486504 27.98488301 38.55597874 26 54 C24.8094662 59.98035581 23.13369472 67.22133629 18 71 C9.72656833 73.61327941 0.59018225 73.42148091 -8 73 C-9.2271875 72.96648437 -10.454375 72.93296875 -11.71875 72.8984375 C-20.51532534 72.25163049 -20.51532534 72.25163049 -24.21484375 69.1328125 C-28.90265632 62.4044227 -29.2780858 54.91531759 -28 47 C-25.46217914 38.98904742 -20.42226513 32.77140717 -15.18823242 26.36694336 C-8.71691958 18.3625733 -3.93780852 9.49636141 0 0 Z " fill="#FCC66B" transform="translate(333,367)"/>
<path d="M0 0 C1.875 0.75 1.875 0.75 2.875 1.75 C2.99609117 3.27807308 3.05460831 4.81120672 3.0859375 6.34375 C3.11429688 7.2925 3.14265625 8.24125 3.171875 9.21875 C3.22314859 11.20816518 3.26764464 13.19776897 3.3046875 15.1875 C3.50939168 21.53332946 4.48634411 26.8583499 6.875 32.75 C10.61029558 32.51654403 12.71294743 31.25420994 15.5625 29 C31.25936558 16.76524683 51.66313624 15.41475771 70.875 16.75 C80.3966169 18.03061597 89.4079161 21.25186168 97.875 25.75 C98.679375 26.16765625 99.48375 26.5853125 100.3125 27.015625 C113.50955611 34.37552168 123.16285141 44.61730985 131.875 56.75 C132.47828125 57.57242188 133.0815625 58.39484375 133.703125 59.2421875 C135.7596935 62.23664164 136.9181 64.06040006 136.6875 67.75 C136.419375 68.41 136.15125 69.07 135.875 69.75 C133.4 70.245 133.4 70.245 130.875 70.75 C130.37871094 70.06035156 129.88242187 69.37070312 129.37109375 68.66015625 C127.21761723 65.68124851 125.0495548 62.71355256 122.875 59.75 C122.30136719 58.96367187 121.72773438 58.17734375 121.13671875 57.3671875 C108.51987233 40.56480015 92.03427258 29.28849354 70.9765625 26.02734375 C50.74050308 24.21782206 32.53936356 26.36820085 16.0546875 39.078125 C12.22381901 42.01649725 9.71527537 42.23402754 4.875 41.75 C-0.50180797 38.4411951 -2.66193273 34.8338337 -4.125 28.75 C-5.11907078 23.1470556 -5.33993208 17.67223557 -5.375 12 C-5.395625 11.15050781 -5.41625 10.30101562 -5.4375 9.42578125 C-5.44265625 8.60980469 -5.4478125 7.79382813 -5.453125 6.953125 C-5.4624707 6.21739258 -5.47181641 5.48166016 -5.48144531 4.72363281 C-4.89680296 1.4864761 -3.36458068 -0.39583302 0 0 Z " fill="#080707" transform="translate(170.125,200.25)"/>
<path d="M0 0 C2.5625 0.1875 2.5625 0.1875 4.5625 2.1875 C4.75766548 4.6416619 4.82745829 6.98275937 4.80973816 9.43786621 C4.81215257 10.19362112 4.81456699 10.94937602 4.81705457 11.72803259 C4.82271414 14.27385301 4.81401154 16.81942502 4.80541992 19.36523438 C4.80649225 21.18492196 4.80843018 23.00460921 4.81117249 24.82429504 C4.81603193 29.77666583 4.80835147 34.72894691 4.79821944 39.68130684 C4.78945671 44.85471627 4.79119604 50.02812275 4.7915802 55.20153809 C4.79064274 63.89072171 4.78194782 72.57987048 4.76831055 81.26904297 C4.75258417 91.32672106 4.7473124 101.38436096 4.7480461 111.44205046 C4.74865571 121.10202282 4.74355636 130.76198268 4.73525429 140.42195129 C4.73171634 144.53994341 4.72989031 148.65793112 4.72936058 152.77592468 C4.72835861 157.62183221 4.72227393 162.46770747 4.71219444 167.31360435 C4.70926491 169.09625234 4.70804499 170.87890404 4.70862198 172.66155434 C4.70911005 175.0867822 4.70348293 177.51191862 4.69621277 179.93713379 C4.69776137 180.6497693 4.69930997 181.36240481 4.7009055 182.09663534 C4.67667891 186.95914218 4.67667891 186.95914218 3.5625 189.1875 C1.5825 189.1875 -0.3975 189.1875 -2.4375 189.1875 C-4.80808828 185.50336986 -4.70112155 181.96038308 -4.64677429 177.7278595 C-4.64510516 176.97377373 -4.64343602 176.21968796 -4.6417163 175.44275111 C-4.6336376 172.91457265 -4.6111017 170.38673099 -4.58862305 167.85864258 C-4.57983439 166.0468942 -4.57192121 164.23514139 -4.56481934 162.42338562 C-4.54290684 157.50213965 -4.50835207 152.58105505 -4.47129035 147.65990281 C-4.43440864 142.51676989 -4.40817841 137.37358196 -4.38056946 132.23039246 C-4.33262193 123.59600591 -4.27685219 114.96169778 -4.21606445 106.32739258 C-4.14574598 96.33104996 -4.08596013 86.3346888 -4.03220528 76.33824426 C-3.97495947 65.71127688 -3.91014608 55.08436557 -3.84304833 44.45745635 C-3.82417439 41.38731565 -3.80671438 38.31716955 -3.7895565 35.24701881 C-3.76227171 30.43307248 -3.72993183 25.61918602 -3.69359589 20.80529976 C-3.68099794 19.0335274 -3.67010621 17.26174201 -3.66099739 15.48994827 C-3.64832256 13.08196879 -3.62957703 10.67411413 -3.60917664 8.26618958 C-3.60683429 7.55589641 -3.60449194 6.84560324 -3.60207862 6.11378604 C-3.54089963 0.27237689 -3.54089963 0.27237689 0 0 Z " fill="#0D0D0D" transform="translate(438.4375,324.8125)"/>
<path d="M0 0 C2.4375 0.1875 2.4375 0.1875 3.4375 1.1875 C3.5519569 3.57093587 3.60136299 5.9262167 3.60917664 8.31088257 C3.61552574 9.06507748 3.62187485 9.8192724 3.62841636 10.5963217 C3.64857914 13.14281686 3.66155174 15.68929879 3.67456055 18.23583984 C3.68740492 20.05375959 3.70065904 21.87167647 3.71429443 23.68959045 C3.74999604 28.6420308 3.77918001 33.59448941 3.80668616 38.54698133 C3.82415828 41.6377397 3.84303867 44.72848609 3.86243629 47.81923294 C3.93004294 58.59235462 3.99245856 69.3654921 4.05004883 80.13867188 C4.10394484 90.19580474 4.16903961 100.25282292 4.23938721 110.30985296 C4.29920863 118.93146844 4.35129367 127.553108 4.39731437 136.17480814 C4.42496032 141.32979345 4.45577278 146.48471312 4.49432945 151.63962936 C4.5303151 156.48713637 4.55670205 161.3346005 4.5756073 166.18220329 C4.58420473 167.96445293 4.59626751 169.74668962 4.61199379 171.52889061 C4.63287776 173.95603988 4.64142464 176.38292429 4.64677429 178.81015015 C4.6558088 179.52055494 4.66484331 180.23095973 4.6741516 180.96289194 C4.66788679 184.61250468 4.52392761 186.05785859 2.4375 189.1875 C-0.625 189.4375 -0.625 189.4375 -3.5625 189.1875 C-5.24215956 187.50784044 -4.68975726 185.44226035 -4.7009055 183.19954354 C-4.6993569 182.48010423 -4.6978083 181.76066493 -4.69621277 181.01942444 C-4.6996111 179.88094839 -4.6996111 179.88094839 -4.70307809 178.71947283 C-4.70944686 176.15679812 -4.7085869 173.59417592 -4.70776367 171.03149414 C-4.71075337 169.20210196 -4.71415545 167.37271041 -4.71794128 165.5433197 C-4.72680466 160.55992913 -4.72912037 155.5765557 -4.72975707 150.59315801 C-4.73070419 146.44031098 -4.7343802 142.28746799 -4.73792917 138.13462251 C-4.74608257 128.34112974 -4.74851259 118.54764617 -4.74780273 108.75415039 C-4.74720166 98.63456379 -4.75775727 88.51503045 -4.7735464 78.39545733 C-4.78659948 69.72201442 -4.79198758 61.04858897 -4.79134732 52.37513632 C-4.79109168 47.1883507 -4.79397911 42.00161238 -4.80452538 36.8148365 C-4.81416895 31.93855792 -4.81431142 27.06237222 -4.80700874 22.18609047 C-4.80595823 20.39215205 -4.80835322 18.59820797 -4.8143692 16.80427933 C-4.82202656 14.36359483 -4.81748631 11.92323612 -4.80973816 9.4825592 C-4.81488172 8.76535062 -4.82002529 8.04814204 -4.82532471 7.30919987 C-4.77618073 0.34947664 -4.77618073 0.34947664 0 0 Z " fill="#050505" transform="translate(79.5625,324.8125)"/>
<path d="M0 0 C3.9336967 0.40328724 5.87301668 1.42543748 8.66015625 4.171875 C13.18451767 8.32601317 18.09461735 11.26075924 23.4375 14.25 C24.77264648 15.0234375 24.77264648 15.0234375 26.13476562 15.8125 C36.46462567 21.66784799 44.40709676 23.47812887 56.3125 23.3125 C57.45912109 23.31572266 58.60574219 23.31894531 59.78710938 23.32226562 C72.22462255 23.40799735 72.22462255 23.40799735 84 20 C87 19.8125 87 19.8125 90 20 C90.99 20.99 90.99 20.99 92 22 C91.625 24.625 91.625 24.625 91 27 C89.02435058 27.6565141 87.044244 28.29961906 85.0625 28.9375 C83.96035156 29.29714844 82.85820312 29.65679687 81.72265625 30.02734375 C73.77589065 32.103676 65.80111032 32.18207818 57.625 32.1875 C56.66078125 32.19974609 55.6965625 32.21199219 54.703125 32.22460938 C47.93544741 32.23821731 41.61230225 31.42638884 35 30 C35.07686035 30.68078613 35.1537207 31.36157227 35.23291016 32.06298828 C35.87522066 37.92363127 36.10915228 43.73493079 36.125 49.625 C36.12951172 50.33591797 36.13402344 51.04683594 36.13867188 51.77929688 C36.12381213 56.87618787 36.12381213 56.87618787 35 58 C33.00041636 58.04080783 30.99954746 58.04254356 29 58 C27.57376791 55.14753583 27.76577683 52.55923786 27.625 49.375 C27.47970631 47.30020616 27.31897243 45.22711167 27.15380859 43.15380859 C27.0523987 41.73374813 26.9740522 40.31182604 26.92041016 38.88916016 C26.62048888 30.46973219 26.62048888 30.46973219 22.453125 23.47167969 C18.55993269 20.57018815 14.29009728 18.37747059 10 16.12792969 C6.99637442 14.43399046 4.54617464 12.44785729 1.9375 10.1875 C1.14214844 9.50042969 0.34679687 8.81335938 -0.47265625 8.10546875 C-2 6 -2 6 -1.80859375 3.30078125 C-1 1 -1 1 0 0 Z " fill="#080707" transform="translate(159,398)"/>
<path d="M0 0 C2.32472205 2.85306797 3.7508258 5.54074837 5 9 C4.01 9 3.02 9 2 9 C0.14223235 5.86501708 -0.20140476 3.62528568 0 0 Z " fill="#252525" transform="translate(358,323)"/>
</svg>
