<?xml version="1.0" encoding="UTF-8"?>
<svg version="1.1" xmlns="http://www.w3.org/2000/svg" width="512" height="512">
<path d="M0 0 C0.75394043 0.21430664 1.50788086 0.42861328 2.28466797 0.64941406 C35.32002728 10.13542946 66.74030989 31.97190903 84.16845703 62.01416016 C86.66982633 66.57612401 88.88745365 71.24739425 91 76 C91.72316406 77.59908203 91.72316406 77.59908203 92.4609375 79.23046875 C103.47700396 105.56888219 102.56803531 137.37913338 97 165 C96.81920898 165.91362305 96.63841797 166.82724609 96.45214844 167.76855469 C95.97289491 170.18003675 95.488692 172.59041594 95 175 C96.051875 175.3403125 96.051875 175.3403125 97.125 175.6875 C104.31935913 178.97188134 107.8291568 183.93824163 111 191 C114.04449255 201.53193087 112.96264827 214.32129467 108 224 C107.56429688 224.87140625 107.12859375 225.7428125 106.6796875 226.640625 C102.20092822 234.81497254 96.13203072 241.27641189 87 244 C83.97957146 244.21297894 81.02084344 244.1849496 78 244 C77.92652344 244.78375 77.85304688 245.5675 77.77734375 246.375 C73.29817614 267.26277657 56.16110117 291.08895305 38.42578125 302.94921875 C36.83200823 303.95707192 36.83200823 303.95707192 36 306 C36.9075 306.04125 37.815 306.0825 38.75 306.125 C52.56037782 308.16168198 64.78951743 319.35285809 73 330 C78.70545818 338.31884265 78.70545818 338.31884265 79.33911133 341.93554688 C79.87756424 344.44813235 80.42710858 345.94802018 82 348 C85.85073013 349.87067013 89.83454391 350.88580195 93.98999023 351.87771606 C97.52471795 352.72584877 101.02770119 353.6909074 104.53515625 354.64453125 C105.24781647 354.83564987 105.96047668 355.02676849 106.69473267 355.22367859 C145.89298547 365.88281347 166.05027824 384.38328719 186.05859375 418.78515625 C197.63034568 439.09967027 206.3473247 460.4277572 213.625 482.625 C213.87290283 483.36387451 214.12080566 484.10274902 214.3762207 484.86401367 C215.90278197 489.72933031 216.3040842 493.89814291 216 499 C214.22213288 500.77786712 211.83954001 500.12471969 209.47154832 500.13293558 C208.66907977 500.13059442 207.86661122 500.12825325 207.03982544 500.12584114 C206.1914076 500.12729458 205.34298976 500.12874802 204.4688623 500.13024551 C201.58876186 500.13393277 198.70871345 500.13040656 195.82861328 500.12698364 C193.75781286 500.12813439 191.68701263 500.12972159 189.61621284 500.13171089 C183.89680727 500.13591064 178.17741824 500.13381063 172.45801258 500.13072467 C166.30116981 500.1284734 160.14432999 500.13194881 153.98748779 500.13470459 C142.61361798 500.13890607 131.23975496 500.13852532 119.86588532 500.13579312 C109.36015426 500.13328173 98.85442515 500.13261892 88.34869385 500.13381577 C87.65296163 500.13389215 86.95722941 500.13396854 86.2404144 500.13404724 C83.4165094 500.13435855 80.59260441 500.13467695 77.76869942 500.135007 C51.2555429 500.1380689 24.74238977 500.13528795 -1.77076623 500.1299101 C-25.34783034 500.12516418 -48.92488906 500.12558879 -72.50195312 500.13037109 C-98.96531571 500.13572085 -125.4286753 500.13785178 -151.89203835 500.13475883 C-154.71092351 500.13443809 -157.52980868 500.13412525 -160.34869385 500.13381577 C-161.04282147 500.13373669 -161.73694908 500.13365761 -162.45211087 500.13357614 C-172.95356871 500.13243665 -183.45502439 500.13377269 -193.95648193 500.13629532 C-205.89207251 500.13914808 -217.82765669 500.1383569 -229.76324701 500.13301457 C-235.85943368 500.13037638 -241.95560936 500.12937447 -248.05179596 500.13266373 C-253.62282264 500.13562429 -259.19382804 500.13403793 -264.76485276 500.12868617 C-266.78972612 500.12756095 -268.81460124 500.12815546 -270.83947349 500.13056196 C-273.5729504 500.13356362 -276.30635256 500.13052391 -279.03982544 500.12584114 C-280.24352826 500.12935289 -280.24352826 500.12935289 -281.47154832 500.13293558 C-286.88584966 500.11415034 -286.88584966 500.11415034 -288 499 C-288.30106968 493.37749525 -287.70448763 489.09794043 -285.91015625 483.703125 C-285.6904718 483.03588913 -285.47078735 482.36865326 -285.2444458 481.68119812 C-284.53107192 479.53248742 -283.79843858 477.39107805 -283.0625 475.25 C-282.81390228 474.51556671 -282.56530457 473.78113342 -282.30917358 473.02444458 C-278.49029851 461.75806505 -274.28381975 450.78890565 -269.03222656 440.10107422 C-268.0282653 438.05753339 -267.05476396 436.00179054 -266.0859375 433.94140625 C-258.03617269 417.06434253 -248.23012467 401.28775481 -236.43408203 386.78027344 C-235.18203967 385.22598456 -233.97552851 383.63523833 -232.77734375 382.0390625 C-217.48084772 362.88160119 -186.02634794 356.95227499 -163.5 350.5 C-162.38422577 350.17940109 -162.38422577 350.17940109 -161.24591064 349.85232544 C-152.90053531 347.46946742 -144.59297323 345.31421944 -136 344 C-135.9175 342.72125 -135.835 341.4425 -135.75 340.125 C-134.45023544 329.05100591 -129.02670065 319.96262565 -120.43359375 312.88671875 C-116.42376481 310.00035902 -112.646171 307.71652499 -108 306 C-111.25241031 302.68347407 -114.60669494 299.59244331 -118.125 296.5625 C-132.97005652 283.07607584 -142.94206957 265.63734753 -150 247 C-150 246.01 -150 245.02 -150 244 C-150.845625 244.04640625 -151.69125 244.0928125 -152.5625 244.140625 C-159.77759902 244.37019633 -165.03364217 244.22397014 -171 240 C-171.90492188 239.38125 -171.90492188 239.38125 -172.828125 238.75 C-178.02341078 234.77447697 -181.07262988 229.77881421 -184 224 C-184.41636719 223.18917969 -184.83273438 222.37835938 -185.26171875 221.54296875 C-189.47815381 211.9117434 -189.98713769 199.1640225 -186.3125 189.25 C-183.68436958 183.85443897 -180.16633192 179.20668878 -175 176 C-174.34 176 -173.68 176 -173 176 C-173.50660156 174.27716797 -173.50660156 174.27716797 -174.0234375 172.51953125 C-174.47437606 170.95064084 -174.92487275 169.38162337 -175.375 167.8125 C-175.59671875 167.06291016 -175.8184375 166.31332031 -176.046875 165.54101562 C-179.63319751 152.9361468 -180.40872173 140.51641652 -180.375 127.5 C-180.37445618 126.70896881 -180.37391235 125.91793762 -180.37335205 125.10293579 C-180.29846325 101.36707889 -176.847369 75.78470734 -159.3125 58.0625 C-157.51797247 56.36010223 -155.69100315 54.73514555 -153.8125 53.125 C-152.03014383 51.03534104 -151.24310723 49.44345833 -150.1875 46.9375 C-142.2521189 28.28935442 -127.48167183 16.0649293 -109.4375 7.8125 C-76.69102469 -5.32989812 -34.2371264 -10.37775873 0 0 Z M-121.66796875 328.1171875 C-124.39515298 332.22795787 -125.90115714 336.20504932 -127 341 C-114.54653414 340.26533387 -114.54653414 340.26533387 -104.375 334.125 C-103.59125 333.09375 -102.8075 332.0625 -102 331 C-97.65991392 328.06924076 -92.93505728 325.75114936 -88 324 C-87.49874717 320.66857722 -87.49874717 320.66857722 -88 317 C-90.847432 314.355956 -92.92890783 313.19474403 -96.75 312.5 C-107.32541694 314.12698722 -115.09729238 319.77689104 -121.66796875 328.1171875 Z M16 317 C15.49874717 320.66857722 15.49874717 320.66857722 16 324 C16.556875 324.21914063 17.11375 324.43828125 17.6875 324.6640625 C24.46509999 327.48043006 30.8498557 330.77478355 35 337 C37.38562258 337.82273802 39.64412556 338.46947265 42.08984375 339.04296875 C42.79017227 339.21629227 43.49050079 339.38961578 44.21205139 339.56819153 C45.69267997 339.93238426 47.174703 340.29094729 48.65795898 340.64428711 C50.92803151 341.18524367 53.19363428 341.74236477 55.45898438 342.30273438 C56.89820532 342.6545969 58.33765158 343.00553933 59.77734375 343.35546875 C60.45554672 343.52104782 61.13374969 343.68662689 61.83250427 343.85722351 C64.63641147 344.52276314 67.10564712 345 70 345 C66.03421345 333.76360476 57.21981821 324.80158189 47 319 C31.12718316 311.60045889 31.12718316 311.60045889 16 317 Z " fill="#3C342D" transform="translate(292,8)"/>
<path d="M0 0 C7.8950504 0.54829841 15.41661891 2.06892485 23.125 3.8125 C44.67894811 8.54233926 66.37151422 11.82449061 88.26757812 14.52978516 C91.71933046 14.96464093 95.16348319 15.43937267 98.609375 15.91796875 C115.91042143 18.1415388 133.13959339 18.29147397 150.5625 18.3125 C151.76179138 18.31608521 152.96108276 18.31967041 154.19671631 18.32336426 C169.25039897 18.34756756 184.04545067 17.75752423 199 16 C202.16131384 28.57534445 204.54657814 41.16452574 206.52978516 53.97753906 C206.8345307 55.93639154 207.14627197 57.89417355 207.46630859 59.85058594 C213.15376385 94.68855509 210.25921494 129.54908902 189.76171875 159.3203125 C171.31573463 184.943573 144.95226511 201.22220521 113.87792969 206.61401367 C109.16317342 207.24635416 104.50075936 207.29772194 99.75 207.25 C98.24240112 207.23767334 98.24240112 207.23767334 96.7043457 207.22509766 C65.33023735 206.75709027 38.52682335 194.20489073 16.60375977 172.02172852 C-9.34186747 144.80910895 -15.04717259 109.84650006 -14.23757935 73.74737549 C-12.68483567 19.02725351 -12.68483567 19.02725351 0 0 Z " fill="#F5CEBD" transform="translate(158,121)"/>
<path d="M0 0 C18.8292606 15.96382013 34.20762121 37.39864266 39.34765625 61.875 C39.49283691 62.53177734 39.63801758 63.18855469 39.78759766 63.86523438 C42.04765249 74.24546473 42.91397559 84.2313934 42.34765625 94.875 C42.30511719 95.71240723 42.26257813 96.54981445 42.21875 97.41259766 C41.3083716 113.55138906 39.48146478 130.47357442 34.34765625 145.875 C33.68765625 145.875 33.02765625 145.875 32.34765625 145.875 C32.1868457 144.85889648 32.02603516 143.84279297 31.86035156 142.79589844 C28.2623376 119.72372306 28.2623376 119.72372306 24.09765625 96.75 C23.9471582 95.96592773 23.79666016 95.18185547 23.64160156 94.37402344 C22.95037647 90.9831372 22.29431422 88.79498696 20.34765625 85.875 C15.04257709 85.29836096 10.01545431 86.35663025 4.80078125 87.33984375 C-5.93430707 89.00353957 -16.68868404 89.11598392 -27.52734375 89.125 C-28.37460022 89.12600708 -29.22185669 89.12701416 -30.0947876 89.12805176 C-47.99447718 89.11385593 -65.69594086 87.92714875 -83.49450684 86.09637451 C-85.57825119 85.88260123 -87.66255612 85.67534995 -89.74707031 85.46923828 C-118.89292911 82.51599172 -147.97694611 77.50909931 -176.55819702 71.09375 C-182.06085528 69.83655377 -182.06085528 69.83655377 -187.65234375 69.875 C-191.24318728 74.08632017 -192.9713064 78.81451439 -194.65234375 84 C-194.90725586 84.77770752 -195.16216797 85.55541504 -195.42480469 86.35668945 C-202.33123978 108.2234384 -203.97401792 131.14204967 -205.65234375 153.875 C-207.92403291 151.80530945 -209.20642111 150.05915941 -210.3359375 147.20703125 C-210.76483276 146.12711914 -210.76483276 146.12711914 -211.20239258 145.02539062 C-211.49525146 144.25388672 -211.78811035 143.48238281 -212.08984375 142.6875 C-212.39623779 141.88376953 -212.70263184 141.08003906 -213.01831055 140.25195312 C-221.61661914 117.12907512 -224.66046746 91.16727823 -219.65234375 66.875 C-219.53407227 66.22853516 -219.41580078 65.58207031 -219.29394531 64.91601562 C-216.84867085 51.6132248 -212.1778399 37.11556545 -201.65234375 27.875 C-200.45154034 27.11300221 -199.2429566 26.36314283 -198.02734375 25.625 C-193.92818834 22.88626298 -193.17593339 19.40320643 -191.734375 14.8515625 C-185.86524511 -1.29384174 -171.33063085 -11.78112786 -156.33984375 -18.875 C-106.04919164 -41.50097941 -42.75977009 -35.22035578 0 0 Z " fill="#695D5E" transform="translate(341.65234375,43.125)"/>
<path d="M0 0 C0 4.95 0 9.9 0 15 C-2.083125 15.515625 -4.16625 16.03125 -6.3125 16.5625 C-17.88853609 19.72906935 -27.36118794 26.02124325 -33.46484375 36.51953125 C-34.74165434 38.98803172 -35.92713085 41.43636511 -37 44 C-37.34530762 44.7945459 -37.69061523 45.5890918 -38.04638672 46.40771484 C-39.42399375 51.59719509 -39.30517391 56.62125577 -39.30078125 61.96875 C-39.30720894 63.69925598 -39.30720894 63.69925598 -39.31376648 65.46472168 C-39.319498 67.89883774 -39.32001874 70.33297092 -39.31567383 72.76708984 C-39.31251109 76.48695082 -39.33599852 80.20601834 -39.36132812 83.92578125 C-39.36360097 86.29426983 -39.36430468 88.66276055 -39.36328125 91.03125 C-39.372491 92.14077026 -39.38170074 93.25029053 -39.39118958 94.39343262 C-39.35773038 99.98688025 -39.2638287 104.22323803 -36 109 C-31.77163661 112.81584014 -29.40673386 114.12860843 -23.7734375 114.09765625 C-22.7421875 114.09443359 -21.7109375 114.09121094 -20.6484375 114.08789062 C-19.02808594 114.07532227 -19.02808594 114.07532227 -17.375 114.0625 C-16.28703125 114.05798828 -15.1990625 114.05347656 -14.078125 114.04882812 C-11.38536211 114.03701776 -8.69270812 114.02054778 -6 114 C-5.61781233 112.34385343 -5.28604898 110.67542976 -5 109 C-6.60037278 107.39962722 -8.33683621 107.83485812 -10.55078125 107.7890625 C-11.47697266 107.76070313 -12.40316406 107.73234375 -13.35742188 107.703125 C-15.31557135 107.65135634 -17.27393167 107.60699325 -19.23242188 107.5703125 C-20.16248047 107.539375 -21.09253906 107.5084375 -22.05078125 107.4765625 C-22.90325439 107.45674316 -23.75572754 107.43692383 -24.6340332 107.41650391 C-27.50722302 106.91070865 -28.89149754 105.9936961 -31 104 C-31.93849587 101.18451239 -32.13617701 99.42074873 -32.16113281 96.50366211 C-32.17074036 95.59519028 -32.1803479 94.68671844 -32.19024658 93.75071716 C-32.19449646 92.76950394 -32.19874634 91.78829071 -32.203125 90.77734375 C-32.20882507 89.76209122 -32.21452515 88.74683868 -32.22039795 87.70082092 C-32.22985045 85.54803509 -32.23638292 83.39523478 -32.24023438 81.24243164 C-32.24989065 77.97450839 -32.28089151 74.70722743 -32.3125 71.43945312 C-32.31903531 69.34375372 -32.3242837 67.24804983 -32.328125 65.15234375 C-32.3404718 64.18530014 -32.3528186 63.21825653 -32.36553955 62.22190857 C-32.32854887 50.75237734 -29.02828915 41.43526226 -21.1484375 33.0234375 C-12.51424795 24.93963454 -3.51492013 22.77421725 8 23 C6.85814868 26.17951969 5.44207996 29.08851401 3.80078125 32.03125 C3.39666016 32.75957031 2.99253906 33.48789062 2.57617188 34.23828125 C1.7309213 35.75110995 0.87666592 37.25894115 0.01367188 38.76171875 C-0.38658203 39.49003906 -0.78683594 40.21835937 -1.19921875 40.96875 C-1.56877686 41.62294922 -1.93833496 42.27714844 -2.3190918 42.95117188 C-3.33859059 45.45361813 -3.33859059 45.45361813 -2 50 C6.25 51.32 14.5 52.64 23 54 C21.62389187 60.88054065 20.1408323 67.6037834 18.32421875 74.36132812 C16.87803711 79.63213914 16.87803711 79.63213914 17 85 C18.89846608 87.5440358 18.89846608 87.5440358 21.5 89.875 C22.4075 90.74125 23.315 91.6075 24.25 92.5 C27.24143952 95.21949047 30.27321247 97.87446427 33.40625 100.4296875 C35.15096542 102.14874534 36.03228451 103.76457723 37 106 C33.95236066 107.01587978 31.65281033 107.19804406 28.45703125 107.31640625 C27.38388672 107.35830078 26.31074219 107.40019531 25.20507812 107.44335938 C24.08552734 107.48267578 22.96597656 107.52199219 21.8125 107.5625 C20.68134766 107.60568359 19.55019531 107.64886719 18.38476562 107.69335938 C15.58996646 107.79949099 12.79507838 107.90154385 10 108 C9.61781233 109.65614657 9.28604898 111.32457024 9 113 C11.63027103 115.63027103 19.15166332 114.23486533 22.6875 114.25 C23.87279297 114.270625 25.05808594 114.29125 26.27929688 114.3125 C32.42415693 114.34007088 36.59092482 114.18078088 42 111 C45.29526664 110.93613824 46.25548273 112.23139435 48.734375 114.4765625 C49.7464593 115.51941229 50.75135149 116.5692768 51.75 117.625 C52.81965167 118.72716882 53.89126545 119.82743684 54.96484375 120.92578125 C55.4841748 121.45768066 56.00350586 121.98958008 56.53857422 122.53759766 C58.96570118 124.96634649 61.5657013 127.1752944 64.17578125 129.40234375 C67.26336427 132.10645821 70.24671879 134.95418266 73 138 C73 138.33 73 138.66 73 139 C34.06 139 -4.88 139 -45 139 C-47.62585978 132.43535055 -50.12004395 125.94224302 -52.36328125 119.25390625 C-52.67233398 118.34064575 -52.98138672 117.42738525 -53.29980469 116.4864502 C-53.96239442 114.52828888 -54.62387554 112.56975214 -55.28433228 110.61087036 C-57.04724826 105.38407641 -58.82012696 100.16066881 -60.59375 94.9375 C-60.9565657 93.86887222 -61.31938141 92.80024445 -61.69319153 91.69923401 C-65.51183486 80.4679953 -69.40221889 69.26211143 -73.3125 58.0625 C-73.78944809 56.69461838 -73.78944809 56.69461838 -74.27603149 55.29910278 C-75.17886153 52.71068065 -76.08320239 50.1227928 -76.98828125 47.53515625 C-77.25012207 46.78504272 -77.51196289 46.0349292 -77.78173828 45.26208496 C-79.02985865 41.70205481 -80.31992996 38.16979306 -81.68823242 34.65405273 C-83 31 -83 31 -83 28 C-60.10318495 15.82291024 -26.40193376 0 0 0 Z " fill="#EDEEEE" transform="translate(156,361)"/>
<path d="M0 0 C11.91957608 1.48674282 23.43015252 4.87372957 35 8 C35.7716179 11.41799762 36.12257266 14.5643815 36.11352539 18.06567383 C36.11341209 19.53663261 36.11341209 19.53663261 36.11329651 21.03730774 C36.10813522 22.0833165 36.10297394 23.12932526 36.09765625 24.20703125 C36.0962413 25.28756271 36.09482635 26.36809418 36.09336853 27.48136902 C36.0877808 30.92510776 36.0752305 34.36878098 36.0625 37.8125 C36.05748342 40.15038968 36.05292079 42.48828039 36.04882812 44.82617188 C36.03781538 50.55080353 36.02108941 56.27539708 36 62 C34.89229248 62.30019043 33.78458496 62.60038086 32.64331055 62.90966797 C26.35903487 64.79036054 21.7923717 69.09596238 18.5 74.75 C15.70024312 81.21193888 16.01448945 88.23663082 18.5 94.75 C21.31098938 100.32196115 25.81938612 104.47616891 31.4296875 107.1640625 C37.9086838 109.27121327 44.23141465 108.73098661 50.375 105.875 C56.99672169 102.13913166 60.71048695 97.35054188 63 90 C63.87477665 82.87377067 63.35635897 76.8598811 59 71 C54.38894352 65.86363329 50.81981883 64.55743206 44 62 C43.67 45.17 43.34 28.34 43 11 C49.76417851 12.22985064 55.78852519 13.33966475 62.16796875 15.5390625 C62.89131912 15.78361176 63.61466949 16.02816101 64.35993958 16.28012085 C65.87616726 16.79555519 67.39103603 17.31500372 68.90454102 17.83837891 C71.16163435 18.61608768 73.42492598 19.37316124 75.68945312 20.12890625 C85.92896353 23.60671747 95.44653437 27.94626152 105 33 C105.66 33.33 106.32 33.66 107 34 C106.20797589 38.93916778 104.54821422 43.54298451 102.9296875 48.2578125 C102.61648056 49.17783051 102.30327362 50.09784851 101.98057556 51.04574585 C100.94867439 54.07329823 99.91197522 57.09918214 98.875 60.125 C98.1557282 62.23108056 97.43657273 64.33720084 96.7175293 66.44335938 C91.20209572 82.5777866 85.60845575 98.68476778 79.96240234 114.77392578 C79.37717496 116.4429975 78.79204829 118.11210454 78.20703125 119.78125 C77.7925473 120.96266068 77.7925473 120.96266068 77.36968994 122.16793823 C75.14856258 128.52125007 73.02965906 134.90511801 70.9519043 141.30664062 C70 144 70 144 69 145 C67.46914161 145.09581822 65.93386244 145.12188108 64.40000916 145.12025452 C62.90864189 145.12231651 62.90864189 145.12231651 61.387146 145.12442017 C60.28735413 145.12082489 59.18756226 145.11722961 58.05444336 145.11352539 C56.90337601 145.11367142 55.75230865 145.11381744 54.56636047 145.1139679 C50.74083609 145.11326818 46.91535969 145.10547302 43.08984375 145.09765625 C40.44568407 145.09579228 37.80152404 145.09436828 35.15736389 145.09336853 C28.89584583 145.09025549 22.63434514 145.08204248 16.37283474 145.07201904 C9.24598463 145.06085705 2.1191337 145.05534724 -5.00772297 145.05032361 C-19.6718243 145.03985984 -34.33591191 145.02226093 -49 145 C-48.04232343 143.87475293 -47.08351866 142.75046599 -46.12423706 141.62658691 C-45.32351682 140.68730221 -45.32351682 140.68730221 -44.50662041 139.72904205 C-42.84655358 137.82390035 -41.10839533 136.0640246 -39.2578125 134.34375 C-38.59257568 133.72169678 -37.92733887 133.09964355 -37.24194336 132.45874023 C-36.54335205 131.81235596 -35.84476074 131.16597168 -35.125 130.5 C-34.3832251 129.807854 -33.6414502 129.11570801 -32.87719727 128.40258789 C-31.33921803 126.96765147 -29.79990549 125.5341428 -28.25927734 124.10205078 C-24.80848037 120.89140004 -21.37388187 117.66356079 -17.9375 114.4375 C-16.63296965 113.21467608 -15.3282815 111.99202048 -14.0234375 110.76953125 C-13.37213867 110.15932129 -12.72083984 109.54911133 -12.04980469 108.92041016 C-11.37336914 108.2866748 -10.69693359 107.65293945 -10 107 C-7.02063137 104.20854877 -4.04150694 101.4168372 -1.0625 98.625 C-0.36954834 97.97587646 0.32340332 97.32675293 1.03735352 96.65795898 C1.67342529 96.06184814 2.30949707 95.4657373 2.96484375 94.8515625 C3.5280835 94.32385254 4.09132324 93.79614258 4.67163086 93.25244141 C5.45732861 92.51165305 6.23642671 91.76357329 7 91 C6.53958839 84.45048275 5.21258582 78.4297866 3.4375 72.125 C2.97452562 70.46186337 2.51474561 68.79783328 2.05859375 67.1328125 C1.75393188 66.04830811 1.75393188 66.04830811 1.44311523 64.94189453 C1 63 1 63 1 60 C13.375 58.02 13.375 58.02 26 56 C27.09269048 50.66028702 27.09269048 50.66028702 24.89453125 46.25390625 C24.41105225 45.34439209 23.92757324 44.43487793 23.42944336 43.49780273 C22.89585205 42.52915283 22.36226074 41.56050293 21.8125 40.5625 C21.27310791 39.55711182 20.73371582 38.55172363 20.17797852 37.51586914 C18.46680045 34.33563046 16.73521457 31.16717835 15 28 C13.87707488 25.93518359 12.75466769 23.87008542 11.6328125 21.8046875 C9.59681578 18.06106088 7.55010434 14.32360979 5.49609375 10.58984375 C3.58138892 7.09623512 1.74620255 3.58059716 0 0 Z " fill="#EDEEEE" transform="translate(332,355)"/>
<path d="M0 0 C25.56677203 25.43861123 44.09146533 64.30360182 53 99 C53 100.65 53 102.3 53 104 C23.96 104 -5.08 104 -35 104 C-33.79210921 98.56449146 -32.71020563 93.75944307 -30.92797852 88.59521484 C-30.52317764 87.41462494 -30.11837677 86.23403503 -29.7013092 85.01766968 C-29.26064558 83.74871124 -28.81984044 82.47980194 -28.37890625 81.2109375 C-27.91448332 79.86330297 -27.45045738 78.51553157 -26.98680115 77.16763306 C-26.01215688 74.33744456 -25.03435442 71.50837574 -24.05395508 68.68017578 C-22.83309978 65.15828252 -21.6174666 61.63462004 -20.40398598 58.1101799 C-13.71955537 38.698404 -6.898528 19.33666916 0 0 Z " fill="#E2E3E4" transform="translate(445,396)"/>
<path d="M0 0 C2.19629904 2.19629904 2.66840745 3.50132917 3.64135742 6.40991211 C3.95368317 7.33356567 4.26600891 8.25721924 4.58779907 9.2088623 C5.09154556 10.72776062 5.09154556 10.72776062 5.60546875 12.27734375 C5.96192474 13.33546265 6.31838074 14.39358154 6.68563843 15.48376465 C7.85809784 18.96662809 9.02272109 22.45206128 10.1875 25.9375 C11.81187447 30.77192331 13.44065255 35.60485615 15.0703125 40.4375 C15.68710625 42.26866615 15.68710625 42.26866615 16.31636047 44.13682556 C18.99286166 52.06698895 21.71780714 59.97856636 24.4921875 67.875 C24.84052139 68.86689835 25.18885529 69.85879669 25.54774475 70.88075256 C27.18827512 75.54604955 28.83626101 80.20861034 30.4909668 84.86889648 C31.07872549 86.53625602 31.66637827 88.2036529 32.25390625 89.87109375 C32.51972504 90.6125061 32.78554382 91.35391846 33.05941772 92.11779785 C34.47685617 96.15357887 35.28712636 99.72275815 36 104 C6.96 104 -22.08 104 -52 104 C-51.14360929 97.14887436 -49.87875203 91.88151506 -47.625 85.5 C-47.2741333 84.50315186 -46.9232666 83.50630371 -46.56176758 82.47924805 C-36.3905472 54.31634721 -21.5785385 21.5785385 0 0 Z " fill="#E3E3E4" transform="translate(66,396)"/>
<path d="M0 0 C1.134375 0.27714844 2.26875 0.55429687 3.4375 0.83984375 C4.95827848 1.20595709 6.47911495 1.57182963 8 1.9375 C8.74378906 2.11990234 9.48757812 2.30230469 10.25390625 2.49023438 C26.57124606 6.39220694 42.7427935 5.98175309 59 2 C60.81177835 1.6008766 62.62416621 1.20449595 64.4375 0.8125 C65.613125 0.544375 66.78875 0.27625 68 0 C67.42574552 7.05472639 66.36288704 13.89764689 64.9609375 20.83203125 C64.75921432 21.85029999 64.55749115 22.86856873 64.34965515 23.91769409 C63.91846856 26.09212429 63.48522541 28.26614753 63.05007935 30.43978882 C61.90542593 36.15850233 60.77605119 41.88023865 59.64453125 47.6015625 C59.41823532 48.74358627 59.19193939 49.88561005 58.95878601 51.0622406 C56.94054936 61.26080648 54.98472789 71.47044973 53.0625 81.6875 C52.92551697 82.41466217 52.78853394 83.14182434 52.6473999 83.89102173 C51.88898213 87.918424 51.13319965 91.94631405 50.37921143 95.97454834 C49.83831885 98.86357458 49.29644006 101.75241567 48.75460815 104.64126587 C48.16957543 107.76081328 47.58481373 110.88041152 47 114 C38.42 114 29.84 114 21 114 C16.39226003 90.56426133 11.79932166 67.12722282 7.39990234 43.65136719 C5.51082084 33.58937679 3.54017206 23.54658094 1.42089844 13.5300293 C0.47331687 8.94103865 -0.25987863 4.71719092 0 0 Z " fill="#FDCE96" transform="translate(222,386)"/>
<path d="M0 0 C5.41157415 0.33822338 9.21319237 3.36142716 13 7 C15.29247663 10.32749157 17.01228131 13.85812032 18.75 17.5 C19.77645852 19.55968526 20.80516605 21.61825101 21.8359375 23.67578125 C22.35510742 24.72330566 22.87427734 25.77083008 23.40917969 26.85009766 C25.94128451 31.86378955 28.65745789 36.77259693 31.375 41.6875 C35.42280409 49.05080942 39.32351761 56.44278619 43 64 C35.08 65.32 27.16 66.64 19 68 C18.05720075 72.71399627 18.02357967 74.15837806 19.21484375 78.52734375 C19.62573242 80.08678711 19.62573242 80.08678711 20.04492188 81.67773438 C20.33947266 82.75345703 20.63402344 83.82917969 20.9375 84.9375 C21.51577766 87.06981875 22.08760779 89.20389862 22.65234375 91.33984375 C22.91007568 92.28206787 23.16780762 93.22429199 23.43334961 94.19506836 C24.04884661 97.2417918 24.23368178 99.90020041 24 103 C21.97265625 105.4296875 21.97265625 105.4296875 19.0625 107.875 C17.95275072 108.83400105 16.8447806 109.79506349 15.73828125 110.7578125 C15.13580566 111.27504883 14.53333008 111.79228516 13.91259766 112.32519531 C10.43528975 115.37017007 7.10256813 118.56914223 3.75 121.75 C2.30252834 123.11635699 0.85460731 124.48223809 -0.59375 125.84765625 C-1.68042969 126.87270264 -1.68042969 126.87270264 -2.7890625 127.91845703 C-5.01172474 130.01103855 -7.23923676 132.09831437 -9.46875 134.18359375 C-10.18772461 134.85616211 -10.90669922 135.52873047 -11.64746094 136.22167969 C-13.00947371 137.49512684 -14.37206722 138.76795328 -15.73535156 140.04003906 C-16.3537793 140.61850586 -16.97220703 141.19697266 -17.609375 141.79296875 C-18.48045898 142.60773682 -18.48045898 142.60773682 -19.36914062 143.43896484 C-20.89573971 144.90020355 -22.36403238 146.40237684 -23.828125 147.92578125 C-26 150 -26 150 -28 150 C-27.30266008 141.03167904 -25.64777147 132.31552038 -23.9375 123.5 C-23.62448221 121.86881741 -23.3119116 120.23754895 -22.99975586 118.60620117 C-22.34015868 115.16202652 -21.67825778 111.71830614 -21.01464844 108.27490234 C-20.01557432 103.08697813 -19.02589509 97.89729634 -18.0390625 92.70703125 C-17.87676147 91.85353592 -17.71446045 91.00004059 -17.54724121 90.12068176 C-17.21779147 88.38806583 -16.88836445 86.65544558 -16.55895996 84.92282104 C-15.72528847 80.53948622 -14.89010702 76.15643946 -14.0546875 71.7734375 C-13.88755249 70.89652756 -13.72041748 70.01961761 -13.54821777 69.11613464 C-12.48981241 63.56466683 -11.42928701 58.0136073 -10.36750793 52.46278381 C-9.64663767 48.69343702 -8.92665513 44.92392091 -8.20675659 41.15438843 C-7.86745948 39.37909582 -7.52773584 37.60388466 -7.18753052 35.82876587 C-6.71116067 33.34308359 -6.23599103 30.85717707 -5.76171875 28.37109375 C-5.61217239 27.58759048 -5.46262604 26.80408722 -5.30854797 25.99684143 C-4.12496035 19.75335059 -3.01704076 13.49763812 -1.96672058 7.23033142 C-1.10795492 2.21590984 -1.10795492 2.21590984 0 0 Z " fill="#E1E2E3" transform="translate(307,341)"/>
<path d="M0 0 C1.41759781 4.74320771 2.53843737 9.42703641 3.4453125 14.30078125 C3.57593582 14.99706635 3.70655914 15.69335144 3.84114075 16.41073608 C4.12364423 17.91868421 4.40464675 19.42691417 4.68429565 20.93539429 C5.13626505 23.37326232 5.59214716 25.81037064 6.04907227 28.24731445 C6.5346985 30.83746081 7.02010006 33.42764685 7.50434875 36.01805115 C9.12940756 44.70929004 10.78258377 53.39508895 12.44003296 62.0802002 C12.93942352 64.69758147 13.43819067 67.31508081 13.93676758 69.93261719 C15.49922173 78.13468419 17.06380239 86.33633932 18.63249207 94.53721619 C19.35336233 98.30656298 20.07334487 102.07607909 20.79324341 105.84561157 C21.13254052 107.62090418 21.47226416 109.39611534 21.81246948 111.17123413 C22.88709165 116.77857738 23.95217055 122.38758467 25 128 C25.14854431 128.79508972 25.29708862 129.59017944 25.45013428 130.40936279 C25.88251625 132.7393719 26.30780012 135.07055509 26.73046875 137.40234375 C26.85940018 138.09654922 26.9883316 138.7907547 27.12117004 139.5059967 C27.7542664 143.04755686 28.14098706 146.40157645 28 150 C23.90109408 148.38971553 21.23791044 145.42188179 18.25 142.3125 C14.24603162 138.22065302 10.20672513 134.28080967 5.81640625 130.59765625 C4.91728516 129.80681641 4.91728516 129.80681641 4 129 C3.14921875 128.38253906 2.2984375 127.76507813 1.421875 127.12890625 C-2.22197628 122.42128548 -1.65354376 118.13386251 -1.56640625 112.33984375 C-1.57204086 111.19898819 -1.57767548 110.05813263 -1.58348083 108.88270569 C-1.5999375 105.2338871 -1.58440662 101.58627638 -1.5625 97.9375 C-1.54583443 94.31382473 -1.53693814 90.69096501 -1.55223083 87.067276 C-1.56140993 84.8155132 -1.55269033 82.56357689 -1.52259827 80.31199646 C-1.56552081 67.79485195 -5.46860339 57.22466101 -14 48 C-17.51061413 45.06720479 -21.18287289 42.51313959 -25 40 C-26.33760821 39.00572536 -27.67166711 38.00663276 -29 37 C-27.1338212 33.34958767 -25.25544367 29.70558177 -23.375 26.0625 C-22.85292969 25.04091797 -22.33085937 24.01933594 -21.79296875 22.96679688 C-9.9060004 0 -9.9060004 0 0 0 Z " fill="#E1E2E3" transform="translate(205,341)"/>
<path d="M0 0 C2.52121432 0.62349358 5.04196931 1.24875361 7.5625 1.875 C8.26697266 2.04902344 8.97144531 2.22304688 9.69726562 2.40234375 C13.00273233 3.22490229 16.26614286 4.08075653 19.52734375 5.0703125 C39.97555456 10.54463665 62.68335697 7.31410906 82.390625 0.76953125 C85 0 85 0 88 0 C88.56762807 8.74567698 88.11873155 17.76689428 85 26 C75.82228067 36.14220872 60.152101 39.36443743 47.0625 40.2734375 C30.98135049 40.8375849 17.31148268 36.35507243 4.28125 26.73046875 C-0.57511883 20.17140962 -0.49768612 7.83394813 0 0 Z " fill="#EEB7A5" transform="translate(212,328)"/>
<path d="M0 0 C0.53109375 1.01320312 1.0621875 2.02640625 1.609375 3.0703125 C2.32274694 4.42196459 3.03629817 5.77352207 3.75 7.125 C4.09804687 7.79015625 4.44609375 8.4553125 4.8046875 9.140625 C6.43934428 12.22831002 7.97062937 14.96307388 10.15625 17.7109375 C12.96472022 22.72096277 13.19442742 27.84623202 13.75 33.5 C13.87503906 34.61503906 14.00007813 35.73007813 14.12890625 36.87890625 C14.67893314 41.95003325 15.06244246 46.89485611 15 52 C8.70755201 52.68644887 5.20914424 51.65518137 0.10546875 47.88671875 C-7.33724614 41.21727294 -11.19287974 31.64638828 -12.3828125 21.84765625 C-12.69917316 13.48518937 -10.81863712 8.29986785 -5.4375 2 C-3 0 -3 0 0 0 Z " fill="#ECB6A4" transform="translate(124,192)"/>
<path d="M0 0 C7.40325988 0.37016299 12.41914815 5.07907716 17.25 10.3125 C23.98049018 18.58348384 25.15721906 27.37153112 25.09765625 37.67578125 C25.0962413 38.6009404 25.09482635 39.52609955 25.09336853 40.47929382 C25.08778715 43.42372927 25.07523805 46.36808767 25.0625 49.3125 C25.05748259 51.31314994 25.05292011 53.31380108 25.04882812 55.31445312 C25.03782381 60.20966494 25.02057198 65.10481942 25 70 C24.52332886 69.58735901 24.04665771 69.17471802 23.55554199 68.74957275 C22.61442566 67.93815826 22.61442566 67.93815826 21.65429688 67.11035156 C21.03325073 66.57396057 20.41220459 66.03756958 19.77233887 65.48492432 C17.92569707 63.89930409 17.92569707 63.89930409 15.53125 62.234375 C10.32708089 58.43132834 10.32708089 58.43132834 9.54296875 55 C9.72291656 52.1986503 10.29354994 49.72346403 11 47 C11.18916992 46.26507324 11.37833984 45.53014648 11.57324219 44.77294922 C12.44517096 41.40340519 13.32179388 38.03740266 14.27026367 34.68847656 C15.38748162 30.70079286 16.33131785 27.18819745 16 23 C10.56501303 21.32208456 5.17682649 20.26171071 -0.4375 19.375 C-1.26443359 19.2409375 -2.09136719 19.106875 -2.94335938 18.96875 C-4.96163765 18.64209225 -6.98073757 18.32051785 -9 18 C-6 12 -3 6 0 0 Z " fill="#E0E1E2" transform="translate(171,387)"/>
<path d="M0 0 C5.67476113 1.96434039 9.31400331 5.62800662 12 11 C12.59057744 16.67862925 12.29370905 21.16922672 9 26 C4.99653611 30.03627917 1.41408246 32.12458106 -4.3125 32.3125 C-8.94226662 32.25237316 -11.4369151 31.06591027 -15 28 C-19.3022759 23.23261319 -20.36282503 19.56252705 -20.28125 13.28125 C-19.69180611 8.50020514 -16.85179203 5.75038822 -13.375 2.6875 C-8.92314854 -0.47565762 -5.3540278 -0.48837416 0 0 Z " fill="#3F362F" transform="translate(312,200)"/>
<path d="M0 0 C5.67476113 1.96434039 9.31400331 5.62800662 12 11 C12.59057744 16.67862925 12.29370905 21.16922672 9 26 C4.99653611 30.03627917 1.41408246 32.12458106 -4.3125 32.3125 C-8.94226662 32.25237316 -11.4369151 31.06591027 -15 28 C-19.3022759 23.23261319 -20.36282503 19.56252705 -20.28125 13.28125 C-19.69180611 8.50020514 -16.85179203 5.75038822 -13.375 2.6875 C-8.92314854 -0.47565762 -5.3540278 -0.48837416 0 0 Z " fill="#3F362F" transform="translate(208,200)"/>
<path d="M0 0 C3.83897648 3.07440045 6.09741151 5.82653421 6.86328125 10.8046875 C7.08003526 16.25063198 6.61413879 20.48275255 3.11328125 24.8046875 C-0.51856025 28.47103581 -3.3590489 29.64008844 -8.51171875 30.1171875 C-14.16893005 29.62949687 -17.77514009 28.01826848 -22.01171875 24.2421875 C-25.04212512 20.20833531 -25.39472661 15.7302922 -25.13671875 10.8046875 C-23.49595084 4.91722619 -21.01073611 2.18665873 -16.13671875 -1.1953125 C-10.91162435 -2.95500338 -4.83841291 -2.70668071 0 0 Z " fill="#55575A" transform="translate(381.13671875,426.1953125)"/>
<path d="M0 0 C6.01990498 3.09595113 9.89625909 7.57756629 12 14 C13.53479971 25.55527089 10.6065889 36.27984206 3.5625 45.625 C-1.18173331 50.02209429 -5.53981245 52.0823081 -12 53 C-11.91435791 52.42145264 -11.82871582 51.84290527 -11.74047852 51.24682617 C-11.34470134 48.56083265 -10.9534407 45.87420162 -10.5625 43.1875 C-10.4190918 42.21498291 -10.27568359 41.24246582 -10.12792969 40.24047852 C-9.9890332 39.27940186 -9.85013672 38.3183252 -9.70703125 37.328125 C-9.5778833 36.44286133 -9.44873535 35.55759766 -9.31567383 34.64550781 C-8.964717 31.98402379 -8.964717 31.98402379 -8.87768555 29.22558594 C-8.50858987 21.16617365 -5.90911629 5.90911629 0 0 Z " fill="#ECB6A3" transform="translate(384,191)"/>
<path d="M0 0 C4.12643596 1.33031368 8.11622509 2.85228299 12.125 4.5 C28.69302136 10.8535738 48.02755421 11.44542265 64.43579102 4.35571289 C66.54307072 3.41170234 68.63544583 2.4401255 70.7265625 1.4609375 C74 0 74 0 76 0 C75.67 3.3 75.34 6.6 75 10 C52.80216468 19.32899059 29.80770187 21.68424607 7.01953125 12.84375 C4.98391312 11.96007081 2.98486877 10.99243439 1 10 C0.67 6.7 0.34 3.4 0 0 Z " fill="#F7A767" transform="translate(218,366)"/>
<path d="M0 0 C3.79130021 0.47473672 6.70840897 1.71668112 10.0625 3.5 C18.38051156 7.90893063 27.21416293 8.31369682 36.3125 5.75 C39.40413147 4.71945618 42.04773968 3.46605813 44.8125 1.75 C48 0 48 0 50.9375 0.25 C51.9584375 0.62125 51.9584375 0.62125 53 1 C53.495 3.475 53.495 3.475 54 6 C42.21856787 14.25501707 32.46310502 17.03935269 18 16 C10.39147004 14.32727042 4.20596979 10.59701466 -2 6 C-1.125 1.125 -1.125 1.125 0 0 Z " fill="#413730" transform="translate(230,288)"/>
<path d="M0 0 C1.24122192 0.90027586 2.4756395 1.81057326 3.6875 2.75 C3.3575 4.4 3.0275 6.05 2.6875 7.75 C-0.5948287 8.80179594 -2.02954269 8.86229055 -5.28515625 7.5703125 C-6.30480469 7.01085937 -7.32445312 6.45140625 -8.375 5.875 C-16.70913541 1.35585974 -24.5666 0.06520657 -33.8828125 2.796875 C-38.30436993 4.47845165 -42.36946023 6.12130682 -46.3125 8.75 C-49 8.375 -49 8.375 -51.3125 7.75 C-51.6425 6.1 -51.9725 4.45 -52.3125 2.75 C-36.75736429 -9.42358447 -16.83641668 -11.11888551 0 0 Z " fill="#403730" transform="translate(332.3125,175.25)"/>
<path d="M0 0 C0.66 0.66 1.32 1.32 2 2 C1.625 4.625 1.625 4.625 1 7 C-1.95913699 7.87033441 -3.53635508 8.17414239 -6.46484375 7.07421875 C-7.28082031 6.61660156 -8.09679687 6.15898437 -8.9375 5.6875 C-9.81535156 5.2234375 -10.69320312 4.759375 -11.59765625 4.28125 C-12.39042969 3.8584375 -13.18320313 3.435625 -14 3 C-21.02556648 -0.20732383 -29.50295309 -0.04049158 -36.8125 2.25 C-39.66508653 3.32294394 -42.16278036 4.647593 -44.75 6.25 C-48 8 -48 8 -50.9375 7.75 C-51.618125 7.5025 -52.29875 7.255 -53 7 C-53.33 5.35 -53.66 3.7 -54 2 C-36.25549678 -10.43322334 -18.87925043 -11.000794 0 0 Z " fill="#403730" transform="translate(230,176)"/>
<path d="M0 0 C4.0743356 0.84881992 5.54405875 2.30225596 8 5.625 C8.625 8.625 8.625 8.625 8 11.625 C5.54405875 14.94774404 4.0743356 16.40118008 0 17.25 C-4.0743356 16.40118008 -5.54405875 14.94774404 -8 11.625 C-8.625 8.625 -8.625 8.625 -8 5.625 C-5.54405875 2.30225596 -4.0743356 0.84881992 0 0 Z " fill="#403F40" transform="translate(308,207.375)"/>
<path d="M0 0 C4.0743356 0.84881992 5.54405875 2.30225596 8 5.625 C8.625 8.625 8.625 8.625 8 11.625 C5.54405875 14.94774404 4.0743356 16.40118008 0 17.25 C-4.0743356 16.40118008 -5.54405875 14.94774404 -8 11.625 C-8.625 8.625 -8.625 8.625 -8 5.625 C-5.54405875 2.30225596 -4.0743356 0.84881992 0 0 Z " fill="#403F40" transform="translate(204,207.375)"/>
<path d="M0 0 C3.40667322 0.44824648 5.07914607 1.05276405 8 3 C12.50850182 2.65554402 12.50850182 2.65554402 16 0 C18.625 0.375 18.625 0.375 21 1 C21.33 2.65 21.66 4.3 22 6 C14.50882149 12.35121656 14.50882149 12.35121656 8.1015625 12.29296875 C3.8384251 11.69866521 0.94314353 8.94314353 -2 6 C-1.44444444 1.44444444 -1.44444444 1.44444444 0 0 Z " fill="#413830" transform="translate(246,256)"/>
<path d="M0 0 C-3.63 6.6 -7.26 13.2 -11 20 C-12.65 20 -14.3 20 -16 20 C-16 14.06 -16 8.12 -16 2 C-4.5 -1.125 -4.5 -1.125 0 0 Z " fill="#E7E8E8" transform="translate(180,356)"/>
</svg>
