<?xml version="1.0" encoding="UTF-8"?>
<svg version="1.1" xmlns="http://www.w3.org/2000/svg" width="512" height="512">
<path d="M0 0 C8.92406582 7.48782376 14.27747499 16.9934147 15.3359375 28.72265625 C16.91494049 101.31388632 -2.64136792 185.33784111 -29.1875 252.875 C-29.56704834 253.84848389 -29.94659668 254.82196777 -30.33764648 255.82495117 C-36.47481975 270.81979215 -45.60426357 282.30062629 -59.65234375 290.52734375 C-63.34989931 292.84677544 -64.69071236 293.90956282 -65.9140625 298.22265625 C-71.84368554 330.24913674 -67.70152872 357.05733589 -55 386.8125 C-48.22096956 402.71355539 -43.65444766 418.92437398 -41 436 C-40.86851562 436.82242187 -40.73703125 437.64484375 -40.6015625 438.4921875 C-39.97849652 443.08940402 -39.96700596 447.63685422 -39.98046875 452.2734375 C-39.98469849 454.16328369 -39.98469849 454.16328369 -39.98901367 456.09130859 C-39.99263916 457.05117676 -39.99626465 458.01104492 -40 459 C-40.56925085 459.00021737 -41.13850171 459.00043474 -41.72500259 459.00065869 C-75.48663214 459.01418363 -109.24812413 459.05370918 -143.00967662 459.12685562 C-147.06626515 459.13562205 -151.1228541 459.14417191 -155.17944336 459.15258789 C-156.39080014 459.15510648 -156.39080014 459.15510648 -157.62662878 459.15767596 C-170.69128729 459.1843233 -183.75590192 459.19343941 -196.82058481 459.19604143 C-210.23281635 459.19910422 -223.64492133 459.22108859 -237.05709571 459.26052457 C-245.32873277 459.28425281 -253.60011696 459.29333937 -261.87178334 459.28351311 C-267.54911841 459.27818466 -273.22622752 459.29128685 -278.90349827 459.3186629 C-282.17585894 459.33390493 -285.44761337 459.3384921 -288.72000313 459.32659721 C-292.27684061 459.3149504 -295.83226432 459.33413473 -299.38899231 459.36076355 C-300.41139804 459.35009029 -301.43380377 459.33941703 -302.4871915 459.32842034 C-309.03291339 459.41949129 -313.78574297 460.83559433 -319.61780947 463.81695253 C-334.70301031 471.30859039 -354.02898899 468.55613276 -369.58984375 463.93359375 C-390.16772173 456.51968527 -404.12992357 442.02474946 -413.46484375 422.546875 C-415.80595778 417.13788891 -417.56973462 411.71387427 -419 406 C-419.22558594 405.12988281 -419.45117188 404.25976562 -419.68359375 403.36328125 C-422.77915393 388.739428 -421.81737152 372.69338205 -419.27416992 358.05908203 C-418.07057076 351.02488199 -417.41021179 343.99299483 -416.80010986 336.88464355 C-412.60984012 288.79512753 -396.79538691 245.00955031 -370 205 C-370.9075 204.29875 -371.815 203.5975 -372.75 202.875 C-378.24075098 198.27779105 -381.50079734 192.71973424 -382.2578125 185.5625 C-382.66686905 175.96330623 -380.27144675 168.25953778 -374.0625 160.875 C-355.19040304 141.41700461 -330.95569137 135.75455925 -305 133 C-305.34933594 132.18015625 -305.69867188 131.3603125 -306.05859375 130.515625 C-306.51363281 129.43796875 -306.96867187 128.3603125 -307.4375 127.25 C-307.88996094 126.18265625 -308.34242188 125.1153125 -308.80859375 124.015625 C-312.63459107 114.33146128 -312.30714093 103.0415833 -308.25390625 93.48046875 C-294.550232 66.37195427 -264.38374679 51.43000627 -236.75195312 42.25341797 C-234.58580366 41.56104809 -232.41795555 40.8741905 -230.25 40.1875 C-208.67428422 33.29344132 -188.42379859 22.47983663 -170.07470703 9.31420898 C-157.5682247 0.35320049 -141.0955516 -10.17058557 -125 -9 C-124.5194516 -8.50850464 -124.0389032 -8.01700928 -123.54379272 -7.51062012 C-121.56813789 -5.57741763 -120.58837518 -5.61154899 -117.86181641 -5.58007812 C-116.61242783 -5.55621033 -116.61242783 -5.55621033 -115.33779907 -5.53186035 C-114.434841 -5.53165894 -113.53188293 -5.53145752 -112.6015625 -5.53125 C-111.65679047 -5.52363647 -110.71201843 -5.51602295 -109.73861694 -5.50817871 C-107.72616205 -5.49735406 -105.71365087 -5.49453416 -103.70117188 -5.49902344 C-100.69818287 -5.49997677 -97.69791928 -5.45878852 -94.6953125 -5.4140625 C-82.76865082 -5.3421038 -72.04706469 -6.6590053 -60.54443359 -9.82617188 C-40.71935063 -15.24557632 -16.39751468 -12.99766301 0 0 Z " fill="#2D2D3A" transform="translate(459,28)"/>
<path d="M0 0 C23.92486589 15.88457242 48.50165107 30.19677359 74.15869141 43.09716797 C74.98868652 43.51949707 75.81868164 43.94182617 76.67382812 44.37695312 C87.54820736 49.88573104 98.77869808 54.4673814 110.09619141 58.97216797 C110.80302063 59.25561066 111.50984985 59.53905334 112.23809814 59.83108521 C125.19960842 65.00992228 136.80693737 68.62415464 150.90869141 68.28466797 C152.54451172 68.26436523 152.54451172 68.26436523 154.21337891 68.24365234 C156.86236657 68.20879724 159.51024069 68.15981327 162.15869141 68.09716797 C162.05476074 69.107229 162.05476074 69.107229 161.94873047 70.13769531 C158.96594356 101.88155388 161.7134676 129.39837377 174.22119141 158.72216797 C184.0003605 181.64898875 189.15869141 204.09846995 189.15869141 229.09716797 C104.01869141 229.09716797 18.87869141 229.09716797 -68.84130859 229.09716797 C-67.19130859 227.44716797 -65.54130859 225.79716797 -63.84130859 224.09716797 C-55.96076973 216.03640888 -51.82324538 207.92472274 -51.52880859 196.53466797 C-51.68460433 184.97745695 -56.11462433 175.60218124 -63.84130859 167.09716797 C-73.3202497 158.85543805 -84.9107202 158.66766679 -96.84130859 159.09716797 C-97.18742187 158.20964844 -97.18742187 158.20964844 -97.54052734 157.30419922 C-99.97747569 151.39965639 -102.39634299 147.10673123 -108.09130859 143.78466797 C-115.49379028 141.93404755 -120.0047542 142.97020027 -126.84130859 146.09716797 C-133.31527648 149.03481791 -137.99837248 150.59727438 -144.88427734 148.46435547 C-153.90016395 144.59293027 -161.14249991 136.03537295 -164.84130859 127.09716797 C-165.89364973 118.08326925 -164.31320083 108.72655225 -163.15380859 99.78466797 C-163.0641684 99.08507965 -162.9745282 98.38549133 -162.88217163 97.66470337 C-157.67948157 57.48200639 -144.61098169 19.10676711 -121.52880859 -14.40283203 C-121.03727295 -15.12752686 -120.5457373 -15.85222168 -120.03930664 -16.59887695 C-117.35424481 -20.38023634 -115.5104692 -22.70502449 -110.84130859 -23.90283203 C-110.19291016 -24.12583984 -109.54451172 -24.34884766 -108.87646484 -24.57861328 C-108.22548828 -24.78873047 -107.57451172 -24.99884766 -106.90380859 -25.21533203 C-101.55500641 -26.97125194 -96.26940812 -28.89593121 -90.97802734 -30.81689453 C-58.89003037 -41.92581503 -25.07021826 -16.72971522 0 0 Z " fill="#79ADEC" transform="translate(217.84130859375,257.90283203125)"/>
<path d="M0 0 C0.75539063 0.43441406 1.51078125 0.86882813 2.2890625 1.31640625 C8.65202659 5.49880399 12.61208728 11.83626184 15 19 C18.14975281 83.82630792 0.0830908 156.32822464 -19.94921875 217.76123047 C-20.93652023 220.80433955 -21.89431253 223.85506133 -22.84375 226.91015625 C-28.98573486 246.41359144 -36.54472614 265.33805966 -55.6640625 275.40234375 C-64.31767772 279.51459892 -72.09966802 281.36009338 -81.625 281.375 C-82.42550781 281.39949219 -83.22601563 281.42398437 -84.05078125 281.44921875 C-96.5223575 281.50795459 -108.24203164 276.38306144 -119.5625 271.625 C-120.17406952 271.3697757 -120.78563904 271.11455139 -121.41574097 270.85159302 C-160.01614809 254.70987507 -195.39042419 233.65773854 -230.33203125 210.74755859 C-263.72513531 188.58404857 -263.72513531 188.58404857 -302.3125 180.75 C-303.56341431 180.76341431 -303.56341431 180.76341431 -304.83959961 180.77709961 C-316.05362235 180.9867989 -325.21153322 183.07236798 -335.42016602 187.69946289 C-340.76760349 189.9929287 -345.32206435 190.65493658 -351 189 C-354.37732331 186.26939818 -357.6218944 183.24077318 -358.37109375 178.80078125 C-358.58122143 170.92717339 -356.43461606 166.71113176 -351.15625 161.0078125 C-335.42448169 145.9217511 -314.47569489 139.6174337 -293.08911133 139.76538086 C-287.46464211 139.88810811 -282.42490542 140.6207706 -277 142 C-275.87875732 142.26594971 -274.75751465 142.53189941 -273.60229492 142.8059082 C-263.67062047 145.1975511 -254.04140951 148.14583185 -244.375 151.4375 C-242.79871366 151.96978522 -241.22229401 152.50167578 -239.64575195 153.03320312 C-236.37366052 154.1378538 -233.10306043 155.24677952 -229.83349609 156.35888672 C-226.00243556 157.66141096 -222.16771573 158.95262311 -218.33117676 160.23890686 C-194.54785024 168.21962493 -170.97176563 176.75188299 -147.41242981 185.36897278 C-145.20722067 186.17522547 -143.00165309 186.98049857 -140.79570007 187.78471375 C-136.36947874 189.39852826 -131.94525352 191.01502509 -127.53759766 192.67895508 C-116.74665681 196.69500334 -107.40777599 198.44950647 -96.4375 193.5 C-89.03507343 189.28141282 -85.5018187 183.58626184 -82 176 C-81.28115562 173.11148841 -81.28115562 173.11148841 -80.90687561 170.07792664 C-80.74024918 168.9162648 -80.57362274 167.75460297 -80.40194702 166.55773926 C-80.23200226 165.29691528 -80.0620575 164.03609131 -79.88696289 162.73706055 C-79.69689691 161.38433478 -79.50587714 160.03174274 -79.3139801 158.67927551 C-78.90361359 155.77292938 -78.49983453 152.86577167 -78.10115242 149.95779991 C-77.46826798 145.3429856 -76.81974881 140.73044983 -76.16905212 136.11811829 C-74.90476596 127.14123681 -73.65601174 118.16222908 -72.40914154 109.18291473 C-70.82709111 97.79399712 -69.23875257 86.40597959 -67.63500208 75.02009612 C-67.09660773 71.19456965 -66.56170923 67.36862249 -66.0351429 63.54144859 C-58.92129215 11.84761774 -58.92129215 11.84761774 -44 0 C-31.23892679 -7.98147124 -12.76970334 -7.59334095 0 0 Z " fill="#FECDC6" transform="translate(447,34)"/>
<path d="M0 0 C0 3.52938061 -0.74833975 4.37789363 -2.6875 7.25 C-11.46182185 21.72214208 -12.74470147 38.10452199 -14.85742569 54.55985641 C-15.31251907 58.07227576 -15.78682548 61.58208695 -16.26049805 65.09204102 C-16.8657589 69.58322347 -17.47026402 74.07449196 -18.06858826 78.56660461 C-20.22882362 94.78488105 -22.44824482 110.99471303 -24.72765732 127.19667816 C-25.4474731 132.31549693 -26.15536773 137.43576523 -26.85381222 142.55754185 C-27.29468836 145.77054917 -27.74642089 148.98196297 -28.20108986 152.19304466 C-28.40978667 153.68191278 -28.61420713 155.17138801 -28.81387901 156.6614933 C-31.42714233 176.11030401 -31.42714233 176.11030401 -37.0703125 182.25390625 C-37.74835938 182.68574219 -38.42640625 183.11757812 -39.125 183.5625 C-39.80820312 184.01753906 -40.49140625 184.47257813 -41.1953125 184.94140625 C-46.67723519 188.15699293 -52.78844211 187.77717947 -58.8838501 186.30212402 C-61.9412941 185.2996135 -64.9410135 184.19888818 -67.9453125 183.046875 C-69.06279373 182.6348584 -70.18027496 182.2228418 -71.33161926 181.79833984 C-74.93576784 180.46532788 -78.53018209 179.10794857 -82.125 177.75 C-84.59773635 176.83060043 -87.07112886 175.91296375 -89.54516602 174.99707031 C-94.43865436 173.18333945 -99.32883499 171.36112483 -104.21630859 169.53125 C-112.40039373 166.47091059 -120.61016614 163.48343193 -128.82733154 160.51330566 C-132.12476258 159.32053464 -135.41971252 158.12098429 -138.71484375 156.921875 C-139.74730225 156.54643555 -140.77976074 156.17099609 -141.84350586 155.78417969 C-142.55514893 155.52540039 -143.26679199 155.26662109 -144 155 C-141.36256226 153.24170817 -138.95768563 152.15618509 -136.01245117 151.04736328 C-122.61101174 145.99686463 -109.62285521 138.85544566 -100 128 C-99.58253392 124.87364791 -99.58253392 124.87364791 -100 122 C-101.08911811 120.70660738 -101.08911811 120.70660738 -103.71875 120.65625 C-107.9854305 121.10323558 -109.38643741 122.59634051 -112.5 125.5 C-127.52070105 138.74400839 -146.25970311 146.48275148 -166.43359375 145.45703125 C-177.47746806 144.53729051 -187.93197523 140.8630764 -198.3203125 137.1953125 C-201.98660868 135.93549457 -201.98660868 135.93549457 -205.8046875 135.1796875 C-212.36099411 133.75199283 -216.32786193 132.62726022 -220.125 126.875 C-221.13359491 124.94207255 -222.09460832 122.98336535 -223 121 C-223.42925781 120.19175781 -223.85851562 119.38351563 -224.30078125 118.55078125 C-227.95301427 110.95765074 -228.56629317 102.33142098 -226.1875 94.234375 C-223.12505078 87.47146631 -218.19812892 82.20695427 -213 77 C-212.39542969 76.38382812 -211.79085937 75.76765625 -211.16796875 75.1328125 C-199.0532962 63.6779805 -178.34338789 52.52994942 -162 49 C-157.31573378 49.49424541 -153.56075103 51.55962275 -149.40234375 53.6484375 C-140.24842861 57.28478037 -131.42677837 58.50751822 -121.625 58.375 C-120.53010254 58.36484863 -119.43520508 58.35469727 -118.30712891 58.34423828 C-96.1568564 57.92035679 -77.87094761 49.81859206 -61.24853516 35.40185547 C-43.30227765 19.99324159 -22.47269957 7.49089986 0 0 Z " fill="#79ADEC" transform="translate(387,33)"/>
<path d="M0 0 C23.92486589 15.88457242 48.50165107 30.19677359 74.15869141 43.09716797 C74.98868652 43.51949707 75.81868164 43.94182617 76.67382812 44.37695312 C87.54820736 49.88573104 98.77869808 54.4673814 110.09619141 58.97216797 C111.15643524 59.397332 111.15643524 59.397332 112.23809814 59.83108521 C125.19960842 65.00992228 136.80693737 68.62415464 150.90869141 68.28466797 C152.54451172 68.26436523 152.54451172 68.26436523 154.21337891 68.24365234 C156.86236657 68.20879724 159.51024069 68.15981327 162.15869141 68.09716797 C162.0894043 68.77054199 162.02011719 69.44391602 161.94873047 70.13769531 C158.96594356 101.88155388 161.7134676 129.39837377 174.22119141 158.72216797 C184.0003605 181.64898875 189.15869141 204.09846995 189.15869141 229.09716797 C151.53869141 229.09716797 113.91869141 229.09716797 75.15869141 229.09716797 C75.9256231 222.9617144 76.96658057 217.39329575 78.43994141 211.44091797 C79.90562788 204.62228957 80.32471351 197.96388512 80.36181641 191.01513672 C80.36751648 190.16148026 80.37321655 189.30782379 80.37908936 188.42829895 C80.38848823 186.6256329 80.39505285 184.82295006 80.39892578 183.02026367 C80.40852931 180.3300765 80.43955882 177.64068876 80.47119141 174.95068359 C80.54412733 163.05755223 79.43703899 151.76620239 77.15869141 140.09716797 C76.95985352 139.06374268 76.76101563 138.03031738 76.55615234 136.96557617 C66.17896734 86.54394539 37.11355256 38.40581041 -4.19384766 7.33886719 C-5.67747107 6.2206531 -7.14703841 5.08384807 -8.61474609 3.94482422 C-15.66985684 -1.40477177 -23.19328249 -5.71738122 -30.9765625 -9.89941406 C-32.57793995 -10.76111363 -34.16962386 -11.64078496 -35.75927734 -12.52392578 C-53.39180481 -21.91267417 -72.28115203 -26.56508888 -91.84130859 -29.90283203 C-62.14492666 -45.03726707 -23.20132969 -15.48257915 0 0 Z " fill="#497ECD" transform="translate(217.84130859375,257.90283203125)"/>
<path d="M0 0 C0.45310547 0.39614502 0.90621094 0.79229004 1.37304688 1.20043945 C10.93198177 9.48864293 19.5332544 15.65068495 32.6328125 15.36328125 C39.00615326 14.67567024 44.68127757 12.54581495 50 9 C53.5625 9.1875 53.5625 9.1875 57 10 C59.38313638 13.57470457 59.64837918 14.78553535 59 19 C57.55784355 20.89911882 55.97450614 22.58967742 54.34375 24.328125 C52.76431079 26.01912016 52.76431079 26.01912016 52.5 28.8125 C52.84059265 31.19510474 52.84059265 31.19510474 55 33 C60.13474532 33.64275617 62.78469984 32.22567797 67.0625 29.5 C73.88491225 25.67696261 79.28436084 24.62920116 87 26 C94.41657115 28.25365422 99.22185919 32.2606137 103 39 C106.40344763 45.83044854 106.33293671 55.55481106 104.16015625 62.80078125 C99.36818315 72.1427086 91.73256039 76.55056509 82.1484375 80.0546875 C67.2629542 84.52402616 50.58156088 82.40578133 36.6875 75.8125 C19.67030029 66.63317718 8.70241869 52.95438297 2.9375 34.62109375 C0.71267739 26.07477999 -0.14954783 17.86772328 -0.0625 9.0625 C-0.05573242 7.75055664 -0.05573242 7.75055664 -0.04882812 6.41210938 C-0.03714834 4.27470953 -0.01921689 2.13734537 0 0 Z " fill="#FDCCC6" transform="translate(50,402)"/>
<path d="M0 0 C0.96907572 3.12664914 0.98968126 5.47255961 0.53974915 8.7036438 C0.41227798 9.64549026 0.28480682 10.58733673 0.1534729 11.557724 C-0.06691147 13.09753685 -0.06691147 13.09753685 -0.29174805 14.66845703 C-0.44123398 15.75513168 -0.59071991 16.84180634 -0.74473572 17.96141052 C-1.24236383 21.56138045 -1.75147987 25.15960976 -2.26171875 28.7578125 C-2.61259536 31.26158434 -2.96316171 33.76539968 -3.31343079 36.26925659 C-4.05055909 41.52402155 -4.79367449 46.77789671 -5.54077148 52.03125 C-6.40116358 58.08244611 -7.24659164 64.1355998 -8.08470887 70.18991768 C-8.89407957 76.03168659 -9.71766885 81.87139311 -10.5466404 87.71041489 C-10.89628281 90.18564652 -11.24191208 92.66144859 -11.58337975 95.1378212 C-12.06388626 98.61211709 -12.5605938 102.08373827 -13.0612793 105.55517578 C-13.19808105 106.5695723 -13.33488281 107.58396881 -13.47583008 108.62910461 C-14.54258505 115.85355707 -15.99492788 123.72844035 -21.0703125 129.25390625 C-21.74835938 129.68574219 -22.42640625 130.11757812 -23.125 130.5625 C-23.80820312 131.01753906 -24.49140625 131.47257813 -25.1953125 131.94140625 C-30.67723519 135.15699293 -36.78844211 134.77717947 -42.8838501 133.30212402 C-45.9412941 132.2996135 -48.9410135 131.19888818 -51.9453125 130.046875 C-53.06279373 129.6348584 -54.18027496 129.2228418 -55.33161926 128.79833984 C-58.93576784 127.46532788 -62.53018209 126.10794857 -66.125 124.75 C-68.59773635 123.83060043 -71.07112886 122.91296375 -73.54516602 121.99707031 C-78.43865436 120.18333945 -83.32883499 118.36112483 -88.21630859 116.53125 C-96.40039373 113.47091059 -104.61016614 110.48343193 -112.82733154 107.51330566 C-116.12476258 106.32053464 -119.41971252 105.12098429 -122.71484375 103.921875 C-123.74730225 103.54643555 -124.77976074 103.17099609 -125.84350586 102.78417969 C-126.55514893 102.52540039 -127.26679199 102.26662109 -128 102 C-125.36256226 100.24170817 -122.95768563 99.15618509 -120.01245117 98.04736328 C-107.32140438 93.26458491 -95.26252703 86.76014463 -85.890625 76.74609375 C-85.26671875 76.16988281 -84.6428125 75.59367187 -84 75 C-81.25 75.25 -81.25 75.25 -79 76 C-79.43151178 87.21930626 -85.37197439 96.13440555 -93 104 C-71.85507185 110.38089712 -71.85507185 110.38089712 -51 105 C-44.70021502 100.88019927 -40.81846128 96.28517487 -37.73046875 89.4296875 C-37.43792709 88.78363052 -37.14538544 88.13757355 -36.84397888 87.47193909 C-32.90990701 78.70248074 -29.24617678 69.81405891 -25.5625 60.9375 C-24.38483448 58.10985764 -23.2060159 55.28269768 -22.02716064 52.45555115 C-21.22402381 50.52923913 -20.42124978 48.60277581 -19.61883545 46.67616272 C-15.3977184 36.54363578 -11.13862627 26.42719643 -6.875 16.3125 C-6.17518766 14.65162141 -5.47539855 12.99073303 -4.77563477 11.32983398 C-3.1842579 7.55301114 -1.59232172 3.77642458 0 0 Z " fill="#487DCB" transform="translate(371,86)"/>
<path d="M0 0 C3.87209358 1.98444796 7.13001277 4.55724185 10.5 7.28125 C13.77056178 9.46162452 14.70710967 9.80362412 18.5 9.28125 C20.94658654 7.68802742 20.94658654 7.68802742 23.25 5.53125 C29.74257031 0.1063468 35.75468819 -3.53596459 44.4375 -3.0234375 C48.73145083 -2.38910385 51.31357568 -1.06063682 54.19921875 2.203125 C56.79004061 5.70586784 58.88160663 8.92140581 59.1875 13.34375 C57.20040701 24.72437351 47.49334863 31.65850777 38.77172852 38.22241211 C33.72942937 42.0374469 28.93647149 46.10660897 24.16967773 50.25854492 C21.35189952 52.71048468 18.53053835 55.09540938 15.5 57.28125 C14.46166016 56.29898438 14.46166016 56.29898438 13.40234375 55.296875 C3.88799094 46.38841626 -6.16889832 38.24558436 -16.625 30.46875 C-21.70576515 26.54793312 -25.78794613 21.85101342 -26.80859375 15.30078125 C-27.144004 9.55815121 -25.9354111 6.32856001 -22.20703125 1.9453125 C-15.38155957 -4.70835097 -8.07483061 -3.44657404 0 0 Z " fill="#FDFDFD" transform="translate(121.5,303.71875)"/>
<path d="M0 0 C3.68739373 1.99173092 7.19823957 4.10465945 10.67578125 6.4453125 C11.25585938 6.04699219 11.8359375 5.64867187 12.43359375 5.23828125 C23.06480422 -1.97199516 31.63267358 -5.01972577 44.67578125 -3.5546875 C53.24589198 -0.45388642 57.91629419 5.63611028 62.30078125 13.27734375 C65.07120818 19.66034444 64.86862603 26.93003508 62.64453125 33.484375 C57.63414451 43.36597107 49.5348451 49.95830477 40.83691406 56.49975586 C36.56029919 59.7233318 32.43229532 63.08852803 28.36328125 66.5703125 C27.77264893 67.0751416 27.1820166 67.5799707 26.57348633 68.10009766 C22.62920353 71.51495025 18.96553091 75.09401749 15.51953125 79.01953125 C12.88836057 81.05422892 10.98382065 81.39877998 7.67578125 81.4453125 C5.40234375 79.8203125 5.40234375 79.8203125 3.30078125 77.4453125 C2.52089844 76.60484375 1.74101562 75.764375 0.9375 74.8984375 C0.19113281 74.08890625 -0.55523437 73.279375 -1.32421875 72.4453125 C-10.35675726 63.86538485 -20.43520245 56.02856308 -30.44921875 48.6328125 C-37.10294693 43.50283887 -42.68743491 36.16442372 -43.828125 27.7109375 C-44.12505903 18.88042511 -43.35487849 12.36845888 -37.32421875 5.4453125 C-26.79205884 -5.53851898 -13.60804219 -6.44494556 0 0 Z M-28.03125 12.109375 C-31.60269672 16.30812501 -33.21328426 19.66977646 -32.765625 25.22265625 C-30.44885494 36.88851611 -20.1193015 42.91606888 -11.20678711 49.65258789 C-6.8275438 52.98558247 -2.74650091 56.56531888 1.26171875 60.33984375 C4.25622466 62.95155684 7.41633726 65.17321834 10.67578125 67.4453125 C11.48917969 66.65769531 12.30257812 65.87007812 13.140625 65.05859375 C19.66372839 58.82988908 26.32196872 53.03309032 33.55078125 47.6328125 C46.89882963 38.09660655 46.89882963 38.09660655 53.23828125 23.6328125 C53.02223987 18.2832164 50.13050516 14.35272437 46.67578125 10.4453125 C42.74870379 7.5654557 39.03050872 6.79484919 34.23828125 6.96484375 C27.2966845 8.26639314 20.91737409 12.03315488 15.86328125 16.8828125 C13.29134773 19.243013 12.90325199 19.42906459 9.17578125 19.6953125 C5.36854441 18.33558506 3.40293122 16.72401608 0.50390625 14.0078125 C-7.54041644 7.13232302 -19.77873464 4.06458886 -28.03125 12.109375 Z " fill="#2D2E3C" transform="translate(127.32421875,293.5546875)"/>
<path d="M0 0 C1.29679687 -0.00128906 2.59359375 -0.00257812 3.9296875 -0.00390625 C4.60161133 -0.00181152 5.27353516 0.0002832 5.96582031 0.00244141 C7.99552004 0.00775982 10.0249949 0.00250123 12.0546875 -0.00390625 C18.87654378 0.00284806 25.50639477 0.19485764 32.265625 1.1328125 C29.95899012 2.67056908 28.10392018 3.70890392 25.59765625 4.76171875 C5.85895058 13.19876201 -12.18314112 23.67158922 -28.421875 37.8203125 C-43.18118611 50.59529341 -59.88919033 59.33995114 -79.796875 59.3203125 C-81.05963257 59.319104 -81.05963257 59.319104 -82.34790039 59.31787109 C-90.33197944 59.23991799 -98.60278431 59.07090666 -105.734375 55.1328125 C-101.87976275 51.77184269 -97.31767277 50.11818483 -92.671875 48.1328125 C-78.9045443 42.07097442 -66.17264585 34.75614422 -53.984375 25.9453125 C-42.57330526 17.71027555 -31.48123955 11.91473154 -17.90234375 8.140625 C-14.67693986 7.38168944 -14.67693986 7.38168944 -12.734375 5.1328125 C-12.0918515 3.06407216 -12.0918515 3.06407216 -11.734375 1.1328125 C-7.76789283 0.1947553 -4.07128036 0.00391362 0 0 Z " fill="#FCCBC5" transform="translate(348.734375,21.8671875)"/>
</svg>
