<?xml version="1.0" encoding="UTF-8"?>
<svg version="1.1" xmlns="http://www.w3.org/2000/svg" width="512" height="512">
<path d="M0 0 C0.89203125 0.45375 1.7840625 0.9075 2.703125 1.375 C7.25925599 3.7651015 11.08047078 6.01388247 14.8125 9.5625 C17.51640982 11.68074514 18.53525146 12.04526772 22.0078125 11.70703125 C24.37742701 11.13217033 26.73924334 10.52453064 29.09375 9.890625 C47.43327647 5.24983019 68.12230957 11.35275127 84.125 20.25 C95.11519692 26.94851052 106.1387708 35.33209657 111.3125 47.375 C112.82388601 50.07717499 113.93374823 51.64024508 116.92041016 52.64794922 C120.98917859 53.50151852 125.09382303 53.92535416 129.22265625 54.37890625 C146.38957929 56.32532295 161.00280591 69.42575864 171.5 82.375 C189.30762936 105.2458293 198.54430919 135.08419052 196 164 C194.81046829 172.78148764 192.35214157 180.62424056 187.26953125 187.984375 C185.91148116 190.14054067 185.1869517 191.45458069 185 194 C186.09893809 196.66145628 186.09893809 196.66145628 187.75 199.4375 C195.63959273 214.64790087 196.3075607 232.20792732 191.3125 248.4765625 C184.64730358 266.36944099 172.6566922 279.01318056 155.5 287.25 C153.34298121 288.18914438 151.17679419 289.10764959 149 290 C148.17886719 290.34289062 147.35773438 290.68578125 146.51171875 291.0390625 C137.80225497 294.17154191 126.94996946 294.14660776 118 292 C117.5153125 293.09957031 117.030625 294.19914062 116.53125 295.33203125 C110.51939136 308.70299894 103.08290172 319.31212417 93 330 C92.41476562 330.63808594 91.82953125 331.27617187 91.2265625 331.93359375 C77.99233936 345.88234068 60.27160736 352.60127971 42 357 C42.54527344 358.33224609 42.54527344 358.33224609 43.1015625 359.69140625 C46.4187766 368.03227524 49.08993928 376.44301341 51.375 385.125 C51.63748535 386.10799072 51.8999707 387.09098145 52.17041016 388.10375977 C53.38091759 392.82847339 54.34797369 397.07865778 54 402 C49.375 404.125 49.375 404.125 46 403 C44.8125 399.9375 44.8125 399.9375 44 397 C42.58521362 397.00785522 42.58521362 397.00785522 41.1418457 397.01586914 C37.62881861 397.03295311 34.11583593 397.04547066 30.6027832 397.05493164 C29.08487245 397.05994766 27.5669665 397.06676203 26.04907227 397.07543945 C23.86212984 397.08762497 21.67525154 397.09325572 19.48828125 397.09765625 C18.17384033 397.10289307 16.85939941 397.10812988 15.50512695 397.11352539 C12.51794875 397.01677552 9.89407389 396.70343764 7 396 C7.061875 397.60875 7.061875 397.60875 7.125 399.25 C7.0114175 402.65747485 6.78726636 404.20739631 5 407 C2.1875 406.4375 2.1875 406.4375 -1 405 C-3.99799082 399.23042913 -5.4726667 392.99430022 -7.1875 386.75 C-10.31075413 375.75537492 -14.11704446 365.3316049 -19 355 C-19.48122314 353.98172119 -19.48122314 353.98172119 -19.97216797 352.94287109 C-24.2374452 344.09821547 -29.28431964 336.12769767 -35.65576172 328.63232422 C-37 327 -37 327 -38.48876953 324.88720703 C-40.82372284 321.78708087 -42.62779173 319.43273593 -46.40844727 318.24047852 C-49.20614187 317.90264272 -51.93245097 317.78837725 -54.75 317.75 C-56.806471 317.64582297 -58.86249237 317.53239646 -60.91796875 317.41015625 C-61.94067871 317.35230957 -62.96338867 317.29446289 -64.01708984 317.23486328 C-91.07222187 315.10464254 -115.91585571 303.08197797 -133.77734375 282.7578125 C-139.3845533 275.80053668 -142.92637296 268.34024654 -146 260 C-147.30710938 260.144375 -148.61421875 260.28875 -149.9609375 260.4375 C-188.45763552 264.51575529 -228.81598291 261.11515481 -260.12133789 236.02709961 C-278.86859213 220.48422663 -289.70521837 198.21623992 -292 174 C-293.54795574 149.78145431 -290.01622098 127.32307906 -273.53125 108.5234375 C-257.79932972 92.84007253 -237.70668756 85.14114053 -216 82 C-215.91363281 81.20078125 -215.82726562 80.4015625 -215.73828125 79.578125 C-214.12233741 66.94707775 -209.90122501 56.96868551 -202 47 C-201.35417969 46.17757812 -200.70835937 45.35515625 -200.04296875 44.5078125 C-184.6907642 26.22188426 -161.11009666 15.78945105 -137.65917969 13.39208984 C-129.57927386 12.72954456 -121.23387014 12.80910491 -113.3046875 14.61328125 C-109.02779824 15.51404089 -106.88389675 15.49819635 -102.9921875 13.3046875 C-100.77000079 11.7250608 -98.58728353 10.12724918 -96.4140625 8.484375 C-84.1896433 -0.67517261 -68.05249389 -6.07416622 -53 -8 C-52.0821875 -8.12246094 -51.164375 -8.24492188 -50.21875 -8.37109375 C-33.22902748 -10.22078128 -15.26284383 -8.02134858 0 0 Z " fill="#FE8F94" transform="translate(304,55)"/>
<path d="M0 0 C0.89203125 0.45375 1.7840625 0.9075 2.703125 1.375 C7.25925599 3.7651015 11.08047078 6.01388247 14.8125 9.5625 C17.51640982 11.68074514 18.53525146 12.04526772 22.0078125 11.70703125 C24.37742701 11.13217033 26.73924334 10.52453064 29.09375 9.890625 C47.43327647 5.24983019 68.12230957 11.35275127 84.125 20.25 C95.11519692 26.94851052 106.1387708 35.33209657 111.3125 47.375 C112.82388601 50.07717499 113.93374823 51.64024508 116.92041016 52.64794922 C120.98917859 53.50151852 125.09382303 53.92535416 129.22265625 54.37890625 C146.38957929 56.32532295 161.00280591 69.42575864 171.5 82.375 C189.30762936 105.2458293 198.54430919 135.08419052 196 164 C194.81046829 172.78148764 192.35214157 180.62424056 187.26953125 187.984375 C185.91148116 190.14054067 185.1869517 191.45458069 185 194 C186.09893809 196.66145628 186.09893809 196.66145628 187.75 199.4375 C195.63959273 214.64790087 196.3075607 232.20792732 191.3125 248.4765625 C184.64730358 266.36944099 172.6566922 279.01318056 155.5 287.25 C153.34298121 288.18914438 151.17679419 289.10764959 149 290 C148.17886719 290.34289062 147.35773438 290.68578125 146.51171875 291.0390625 C137.80225497 294.17154191 126.94996946 294.14660776 118 292 C117.5153125 293.09957031 117.030625 294.19914062 116.53125 295.33203125 C110.51939136 308.70299894 103.08290172 319.31212417 93 330 C92.41476562 330.63808594 91.82953125 331.27617187 91.2265625 331.93359375 C77.99233936 345.88234068 60.27160736 352.60127971 42 357 C42.54527344 358.33224609 42.54527344 358.33224609 43.1015625 359.69140625 C46.4187766 368.03227524 49.08993928 376.44301341 51.375 385.125 C51.63748535 386.10799072 51.8999707 387.09098145 52.17041016 388.10375977 C53.38091759 392.82847339 54.34797369 397.07865778 54 402 C49.375 404.125 49.375 404.125 46 403 C44.8125 399.9375 44.8125 399.9375 44 397 C42.58521362 397.00785522 42.58521362 397.00785522 41.1418457 397.01586914 C37.62881861 397.03295311 34.11583593 397.04547066 30.6027832 397.05493164 C29.08487245 397.05994766 27.5669665 397.06676203 26.04907227 397.07543945 C23.86212984 397.08762497 21.67525154 397.09325572 19.48828125 397.09765625 C18.17384033 397.10289307 16.85939941 397.10812988 15.50512695 397.11352539 C12.51794875 397.01677552 9.89407389 396.70343764 7 396 C7.061875 397.60875 7.061875 397.60875 7.125 399.25 C7.0114175 402.65747485 6.78726636 404.20739631 5 407 C2.1875 406.4375 2.1875 406.4375 -1 405 C-3.99799082 399.23042913 -5.4726667 392.99430022 -7.1875 386.75 C-10.31075413 375.75537492 -14.11704446 365.3316049 -19 355 C-19.48122314 353.98172119 -19.48122314 353.98172119 -19.97216797 352.94287109 C-24.2374452 344.09821547 -29.28431964 336.12769767 -35.65576172 328.63232422 C-37 327 -37 327 -38.48876953 324.88720703 C-40.82372284 321.78708087 -42.62779173 319.43273593 -46.40844727 318.24047852 C-49.20614187 317.90264272 -51.93245097 317.78837725 -54.75 317.75 C-56.806471 317.64582297 -58.86249237 317.53239646 -60.91796875 317.41015625 C-61.94067871 317.35230957 -62.96338867 317.29446289 -64.01708984 317.23486328 C-91.07222187 315.10464254 -115.91585571 303.08197797 -133.77734375 282.7578125 C-139.3845533 275.80053668 -142.92637296 268.34024654 -146 260 C-147.30710938 260.144375 -148.61421875 260.28875 -149.9609375 260.4375 C-188.45763552 264.51575529 -228.81598291 261.11515481 -260.12133789 236.02709961 C-278.86859213 220.48422663 -289.70521837 198.21623992 -292 174 C-293.54795574 149.78145431 -290.01622098 127.32307906 -273.53125 108.5234375 C-257.79932972 92.84007253 -237.70668756 85.14114053 -216 82 C-215.91363281 81.20078125 -215.82726562 80.4015625 -215.73828125 79.578125 C-214.12233741 66.94707775 -209.90122501 56.96868551 -202 47 C-201.35417969 46.17757812 -200.70835937 45.35515625 -200.04296875 44.5078125 C-184.6907642 26.22188426 -161.11009666 15.78945105 -137.65917969 13.39208984 C-129.57927386 12.72954456 -121.23387014 12.80910491 -113.3046875 14.61328125 C-109.02779824 15.51404089 -106.88389675 15.49819635 -102.9921875 13.3046875 C-100.77000079 11.7250608 -98.58728353 10.12724918 -96.4140625 8.484375 C-84.1896433 -0.67517261 -68.05249389 -6.07416622 -53 -8 C-52.0821875 -8.12246094 -51.164375 -8.24492188 -50.21875 -8.37109375 C-33.22902748 -10.22078128 -15.26284383 -8.02134858 0 0 Z M-116 36 C-120.93205259 42.27005498 -124.99870275 49.11131975 -129 56 C-130.65 55.67 -132.3 55.34 -134 55 C-133.50985951 49.94542616 -131.77063671 46.4045069 -129 42.25 C-128.60498291 41.64381836 -128.20996582 41.03763672 -127.80297852 40.41308594 C-124.500713 35.47109727 -120.79019256 31.16286548 -116.65234375 26.890625 C-114.78064535 25.16749877 -114.78064535 25.16749877 -115 23 C-136.25990074 18.82333673 -157.72264981 23.68121763 -176 35 C-179.52999318 37.47563995 -182.77010361 40.14973696 -186 43 C-186.6084375 43.45503906 -187.216875 43.91007812 -187.84375 44.37890625 C-196.64040444 51.07635906 -203.594576 62.27581799 -206 73 C-206.40667762 76.32776669 -206.72278417 79.65914154 -207 83 C-205.71609375 83.07476562 -204.4321875 83.14953125 -203.109375 83.2265625 C-173.79685747 85.26980178 -150.43744936 95.5154707 -130 117 C-129.00329125 118.00328045 -128.00480376 119.00482695 -127 120 C-118.16835027 113.18450852 -113.67081598 106.03555676 -112 95 C-111.78731294 91.47244264 -111.80762207 87.96965857 -111.875 84.4375 C-111.88402344 83.52419922 -111.89304688 82.61089844 -111.90234375 81.66992188 C-111.92562747 79.44632681 -111.9583229 77.22331323 -112 75 C-109.525 74.505 -109.525 74.505 -107 74 C-103.1289916 86.04485083 -103.98179867 99.15222976 -109.21875 110.68359375 C-114.91542222 121.08002054 -123.10460216 126.81861487 -134 131 C-135.60875 131.61875 -135.60875 131.61875 -137.25 132.25 C-144.14443403 134.13030019 -150.95988144 134.18274908 -158.0625 134.1875 C-159.02994141 134.19974609 -159.99738281 134.21199219 -160.99414062 134.22460938 C-166.0677873 134.23502754 -170.25085167 134.0261965 -175 132 C-174.67 130.35 -174.34 128.7 -174 127 C-173.28046143 127.01571045 -172.56092285 127.0314209 -171.81958008 127.04760742 C-153.15765843 127.68174371 -153.15765843 127.68174371 -135 124 C-146.21389637 105.60920995 -166.90868377 96.98165833 -187 92 C-209.03584724 87.18722567 -233.47337087 92.0360199 -252.83203125 102.9296875 C-267.63578172 112.60414835 -278.07064396 126.83944311 -282.8125 143.875 C-286.954015 163.93992611 -283.33838958 184.50839487 -275 203 C-274.58234375 203.93070313 -274.1646875 204.86140625 -273.734375 205.8203125 C-269.78998691 213.77709538 -264.2144473 219.77659816 -258 226 C-257.35289062 226.65871094 -256.70578125 227.31742188 -256.0390625 227.99609375 C-242.51271856 240.78410014 -224.01670146 247.69036263 -206 251 C-204.47246094 251.30744141 -204.47246094 251.30744141 -202.9140625 251.62109375 C-193.93004442 253.13937186 -184.96713121 253.21173053 -175.875 253.25 C-174.61244385 253.25926514 -173.3498877 253.26853027 -172.04907227 253.27807617 C-163.86024465 253.25084593 -156.05196981 252.48740364 -148 251 C-148.02094727 250.34104736 -148.04189453 249.68209473 -148.06347656 249.00317383 C-148.7221058 225.13203255 -148.7221058 225.13203255 -144 214 C-143.67 213.01 -143.34 212.02 -143 211 C-144.28132812 210.98582031 -145.56265625 210.97164062 -146.8828125 210.95703125 C-166.24413083 210.51768403 -182.1945597 205.08857634 -196.60546875 191.5390625 C-201.7871835 186.04458519 -206.8532411 179.89992447 -210 173 C-214.26902301 173.49257958 -217.12472779 176.00433462 -220 179 C-225.93631173 186.63842955 -228.19412121 193.4566985 -229 203 C-230.98 203 -232.96 203 -235 203 C-235.63776371 191.52025331 -231.69220185 181.47692927 -224.1015625 172.83984375 C-213.4398039 162.55461565 -199.85585113 157.58125205 -185.25854492 157.63427734 C-174.66235962 157.85632564 -167.0197832 161.10620355 -159 168 C-159.33 169.65 -159.66 171.3 -160 173 C-164.43642261 172.58408538 -167.33752061 170.68534394 -170.9375 168.25390625 C-175.99909437 165.17668695 -180.45563959 164.64650262 -186.3125 164.6875 C-187.06781006 164.68878906 -187.82312012 164.69007813 -188.60131836 164.69140625 C-193.98077907 164.78446644 -198.15696429 165.52696049 -203 168 C-201.7859098 177.24704317 -193.78304164 184.98971871 -186.984375 190.859375 C-176.7592502 198.19362682 -165.32605957 203.36245478 -152.6875 203.3125 C-151.88376953 203.32861328 -151.08003906 203.34472656 -150.25195312 203.36132812 C-143.71794803 203.36658477 -137.28955088 202.45628091 -131.93359375 198.45703125 C-131.43988281 197.91433594 -130.94617188 197.37164062 -130.4375 196.8125 C-120.53926894 187.52429908 -106.48862329 183.2866193 -93.52734375 180.4609375 C-86.32393038 178.87214726 -82.69122649 175.1414045 -78.484375 169.3515625 C-75.82198991 165.13378401 -73.89830969 160.60133761 -72 156 C-71.64679688 155.2059375 -71.29359375 154.411875 -70.9296875 153.59375 C-66.8347114 142.16911079 -65.99045382 125.3277829 -70 114 C-69.625 111.125 -69.625 111.125 -69 109 C-66.625 109.1875 -66.625 109.1875 -64 110 C-57.21732897 122.20880785 -60.64522463 141.0908244 -64 154 C-66.29134243 161.42654957 -69.16730586 167.91410337 -73.765625 174.1953125 C-75.18231083 176.08931266 -75.18231083 176.08931266 -76 179 C-74.741875 179.02578125 -73.48375 179.0515625 -72.1875 179.078125 C-60.8749193 179.4135594 -50.86070978 180.80914947 -40 184 C-37.83416819 184.58642545 -35.66759701 185.17013328 -33.5 185.75 C-31.99949529 186.16484542 -30.49926959 186.58071274 -29 187 C-29 186.34 -29 185.68 -29 185 C-28.12601562 184.5978125 -28.12601562 184.5978125 -27.234375 184.1875 C-10.33764645 175.20742049 -1.07669235 154.17326099 5 137 C6.2079988 133.02955865 7.16035705 129.06221623 8 125 C8.20367187 124.18660156 8.40734375 123.37320313 8.6171875 122.53515625 C10.31168543 115.37416158 10.19003484 108.32689866 10 101 C9.45287354 100.89042969 8.90574707 100.78085938 8.34204102 100.66796875 C-15.47437367 95.77387832 -34.40955005 87.23497071 -50 68 C-50.58136719 67.30132812 -51.16273438 66.60265625 -51.76171875 65.8828125 C-53 64 -53 64 -52.6875 61.25 C-52.3471875 60.13625 -52.3471875 60.13625 -52 59 C-48.62741687 59.28202786 -47.29387113 59.68949465 -44.9296875 62.1875 C-44.25164062 63.115625 -43.57359375 64.04375 -42.875 65 C-31.67209684 79.24316471 -14.2680485 89.8488173 3.80859375 92.57421875 C18.72825196 94.24447422 32.55354506 93.90229014 45.0625 84.5 C46.39633144 83.3577824 47.71141751 82.19303082 49 81 C49.5465625 80.50886719 50.093125 80.01773438 50.65625 79.51171875 C52.20361336 78.09461211 52.20361336 78.09461211 54 76 C54 75.34 54 74.68 54 74 C55.98 74 57.96 74 60 74 C60.34702523 77.62273311 60.36313171 79.45864928 58.3046875 82.52734375 C51.47852591 89.29863266 44.75932894 93.23530673 36 97 C35.17757813 97.36867188 34.35515625 97.73734375 33.5078125 98.1171875 C30.42185585 99.20352115 27.42470826 99.66721297 24.1875 100.125 C23.02605469 100.29257813 21.86460937 100.46015625 20.66796875 100.6328125 C19.78753906 100.75398438 18.90710938 100.87515625 18 101 C17.85304688 102.74410156 17.85304688 102.74410156 17.703125 104.5234375 C14.71703741 137.54441541 3.92716174 168.00441606 -22 190 C-19.31568868 192.98676893 -16.0673142 195.0437953 -12.75 197.25 C-2.6322126 204.18010593 2.83425745 211.5111506 9 222 C9.66 222.99 10.32 223.98 11 225 C16.15557255 223.57668242 19.94092509 221.29096955 24.25 218.25 C24.93819824 217.76974365 25.62639648 217.2894873 26.33544922 216.79467773 C38.84319859 207.96840685 50.76029297 198.40510592 62.27734375 188.328125 C65 186 65 186 68 184 C70.1875 184.375 70.1875 184.375 72 185 C72.25 187.26171875 72.25 187.26171875 72 190 C70.25 192.01953125 70.25 192.01953125 68 193.8125 C67.2575 194.41707031 66.515 195.02164063 65.75 195.64453125 C65.1725 196.09183594 64.595 196.53914062 64 197 C65.69421828 200.38843656 69.71325448 200.84424264 73.125 202.0625 C91.37575918 208.92623464 110.46501859 220.58919418 119 239 C119.19921875 242.3515625 119.19921875 242.3515625 119 245 C116.66796875 245.26953125 116.66796875 245.26953125 114 245 C112.55078125 243.19921875 112.55078125 243.19921875 111.3125 240.6875 C101.52990357 223.17269982 85.10882581 214.05970423 67 207 C66.05382812 206.62746094 65.10765625 206.25492188 64.1328125 205.87109375 C59.07125916 204.00010482 59.07125916 204.00010482 54 205 C52.03672684 206.39495725 50.12644839 207.86526868 48.25 209.375 C16.11088303 234.69672852 -19.60853624 253.18404203 -61.1875 253.3125 C-61.87484222 253.31626648 -62.56218445 253.32003296 -63.27035522 253.32391357 C-75.80529249 253.35874273 -75.80529249 253.35874273 -82 251 C-81.67 249.35 -81.34 247.7 -81 246 C-79.61832642 246.01571045 -79.61832642 246.01571045 -78.20874023 246.03173828 C-74.71408469 246.06630201 -71.21961682 246.09112862 -67.72485352 246.10986328 C-66.22677706 246.1197769 -64.72871915 246.13331185 -63.23071289 246.15087891 C-49.71232393 246.30516733 -36.49615435 245.67504791 -23.5625 241.3125 C-22.7775415 241.05702393 -21.99258301 240.80154785 -21.18383789 240.53833008 C-12.54746335 237.6485298 -4.1453576 234.0726788 4 230 C2.50561009 224.17187934 -0.51443783 219.80214255 -4 215 C-4.41894531 214.40058594 -4.83789062 213.80117188 -5.26953125 213.18359375 C-17.19991303 197.64886702 -39.1761882 190.31118612 -57.76074219 187.39038086 C-81.6245331 184.51442354 -105.1620141 186.87927085 -125.01171875 201.16796875 C-132.98947234 207.90553344 -139.92247053 217.59968701 -141.28588867 228.22875977 C-141.40149384 230.57772647 -141.41707 232.89862168 -141.375 235.25 C-141.36339844 236.08700439 -141.35179687 236.92400879 -141.33984375 237.78637695 C-140.84473826 256.64953216 -131.9077558 273.59765348 -118.4375 286.5625 C-93.78729112 307.99583792 -62.12648258 310.22642122 -31 309 C-25.52750676 308.54775292 -20.30744422 307.39138073 -15 306 C-13.49801754 305.65354361 -11.99537228 305.30995209 -10.4921875 304.96875 C15.46043948 298.86146753 41.52974404 286.57272772 57.9609375 264.83984375 C59.24587632 262.91679552 59.24587632 262.91679552 59 260 C57.05990478 258.29467677 57.05990478 258.29467677 55 257 C55.33 255.68 55.66 254.36 56 253 C63.30928173 253.18324105 68.16768489 256.93676529 74.125 260.875 C105.12768218 281.23489481 105.12768218 281.23489481 141.06005859 283.58837891 C156.70443136 279.46348327 170.28649685 269.59479068 178.53125 255.7109375 C185.87816075 242.15041605 187.03097659 227.37346892 184.31640625 212.171875 C183.40765291 209.29101378 182.35849012 206.69581995 181 204 C180.57589844 203.14792969 180.15179688 202.29585937 179.71484375 201.41796875 C172.32123875 188.01062376 160.57025938 177.8179081 147 171 C147.33 169.35 147.66 167.7 148 166 C159.08470329 166.58340544 168.47768928 176.11386646 175.66015625 183.76953125 C176.9423216 185.22546833 176.9423216 185.22546833 179 185 C179.96875839 183.17215398 180.92446873 181.33739059 181.875 179.5 C182.40867187 178.4790625 182.94234375 177.458125 183.4921875 176.40625 C190.60429647 160.33951678 188.46209261 139.3360517 183 123 C182.79101074 122.36980957 182.58202148 121.73961914 182.36669922 121.09033203 C174.72767964 98.83703828 161.1196202 77.6978794 139.8125 66.5625 C132.84584271 63.31319343 126.70720894 61.67886629 119 62 C119.433125 63.918125 119.433125 63.918125 119.875 65.875 C120.14570312 67.12603516 120.14570312 67.12603516 120.421875 68.40234375 C120.77863339 70.00534596 121.15921535 71.60351225 121.578125 73.19140625 C126.87738215 94.9562124 120.91468523 117.02483295 110 136 C107.32354254 140.26525295 104.2503451 144.15815065 101 148 C100.37738281 148.78375 99.75476563 149.5675 99.11328125 150.375 C95.282274 155.00112196 91.00323209 158.84230961 86.3125 162.5625 C85.76561523 163.00480957 85.21873047 163.44711914 84.65527344 163.90283203 C81.34764159 166.43036202 79.18153693 167.5508147 75 167 C74.67 165.68 74.34 164.36 74 163 C74.82242187 162.32195312 75.64484375 161.64390625 76.4921875 160.9453125 C97.49502038 143.5051215 112.85171752 123.68161895 116.27929688 95.72167969 C117.7924608 76.58610663 110.89224942 57.66809334 98.6875 43 C90.19217441 33.29691936 79.70705176 27.16679938 68 22 C67.04222656 21.56300781 66.08445312 21.12601563 65.09765625 20.67578125 C57.59459652 17.80548323 50.34338581 17.62254417 42.375 17.5625 C41.32594482 17.55226807 40.27688965 17.54203613 39.19604492 17.53149414 C22.95727237 17.71378039 10.32807665 23.4755962 -1 35 C-2.12026172 36.34088219 -3.22675585 37.69351825 -4.3125 39.0625 C-7 42 -7 42 -9.875 42.4375 C-10.57625 42.293125 -11.2775 42.14875 -12 42 C-12 35.80886479 -9.73425506 32.7910559 -5.54296875 28.35546875 C-1.00442886 24.15156775 3.94691156 20.56242735 9 17 C-0.85492963 6.28092542 -17.90824187 0.68833538 -32.18725586 -0.12451172 C-65.39572447 -1.23826309 -93.71188135 11.26883294 -116 36 Z " fill="#3A2222" transform="translate(304,55)"/>
<path d="M0 0 C3.34635311 0.64965654 5.78034648 1.91604683 8.67578125 3.6953125 C9.57965576 4.24348633 10.48353027 4.79166016 11.41479492 5.35644531 C12.84915894 6.23187988 12.84915894 6.23187988 14.3125 7.125 C23.81581329 12.84153745 33.42827805 18.47609268 44 22 C37.435978 43.92518688 19.56813652 62.95740646 -0.0546875 73.98046875 C-9.41131572 78.94667911 -18.36929288 81.37425455 -29 81 C-29.58265625 79.87207031 -30.1653125 78.74414062 -30.765625 77.58203125 C-31.59274543 75.99166464 -32.42096091 74.40186728 -33.25 72.8125 C-33.68803955 71.97203125 -34.1260791 71.1315625 -34.57739258 70.265625 C-37.08043548 65.50743461 -39.66121474 60.81181128 -42.37109375 56.16796875 C-42.92313477 55.22139404 -43.47517578 54.27481934 -44.04394531 53.29956055 C-45.12937896 51.45067944 -46.22363548 49.60694646 -47.32714844 47.76879883 C-47.82118164 46.92728271 -48.31521484 46.0857666 -48.82421875 45.21875 C-49.26854248 44.47560547 -49.71286621 43.73246094 -50.1706543 42.96679688 C-51 41 -51 41 -50 38 C-47.43065188 36.67947457 -44.89973809 35.50946615 -42.25 34.375 C-25.1506946 26.66087951 -11.13346261 15.09566548 0 0 Z " fill="#CB7276" transform="translate(370,321)"/>
<path d="M0 0 C0.33 0 0.66 0 1 0 C1.20625 1.299375 1.4125 2.59875 1.625 3.9375 C5.14456181 21.36180951 12.08150848 37.84834037 27.1640625 48.1640625 C56.3871324 66.30469018 93.52487223 64.82545008 125.87402344 57.33447266 C146.93012557 51.9775637 164.82133433 43.31444911 180.6015625 28.22265625 C184.47237843 24.63553204 186.77967223 24.82303974 192 25 C193.67557379 25.28520405 195.34817245 25.59955696 197 26 C196.67 27.65 196.34 29.3 196 31 C197.98 32.485 197.98 32.485 200 34 C198.25464778 44.19285694 186.8517697 52.32393921 179 58 C163.6502149 68.69633014 146.35070449 75.37263328 128.18457031 79.49609375 C126.21576959 79.95022928 124.25914129 80.45637734 122.3046875 80.96875 C113.15816752 83.1022795 104.17251215 83.28658468 94.8125 83.3125 C92.92374146 83.32083862 92.92374146 83.32083862 90.99682617 83.3293457 C82.82919881 83.26675237 75.02681855 82.49778143 67 81 C65.89072144 80.79709351 65.89072144 80.79709351 64.7590332 80.59008789 C48.70563538 77.43786551 34.44348891 70.62437856 22 60 C20.98873047 59.13955078 20.98873047 59.13955078 19.95703125 58.26171875 C9.68788047 48.76332101 1.08470887 33.02890136 0 19 C-0.18981519 12.66559593 -0.11707509 6.33506307 0 0 Z " fill="#CB7276" transform="translate(163,281)"/>
<path d="M0 0 C18.03093426 16.53277575 36.9377387 61.10886104 38.1875 85.6875 C38.0946875 86.8321875 38.0946875 86.8321875 38 88 C30.92161166 88.83700088 23.93808524 89.18258241 16.8125 89.1875 C15.86697266 89.19974609 14.92144531 89.21199219 13.94726562 89.22460938 C3.36330868 89.24673611 3.36330868 89.24673611 -1 87 C-2.57966867 84.16131668 -3.21845753 81.13581856 -4 78 C-4.62073505 76.04043781 -5.25843551 74.0861946 -5.91015625 72.13671875 C-6.25473877 71.09507568 -6.59932129 70.05343262 -6.9543457 68.98022461 C-14.03374368 47.94478939 -23.16663086 29.32977758 -37.3515625 12.15234375 C-39 10 -39 10 -39 8 C-38.42258057 7.93530518 -37.84516113 7.87061035 -37.25024414 7.80395508 C-24.38066663 6.31905285 -12.29013379 4.12387779 0 0 Z " fill="#FD8F93" transform="translate(310,363)"/>
<path d="M0 0 C2.75075294 3.22362871 4.68709429 6.10020412 6.1875 10.0625 C6.51105469 10.89910156 6.83460938 11.73570312 7.16796875 12.59765625 C9.2066224 18.48390974 9.21864042 23.93148199 9.25 30.125 C9.270625 31.12015625 9.29125 32.1153125 9.3125 33.140625 C9.39215191 48.39396597 3.12819109 60.54878154 -7.30078125 71.4921875 C-19.73878336 83.04818946 -34.49257592 87.65549281 -51.0625 87.32421875 C-57.98561676 87.00150878 -63.80083438 85.00398748 -70 82 C-70.77037598 81.62939453 -71.54075195 81.25878906 -72.33447266 80.87695312 C-104.22404916 65.28621984 -104.22404916 65.28621984 -113 56 C-106.0081766 57.72625709 -99.01787802 59.4547029 -92.05859375 61.30859375 C-91.23657471 61.52749268 -90.41455566 61.7463916 -89.56762695 61.97192383 C-87.98599872 62.39479794 -86.4050567 62.82025052 -84.82495117 63.2487793 C-82.55515276 63.85561549 -80.28043622 64.43451017 -78 65 C-77.25202148 65.19126465 -76.50404297 65.3825293 -75.73339844 65.57958984 C-68.18917683 67.31852825 -60.71482493 67.36736156 -53 67.375 C-51.04707031 67.41173828 -51.04707031 67.41173828 -49.0546875 67.44921875 C-38.42033783 67.48144405 -30.56305572 65.42229179 -22 59 C-21.030625 58.29875 -20.06125 57.5975 -19.0625 56.875 C-14.84504171 53.2774306 -11.9491957 48.64372135 -9 44 C-8.60683594 43.39671875 -8.21367187 42.7934375 -7.80859375 42.171875 C-0.65151876 29.71014442 -0.30647782 13.96006485 0 0 Z " fill="#CB7276" transform="translate(480,252)"/>
<path d="M0 0 C2.00720923 0.28674418 4.0085944 0.61866701 6 1 C7.87118132 25.36693895 -1.63109958 52.96865732 -17.35449219 71.60546875 C-26.34497868 81.99447537 -26.34497868 81.99447537 -31 85 C-31.66 85 -32.32 85 -33 85 C-33 85.66 -33 86.32 -33 87 C-33.6084375 86.82984375 -34.216875 86.6596875 -34.84375 86.484375 C-36.74897024 85.95763764 -38.65686046 85.44052141 -40.56640625 84.9296875 C-42.91464615 84.29387283 -45.25570215 83.63107771 -47.58984375 82.9453125 C-58.39682547 79.93910642 -68.80862434 79.22933147 -80 79 C-78.43226975 75.8172118 -76.71274716 72.78627791 -74.875 69.75 C-74.33617187 68.85796875 -73.79734375 67.9659375 -73.2421875 67.046875 C-72.83226562 66.37140625 -72.42234375 65.6959375 -72 65 C-71.67 65.66 -71.34 66.32 -71 67 C-54.88262707 65.8136959 -44.14077345 60.99811242 -32 50 C-31.1440625 49.2265625 -30.288125 48.453125 -29.40625 47.65625 C-19.9044795 38.62370274 -13.28683675 28.59422731 -8.4140625 16.453125 C-2.83908046 2.83908046 -2.83908046 2.83908046 0 0 Z " fill="#CA7276" transform="translate(308,155)"/>
<path d="M0 0 C2.97451592 2.85500412 5.48740656 5.86053201 8 9.125 C17.19931445 20.37359263 28.24893849 27.46342818 41 34 C41.98097656 34.5053125 42.96195313 35.010625 43.97265625 35.53125 C51.05131181 38.95068891 58.42302698 40.98241067 66 43 C67.02609375 43.32613281 68.0521875 43.65226562 69.109375 43.98828125 C82.3649751 47.66008788 95.6824529 47.2385748 109.3125 47.125 C111.4212197 47.11494844 113.52994405 47.10582645 115.63867188 47.09765625 C120.7592311 47.07581908 125.87956318 47.04140944 131 47 C131.33 52.61 131.66 58.22 132 64 C122.6999523 65.632386 113.81094645 66.35394722 104.375 66.3125 C103.06265381 66.30831055 101.75030762 66.30412109 100.39819336 66.29980469 C90.01541328 66.17983894 80.12378161 65.28138128 70 63 C69.33516602 62.85546387 68.67033203 62.71092773 67.98535156 62.56201172 C44.91768027 57.41877538 23.32862906 45.46507548 10.0625 25.4375 C5.25009542 17.27988735 1.68424649 9.33991234 0 0 Z " fill="#CB7276" transform="translate(24,242)"/>
<path d="M0 0 C0.33 0 0.66 0 1 0 C1.42015056 5.39473324 0.06363354 9.07714748 -2.125 13.875 C-2.44339844 14.58245361 -2.76179687 15.28990723 -3.08984375 16.01879883 C-6.85626597 24.15468347 -11.08582072 30.47323187 -19 35 C-21.64618574 35.92760134 -24.30715325 36.43976815 -27.0625 36.9375 C-39.61827887 39.58283967 -53.9424464 44.24693802 -62.30078125 54.61328125 C-68.81289188 59.92776234 -80.80250646 58.67857192 -88.69238281 58.24267578 C-94.2720438 57.65590229 -99.06731847 55.55418304 -104 53 C-105.31871094 52.33097656 -105.31871094 52.33097656 -106.6640625 51.6484375 C-116.66512037 46.10605558 -125.51828169 38.1252534 -131 28 C-131.68359375 25.203125 -131.68359375 25.203125 -132 23 C-130.71211992 22.46987262 -129.41953322 21.9511671 -128.125 21.4375 C-127.40570313 21.14746094 -126.68640625 20.85742188 -125.9453125 20.55859375 C-124 20 -124 20 -122 21 C-121.608125 21.721875 -121.21625 22.44375 -120.8125 23.1875 C-115.30168593 31.73876322 -103.61394331 37.83786019 -93.93920898 40.58520508 C-81.06464574 43.33906168 -68.71457419 38.86586464 -57.3125 33.25390625 C-45.89540617 27.64004216 -36.84397277 23.73492052 -23.99609375 24.125 C-17.54897766 23.92333068 -12.58299736 21.49726102 -8 17 C-6.59968521 14.63765792 -5.39562487 12.411125 -4.25 9.9375 C-3.94707031 9.31294922 -3.64414063 8.68839844 -3.33203125 8.04492188 C-2.05854314 5.39323663 -0.93101587 2.79304761 0 0 Z " fill="#CA7276" transform="translate(233,200)"/>
<path d="M0 0 C4.06846303 0.6529632 7.25667037 2.79085688 10.6875 4.9375 C11.28111328 5.29779297 11.87472656 5.65808594 12.48632812 6.02929688 C16.87251626 8.74503251 16.87251626 8.74503251 18 11 C16.95585937 11.99966797 16.95585937 11.99966797 15.890625 13.01953125 C12.56145804 16.3498688 9.68010472 20.00780328 6.75 23.6875 C-4.51098618 37.66396894 -17.82194747 54.16523109 -35 61 C-38.1030195 60.79220311 -39.51083111 60.55573064 -41.59326172 58.18994141 C-42.03428223 57.41827637 -42.47530273 56.64661133 -42.9296875 55.8515625 C-43.65671875 54.59085937 -43.65671875 54.59085937 -44.3984375 53.3046875 C-44.88570313 52.42039062 -45.37296875 51.53609375 -45.875 50.625 C-46.38546875 49.7484375 -46.8959375 48.871875 -47.421875 47.96875 C-50.15795422 43.1325451 -50.15795422 43.1325451 -51 41 C-50 38 -50 38 -46.640625 36.2734375 C-45.17952863 35.63499934 -43.71579714 35.00257042 -42.25 34.375 C-25.1506946 26.66087951 -11.13346261 15.09566548 0 0 Z " fill="#FD8E93" transform="translate(370,321)"/>
<path d="M0 0 C10.30550884 12.65077372 14.55276526 29.59061483 13.26611328 45.74365234 C10.43989059 69.70690936 -2.27795132 90.12597244 -20 106 C-22.61641644 107.91817034 -25.13853775 109.45921263 -28 111 C-29.32 110.01 -30.64 109.02 -32 108 C-31.60080426 102.01206385 -28.86205954 98.21306734 -25.625 93.375 C-5.54522067 62.32117686 0.48037877 36.6898527 0 0 Z " fill="#CA7276" transform="translate(407,105)"/>
<path d="M0 0 C12.51435958 -0.82061374 22.42353822 5.05612972 33.10546875 10.93359375 C50.56544939 20.35519766 65.51881789 21.67444386 84.62036133 17.43188477 C91.85824426 15.87985977 98.5880244 15.55822662 106 16 C105.34 16.33 104.68 16.66 104 17 C103.71382813 17.598125 103.42765625 18.19625 103.1328125 18.8125 C99.60428388 25.62621043 91.91536547 30.19317519 85 33 C84.38382812 33.29777344 83.76765625 33.59554687 83.1328125 33.90234375 C72.74892069 38.28620469 58.62034265 36.96162308 48 34 C47.24332031 33.82855469 46.48664063 33.65710938 45.70703125 33.48046875 C27.17226301 28.7938634 13.59529954 16.54518005 2 2 C1.34 1.34 0.68 0.68 0 0 Z " fill="#CA7276" transform="translate(254,112)"/>
<path d="M0 0 C1.703125 2.43359375 1.703125 2.43359375 3.25 5.4375 C4.03117187 6.92056641 4.03117187 6.92056641 4.828125 8.43359375 C6 11 6 11 6 13 C-16.6516478 24.14910892 -38.34342257 29.20093719 -63.5625 29.0625 C-65.15950381 29.05747543 -66.75650914 29.05291421 -68.35351562 29.04882812 C-72.23571533 29.03789728 -76.11784051 29.02068533 -80 29 C-79.20117188 22.23193359 -79.20117188 22.23193359 -77.390625 20.14453125 C-65.43448522 12.70467054 -51.80322976 10.87130012 -38.1953125 8.22265625 C-27.29574253 6.09172534 -16.47203826 3.97484818 -6.19921875 -0.36328125 C-3.56129727 -1.1270134 -2.4703715 -1.22255604 0 0 Z " fill="#CB7276" transform="translate(302,272)"/>
<path d="M0 0 C12.86092527 16.50808661 14.70787612 41.02067229 13 61 C11.88660981 68.31881066 9.01888306 74.82814387 5 81 C1.77298796 79.60186349 -0.10495065 77.98288368 -2.4375 75.375 C-6.85984384 70.79381961 -11.78235706 67.84368533 -17.2421875 64.6640625 C-20 63 -20 63 -22 61 C-21.21496094 60.27296875 -20.42992187 59.5459375 -19.62109375 58.796875 C-9.85369744 49.5364316 -0.75181968 38.65220418 0.23608398 24.6550293 C0.29428802 20.91123551 0.26217735 17.18094175 0.1875 13.4375 C0.17396484 12.14263672 0.16042969 10.84777344 0.14648438 9.51367188 C0.1113737 6.34200786 0.06219347 3.1712291 0 0 Z " fill="#CA7276" transform="translate(478,159)"/>
<path d="M0 0 C12.43891785 16.39063183 20.35707268 36.77534353 20.26171875 57.5625 C20.25849609 58.80644531 20.25527344 60.05039062 20.25195312 61.33203125 C20.23938477 63.25982422 20.23938477 63.25982422 20.2265625 65.2265625 C20.22205078 66.53496094 20.21753906 67.84335937 20.21289062 69.19140625 C20.20113844 72.41150531 20.18470793 75.6315102 20.1640625 78.8515625 C19.1740625 78.5215625 18.1840625 78.1915625 17.1640625 77.8515625 C16.36791992 76.15600586 16.36791992 76.15600586 15.76953125 73.94140625 C15.53983643 73.12486572 15.3101416 72.3083252 15.07348633 71.46704102 C14.83525146 70.58330811 14.5970166 69.6995752 14.3515625 68.7890625 C13.82145508 66.94162912 13.28755305 65.09528066 12.75 63.25 C12.4828418 62.33057617 12.21568359 61.41115234 11.94042969 60.46386719 C5.8250541 39.8869745 -4.40048993 20.61319513 -18.12109375 4.1015625 C-19.8359375 1.8515625 -19.8359375 1.8515625 -19.8359375 -0.1484375 C-17.10880113 -0.62049969 -14.38505689 -1.05145152 -11.6484375 -1.4609375 C-10.87951172 -1.59822266 -10.11058594 -1.73550781 -9.31835938 -1.87695312 C-5.09149464 -2.47560779 -3.5251172 -2.67054334 0 0 Z " fill="#CA7276" transform="translate(290.8359375,371.1484375)"/>
<path d="M0 0 C16.39098199 2.4586473 28.71889464 14.0919384 38.42211914 26.87670898 C51.10355626 44.24815531 51.10355626 44.24815531 51.25 53.4375 C51.27578125 54.40558594 51.3015625 55.37367188 51.328125 56.37109375 C51 59 51 59 49.484375 60.84765625 C48.99453125 61.22792969 48.5046875 61.60820312 48 62 C47.855625 60.7625 47.71125 59.525 47.5625 58.25 C44.60078664 45.14853188 31.60956339 34.45100243 20.79174805 27.45751953 C12.03459792 22.04987844 2.66680805 18.44373116 -7 15 C-7 14.01 -7 13.02 -7 12 C-5.46875 10.60546875 -5.46875 10.60546875 -3.5 9.1875 C-0.32053516 6.68143169 -0.32053516 6.68143169 0.4375 2.625 C0.293125 1.75875 0.14875 0.8925 0 0 Z " fill="#CA7275" transform="translate(376,239)"/>
<path d="M0 0 C2.7110204 2.41419334 5.22141684 4.81596302 7 8 C6.8671875 10.1875 6.8671875 10.1875 6 12 C2.32770751 13.2240975 1.88377637 12.65266073 -1.5 11.0625 C-11.6505952 7.21227423 -23.81919113 7.39352115 -34 11.0625 C-47.44672583 17.16222188 -57.15826337 24.66865134 -63.08984375 38.421875 C-63.97911759 40.94084811 -64.5506259 43.36997894 -65 46 C-67.42901902 43.57098098 -67.32209476 42.84361143 -67.375 39.5 C-67.13943383 29.26759441 -61.83206224 19.78366095 -54.66015625 12.68359375 C-41.11346238 0.92721184 -17.02720124 -11.87944273 0 0 Z " fill="#CA7276" transform="translate(134,204)"/>
<path d="M0 0 C0.86496094 0.01804688 1.72992188 0.03609375 2.62109375 0.0546875 C3.26175781 0.07789063 3.90242188 0.10109375 4.5625 0.125 C-8.80914379 13.79434272 -24.37523533 25.15153968 -40.1875 35.8125 C-40.95030273 36.33005859 -41.71310547 36.84761719 -42.49902344 37.38085938 C-43.21606445 37.85716797 -43.93310547 38.33347656 -44.671875 38.82421875 C-45.30319336 39.24533936 -45.93451172 39.66645996 -46.58496094 40.1003418 C-48.4375 41.125 -48.4375 41.125 -52.4375 42.125 C-55.9025 36.185 -55.9025 36.185 -59.4375 30.125 C-55.84128259 27.42783694 -52.29035467 25.44823679 -48.3125 23.4375 C-42.65910784 20.53092868 -37.17816678 17.40549884 -31.78125 14.046875 C-31.20682159 13.68953781 -30.63239319 13.33220062 -30.04055786 12.96403503 C-27.16335609 11.16855438 -24.29598843 9.35876849 -21.43701172 7.53442383 C-14.23896789 3.003916 -8.69475777 -0.23821254 0 0 Z " fill="#CA7276" transform="translate(367.4375,237.875)"/>
<path d="M0 0 C2.96628133 9.35335484 1.7664606 22.09873917 -2 31 C-5.0916345 36.82759423 -8.70742608 41.09357639 -14 45 C-18 41 -22 37 -26 33 C-25.319375 32.38125 -24.63875 31.7625 -23.9375 31.125 C-17.36305123 24.49530376 -12.75579218 16.11891343 -8.10839844 8.09033203 C-3.37476103 0 -3.37476103 0 0 0 Z " fill="#CA7276" transform="translate(191,130)"/>
<path d="M0 0 C4.52615993 3.67832017 8.39424999 7.41086363 12 12 C4.30639142 17.12907239 -5.60913006 16.22733073 -14.5 16.0625 C-16.82285635 16.02819085 -19.14577878 15.99802203 -21.46875 15.97265625 C-22.48388672 15.95468994 -23.49902344 15.93672363 -24.54492188 15.91821289 C-27.00628691 15.82931607 -27.00628691 15.82931607 -29 17 C-28.70265786 14.2248067 -28.09750203 13.09871575 -26.1171875 11.09375 C-21.79341819 8.1895641 -17.25335248 6.81097441 -12.3125 5.25 C-11.35021484 4.93417969 -10.38792969 4.61835938 -9.39648438 4.29296875 C-2.32401583 2 -2.32401583 2 0 2 C0 1.34 0 0.68 0 0 Z " fill="#CA7276" transform="translate(157,166)"/>
</svg>
