<?xml version="1.0" encoding="UTF-8"?>
<svg version="1.1" xmlns="http://www.w3.org/2000/svg" width="512" height="512">
<path d="M0 0 C2.39453125 2.3046875 2.39453125 2.3046875 4 5 C3.94139777 8.39892952 3.85313255 10.84118477 1.80078125 13.62890625 C-0.61912788 15.47139672 -2.77106457 15.75678489 -5.75 16.3125 C-11.48050738 17.63759311 -15.23665082 19.43519683 -19 24 C-21.14732652 27.80662429 -21.40743979 31.70644931 -22 36 C-20.95585937 35.96519531 -19.91171875 35.93039063 -18.8359375 35.89453125 C19.05384437 35.02912846 55.38794405 46.89780806 84 72 C85.27617188 73.07701172 85.27617188 73.07701172 86.578125 74.17578125 C104.82526137 89.93212753 117.43858171 111.67147692 126 134 C126.72703125 133.96519531 127.4540625 133.93039063 128.203125 133.89453125 C140.42674976 133.56543366 149.92061176 136.0377559 160 143 C160.886875 143.5775 161.77375 144.155 162.6875 144.75 C171.61549001 153.43669298 176.96782263 164.45218808 177.29296875 176.87451172 C177.41435543 190.47285457 174.22655117 200.64666647 165 211 C154.98375948 220.40442828 144.12905994 224.41356316 130.5 224.125 C129.67757813 224.11597656 128.85515625 224.10695312 128.0078125 224.09765625 C126.00507917 224.07436865 124.00249846 224.03850959 122 224 C121.1646875 225.64935547 121.1646875 225.64935547 120.3125 227.33203125 C109.35397409 248.68977696 94.17967975 267.95665269 73 280 C73.50789063 280.83660156 74.01578125 281.67320312 74.5390625 282.53515625 C87.26598395 303.88223889 92.35478795 325.2042647 92 350 C92.99 350.33 93.98 350.66 95 351 C97.58088554 354.50448003 97.34453395 358.44758707 97.3125 362.625 C97.30758545 363.40278809 97.3026709 364.18057617 97.29760742 364.98193359 C96.48329044 408.05303806 85.43604001 454.29388112 55.1875 486.25 C33.60734699 506.98980438 7.72198253 512.66053131 -21.3984375 512.2734375 C-46.73559333 511.64421381 -68.14118468 500.60798927 -86 483 C-86.7321875 482.28070313 -87.464375 481.56140625 -88.21875 480.8203125 C-118.73443359 448.73040713 -124.95473245 396.01975543 -126 354 C-126.02191406 353.20980469 -126.04382813 352.41960937 -126.06640625 351.60546875 C-126.71407295 325.22384516 -126.71407295 325.22384516 -120 318 C-119.01 317.34 -118.02 316.68 -117 316 C-116.02273256 313.29326533 -115.17504793 310.63335291 -114.375 307.875 C-111.46635438 298.44835697 -107.09086681 290.40260963 -102 282 C-101.67 281.34 -101.34 280.68 -101 280 C-101.78761719 279.48953125 -102.57523437 278.9790625 -103.38671875 278.453125 C-124.19876443 264.56200812 -139.31310398 246.76103335 -150 224 C-151.18335938 224.03480469 -152.36671875 224.06960937 -153.5859375 224.10546875 C-169.12703789 224.42948153 -181.35750841 221.86078252 -193.15234375 211.00390625 C-196.49357071 207.3801231 -198.80395286 203.39209428 -201 199 C-201.41507812 198.19046875 -201.83015625 197.3809375 -202.2578125 196.546875 C-206.57653882 186.70138702 -206.78338303 174.11968628 -203.375 163.9375 C-198.11545395 151.83868559 -189.17429822 141.79217114 -176.875 136.6875 C-169.1961254 133.88354731 -162.10728626 133.88193272 -154 134 C-153.63261719 133.03126953 -153.63261719 133.03126953 -153.2578125 132.04296875 C-146.72457438 115.57470302 -138.28759025 100.66513211 -127 87 C-126.56155762 86.46906738 -126.12311523 85.93813477 -125.67138672 85.39111328 C-119.78823535 78.38067858 -113.25852076 72.54641205 -106 67 C-105.14921875 66.33355469 -104.2984375 65.66710937 -103.421875 64.98046875 C-85.90269745 51.68372771 -60.57301212 38 -38 38 C-38.05800781 37.27296875 -38.11601562 36.5459375 -38.17578125 35.796875 C-38.64209878 25.40465565 -35.91825915 16.87476089 -29 9 C-20.8098945 1.53255087 -11.19776382 -2.25140225 0 0 Z " fill="#FED3BD" transform="translate(270,0)"/>
<path d="M0 0 C1.30868042 0.38828979 1.30868042 0.38828979 2.64379883 0.78442383 C36.80081937 11.18609058 70.85145131 24.18259457 102.09765625 41.54296875 C102.87036865 41.97013184 103.64308105 42.39729492 104.43920898 42.83740234 C105.84093027 43.62304262 107.23347682 44.42541963 108.61352539 45.24853516 C113.26648084 47.87653122 115.8489386 47.77732691 121 46.75 C123.53742896 45.9664802 126.0058467 45.14666444 128.49609375 44.23828125 C129.94539071 43.72446661 131.39486047 43.21113919 132.84448242 42.69824219 C133.59474701 42.4305603 134.3450116 42.16287842 135.11801147 41.88708496 C146.52951401 37.8302624 157.93031292 33.94047371 169.6875 31 C170.62843506 30.76063721 171.56937012 30.52127441 172.53881836 30.2746582 C179.00258264 28.73419791 184.98107694 27.63188035 191.375 30 C194.25695848 31.92130565 194.84991669 32.56757768 196 35.75 C196.22833466 38.3417467 196.33237142 40.78365131 196.3125 43.375 C196.30512817 44.54168213 196.30512817 44.54168213 196.29760742 45.73193359 C195.48329044 88.80303806 184.43604001 135.04388112 154.1875 167 C132.60734699 187.73980438 106.72198253 193.41053131 77.6015625 193.0234375 C52.26440667 192.39421381 30.85881532 181.35798927 13 163.75 C12.2678125 163.03070313 11.535625 162.31140625 10.78125 161.5703125 C-19.73443359 129.48040713 -25.95473245 76.76975543 -27 34.75 C-27.02191406 33.95980469 -27.04382813 33.16960937 -27.06640625 32.35546875 C-27.71370067 5.98900931 -27.71370067 5.98900931 -21 -1.25 C-14.75967385 -4.37016308 -6.32255602 -1.93011157 0 0 Z " fill="#EAB65F" transform="translate(171,319.25)"/>
<path d="M0 0 C-0.94359375 1.6396875 -0.94359375 1.6396875 -1.90625 3.3125 C-16.31774481 29.07782016 -23.4599319 57.52400255 -23.20581055 86.9987793 C-23.18742413 89.19656955 -23.18530291 91.39393713 -23.18554688 93.59179688 C-23.164597 101.76671418 -22.84874123 109.86321843 -22 118 C-21.34 117.67 -20.68 117.34 -20 117 C-12.86751532 116.41537011 -12.86751532 116.41537011 -9.125 118.9375 C-8.42375 119.618125 -7.7225 120.29875 -7 121 C-3.93570224 122.53214888 -1.3834358 122.22938548 2 122 C4.74832154 120.71815438 4.74832154 120.71815438 7 119 C10.7205836 116.51961093 12.59796571 116.53662797 17 117 C19.5 118.5625 19.5 118.5625 21 121 C21.28328773 124.75356241 20.88443311 126.95615056 18.41796875 129.8671875 C14.02557308 133.90437958 9.42675441 136.57734178 4 139 C4.804375 139.94875 5.60875 140.8975 6.4375 141.875 C10.93749215 147.18268305 10.46407345 152.20846354 10 159 C8.20190442 164.9561916 3.70840103 168.21985856 -1 172 C4.82902612 193.11052704 30.05456736 211.40649974 47.93115234 221.82714844 C65.31297056 231.68108456 95.2362991 248.24870044 115.68359375 243.06640625 C116.94266103 242.58493946 118.19392457 242.08267384 119.4375 241.5625 C120.10910156 241.29679199 120.78070313 241.03108398 121.47265625 240.75732422 C129.47194754 237.52698311 137.24901794 233.77956304 145 230 C160.47006528 249.5609336 165.68199987 274.51408998 165 299 C164.32775391 298.97389648 163.65550781 298.94779297 162.96289062 298.92089844 C156.12196423 298.77094076 150.10616839 299.52334158 143.5 301.25 C142.50750244 301.50160889 141.51500488 301.75321777 140.49243164 302.01245117 C129.08091021 305.03803134 117.95655714 308.98321838 106.84375 312.94824219 C105.74529503 313.3369474 105.74529503 313.3369474 104.62464905 313.73350525 C103.25308239 314.21985653 101.88346518 314.71175882 100.51634216 315.21046448 C90.26840094 318.84220727 90.26840094 318.84220727 84.57275391 316.72753906 C83.36424112 316.09182676 82.16582394 315.43666189 80.9765625 314.765625 C80.32230789 314.41672714 79.66805328 314.06782928 78.99397278 313.70835876 C77.59220648 312.95949313 76.19454938 312.20289325 74.80075073 311.43930054 C71.10227305 309.41765282 67.36810215 307.46394847 63.63671875 305.50390625 C62.89255203 305.11145218 62.14838531 304.71899811 61.38166809 304.31465149 C33.17700746 289.50215147 2.53827882 278.85577019 -28 270 C-28.68892334 269.7922998 -29.37784668 269.58459961 -30.08764648 269.37060547 C-33.37425879 268.39022521 -36.52186098 267.69028976 -39.9375 267.375 C-41.09572266 267.26285156 -41.09572266 267.26285156 -42.27734375 267.1484375 C-42.84582031 267.09945313 -43.41429687 267.05046875 -44 267 C-40.79392161 253.50072256 -34.90900057 241.95195411 -28 230 C-28.78761719 229.48953125 -29.57523437 228.9790625 -30.38671875 228.453125 C-51.19876443 214.56200812 -66.31310398 196.76103335 -77 174 C-78.18335938 174.03480469 -79.36671875 174.06960937 -80.5859375 174.10546875 C-96.12703789 174.42948153 -108.35750841 171.86078252 -120.15234375 161.00390625 C-123.49357071 157.3801231 -125.80395286 153.39209428 -128 149 C-128.41507812 148.19046875 -128.83015625 147.3809375 -129.2578125 146.546875 C-133.57653882 136.70138702 -133.78338303 124.11968628 -130.375 113.9375 C-125.11545395 101.83868559 -116.17429822 91.79217114 -103.875 86.6875 C-96.1961254 83.88354731 -89.10728626 83.88193272 -81 84 C-80.63261719 83.03126953 -80.63261719 83.03126953 -80.2578125 82.04296875 C-73.72457438 65.57470302 -65.28759025 50.66513211 -54 37 C-53.56155762 36.46906738 -53.12311523 35.93813477 -52.67138672 35.39111328 C-46.78823535 28.38067858 -40.25852076 22.54641205 -33 17 C-31.72382813 16.00033203 -31.72382813 16.00033203 -30.421875 14.98046875 C-7.42385222 -2.47461741 -7.42385222 -2.47461741 0 0 Z " fill="#FEBF9E" transform="translate(197,50)"/>
<path d="M0 0 C0.49177734 0.24121582 0.98355469 0.48243164 1.49023438 0.73095703 C17.23082822 8.41490988 32.82927044 15.18947442 50 19 C50.65645508 19.15098145 51.31291016 19.30196289 51.98925781 19.45751953 C74.3341455 24.39170507 99.66741001 23.64886575 122 19 C122.67192383 18.86078125 123.34384766 18.7215625 124.03613281 18.578125 C140.86032763 14.92032321 156.60459063 7.50282609 172 0 C187.47006528 19.5609336 192.68199987 44.51408998 192 69 C191.32775391 68.97389648 190.65550781 68.94779297 189.96289062 68.92089844 C183.12196423 68.77094076 177.10616839 69.52334158 170.5 71.25 C169.50750244 71.50160889 168.51500488 71.75321777 167.49243164 72.01245117 C156.08091021 75.03803134 144.95655714 78.98321838 133.84375 82.94824219 C132.74529503 83.3369474 132.74529503 83.3369474 131.62464905 83.73350525 C130.25308239 84.21985653 128.88346518 84.71175882 127.51634216 85.21046448 C117.26840094 88.84220727 117.26840094 88.84220727 111.57275391 86.72753906 C110.36424112 86.09182676 109.16582394 85.43666189 107.9765625 84.765625 C107.32230789 84.41672714 106.66805328 84.06782928 105.99397278 83.70835876 C104.59220648 82.95949313 103.19454938 82.20289325 101.80075073 81.43930054 C98.10227305 79.41765282 94.36810215 77.46394847 90.63671875 75.50390625 C89.52046867 74.91522514 89.52046867 74.91522514 88.38166809 74.31465149 C60.17700746 59.50215147 29.53827882 48.85577019 -1 40 C-1.68892334 39.7922998 -2.37784668 39.58459961 -3.08764648 39.37060547 C-6.37425879 38.39022521 -9.52186098 37.69028976 -12.9375 37.375 C-13.70964844 37.30023438 -14.48179687 37.22546875 -15.27734375 37.1484375 C-15.84582031 37.09945312 -16.41429687 37.05046875 -17 37 C-15.1195141 29.08216461 -12.71208278 21.84108521 -9.0625 14.5625 C-8.73894531 13.91345703 -8.41539062 13.26441406 -8.08203125 12.59570312 C-5.75359628 8.09129024 -3.0207767 4.07148163 0 0 Z " fill="#F6EE86" transform="translate(170,280)"/>
<path d="M0 0 C1.30868042 0.38828979 1.30868042 0.38828979 2.64379883 0.78442383 C41.44169943 12.59935459 83.11735711 27.16157141 117 49.75 C115.91847656 50.18828125 114.83695313 50.6265625 113.72265625 51.078125 C71.07136578 68.57851065 29.33236516 91.24082779 -5.84375 121.31640625 C-8 122.75 -8 122.75 -12 122.75 C-21.77384502 94.26814234 -26.252089 64.81602211 -27 34.75 C-27.02191406 33.95980469 -27.04382813 33.16960937 -27.06640625 32.35546875 C-27.71370067 5.98900931 -27.71370067 5.98900931 -21 -1.25 C-14.75967385 -4.37016308 -6.32255602 -1.93011157 0 0 Z " fill="#EFD075" transform="translate(171,319.25)"/>
<path d="M0 0 C13.01420828 -0.62302061 23.21808552 1.55249241 34 9 C34.886875 9.5775 35.77375 10.155 36.6875 10.75 C45.61549001 19.43669298 50.96782263 30.45218808 51.29296875 42.87451172 C51.41435543 56.47285457 48.22655117 66.64666647 39 77 C28.07224774 87.26026303 16.95527781 90.24150089 2.29296875 90.16796875 C-1 90 -1 90 -4 89 C-3.43372608 84.92155521 -2.47932455 81.11589787 -1.23510742 77.19262695 C5.59019819 55.57709466 5.74338195 34.13382753 0.69116211 12.12353516 C0.34710327 10.61992432 0.34710327 10.61992432 -0.00390625 9.0859375 C-0.21861572 8.1995459 -0.4333252 7.3131543 -0.65454102 6.39990234 C-1.01179458 3.91806311 -0.78816746 2.35799992 0 0 Z " fill="#FFBF9E" transform="translate(396,134)"/>
<path d="M0 0 C1.32302628 3.69381834 0.65556049 6.25622104 -0.3125 10 C-0.59351563 11.16660156 -0.87453125 12.33320313 -1.1640625 13.53515625 C-1.43992188 14.67855469 -1.71578125 15.82195312 -2 17 C-6.91910092 37.83209605 -4.16194794 59.78258569 2.1328125 79.984375 C2.9943641 82.98040128 3.54786213 85.91808064 4 89 C-5.80499707 92.26833236 -17.17209449 90.12754732 -26.328125 85.93359375 C-35.88813386 81.00726265 -42.19663147 74.60673706 -47 65 C-47.41507812 64.19046875 -47.83015625 63.3809375 -48.2578125 62.546875 C-52.57653882 52.70138702 -52.78338303 40.11968628 -49.375 29.9375 C-44.11545395 17.83868559 -35.17429822 7.79217114 -22.875 2.6875 C-15.1961254 -0.11645269 -8.10728626 -0.11806728 0 0 Z " fill="#FFD4BD" transform="translate(116,134)"/>
<path d="M0 0 C2.875 1.9375 2.875 1.9375 5 4 C8.06429776 5.53214888 10.6165642 5.22938548 14 5 C16.74832154 3.71815438 16.74832154 3.71815438 19 2 C22.7205836 -0.48038907 24.59796571 -0.46337203 29 0 C31.5 1.5625 31.5 1.5625 33 4 C33.28328773 7.75356241 32.88443311 9.95615056 30.41796875 12.8671875 C26.02557308 16.90437958 21.42675441 19.57734178 16 22 C17.2065625 23.423125 17.2065625 23.423125 18.4375 24.875 C22.93749215 30.18268305 22.46407345 35.20846354 22 42 C19.99652069 48.6365252 14.56109868 52.89543388 8.74609375 56.33203125 C0.23102538 60.30198899 -9.61247303 60.57188953 -18.4375 57.375 C-24.73338416 54.44451445 -29.98011859 50.37530519 -33 44 C-34.45805189 38.98013564 -35.09290494 33.81397486 -33.1640625 28.84765625 C-29.50553553 22.45137252 -23.73003311 17.91591377 -17 15 C-14.33646245 14.48479018 -11.70500869 14.27050087 -9 14 C-9.33 13.484375 -9.66 12.96875 -10 12.4375 C-11.3578232 9.12780596 -11.32214498 6.54359483 -11 3 C-8.83509811 -1.19449741 -4.16588408 -0.76483028 0 0 Z " fill="#EDA1AA" transform="translate(185,167)"/>
<path d="M0 0 C1.76171875 1.12890625 1.76171875 1.12890625 3.5 2.5 C6.17836038 4.6091339 6.99284442 4.99899571 10.5625 5.5 C15.25862627 4.81692709 18.63455542 3.36544458 22 0 C28.96019496 -0.55239643 28.96019496 -0.55239643 32 1.0625 C33.57048147 4.10530784 33.29490614 6.63806999 33 10 C31.98046875 12.22265625 31.98046875 12.22265625 31 14 C31.61746094 14.07476562 32.23492187 14.14953125 32.87109375 14.2265625 C40.99634033 15.48801631 46.82864884 18.58469875 52.4375 24.625 C56.08336163 30.16670967 56.78573675 34.39583291 56 41 C54.19921377 47.12482982 50.47987278 51.7675445 45 55 C35.41578406 59.07677349 25.81398568 60.95936462 15.8125 57.4375 C9.65802775 54.66406744 5.01532458 50.7080924 1 45.3125 C-0.65529512 39.8293349 -1.38238255 33.38781076 0.83203125 27.9609375 C2.30675257 25.71847736 4.10666115 23.89333885 6 22 C5.27554687 21.63648438 4.55109375 21.27296875 3.8046875 20.8984375 C-2.00343779 17.87821235 -6.96858982 15.22993753 -11 10 C-11.74764875 6.26175623 -11.52687056 4.80084324 -9.4375 1.625 C-5.9929414 -0.6713724 -4.07710354 -0.62193105 0 0 Z " fill="#ECA1AB" transform="translate(305,167)"/>
<path d="M0 0 C2.39453125 2.3046875 2.39453125 2.3046875 4 5 C3.94139777 8.39892952 3.85313255 10.84118477 1.80078125 13.62890625 C-0.61912788 15.47139672 -2.77106457 15.75678489 -5.75 16.3125 C-11.35518207 17.60861353 -15.43598152 19.36891012 -19 24 C-21.97294969 29.99611813 -22.07405331 36.91451875 -20.3828125 43.34765625 C-17.50893845 49.94739356 -11.51760907 54.24448574 -5 57 C-2.84259394 57.26720853 -2.84259394 57.26720853 -0.625 57.3125 C4.43373952 57.8066484 6.74272186 59.05697909 10 63 C10.125 66.625 10.125 66.625 9 70 C5.9339602 73.00332535 3.60154873 73.43192408 -0.625 73.4375 C-11.88506079 73.10913857 -19.71319893 67.92959646 -27.71875 60.37890625 C-33.26610295 54.47776804 -37.50192099 46.13529055 -38 38 C-38.07347656 37.14019531 -38.14695313 36.28039063 -38.22265625 35.39453125 C-38.73571965 25.22535153 -35.74134888 16.67339144 -29 9 C-20.8098945 1.53255087 -11.19776382 -2.25140225 0 0 Z " fill="#4F5760" transform="translate(270,0)"/>
<path d="M0 0 C2.875 1.9375 2.875 1.9375 5 4 C8.06429776 5.53214888 10.6165642 5.22938548 14 5 C16.74832154 3.71815438 16.74832154 3.71815438 19 2 C22.7205836 -0.48038907 24.59796571 -0.46337203 29 0 C31.5 1.5625 31.5 1.5625 33 4 C33.28549495 7.78280809 32.87048779 9.9760204 30.3828125 12.90234375 C23.31475514 19.40660665 16.88083791 21.65679336 7.29296875 21.4140625 C0.84141526 20.60283513 -4.60999091 17.81657369 -9.125 13.125 C-11.37385636 9.37690606 -11.64905886 7.30001493 -11 3 C-8.83509811 -1.19449741 -4.16588408 -0.76483028 0 0 Z " fill="#515861" transform="translate(185,167)"/>
<path d="M0 0 C1.76171875 1.12890625 1.76171875 1.12890625 3.5 2.5 C6.17836038 4.6091339 6.99284442 4.99899571 10.5625 5.5 C15.25862627 4.81692709 18.63455542 3.36544458 22 0 C28.96019496 -0.55239643 28.96019496 -0.55239643 32 1.0625 C33.64143637 4.24278297 33.47732313 6.47974191 33 10 C29.10566389 16.20659818 23.80923099 18.73025634 17 21 C7.44946503 22.0175608 0.72109446 20.26793647 -6.953125 14.54296875 C-9.64921216 12.15554577 -10.9158067 10.42096649 -11.625 6.875 C-10.19700286 0.30621317 -6.31124129 -0.96273172 0 0 Z " fill="#515861" transform="translate(305,167)"/>
<path d="M0 0 C3.62535141 1.647887 6.20557709 3.41115419 8 7 C8.74645436 11.77002542 8.45434656 15.10753355 6.25 19.4375 C3.23150553 22.87522981 1.62121536 23.78853713 -2.875 24.375 C-6.87153796 23.89541545 -8.90459308 22.53260567 -12 20 C-14.55503235 15.83172198 -14.83282523 11.76606911 -14 7 C-10.55496154 0.8271058 -6.83442645 -0.46335095 0 0 Z " fill="#515861" transform="translate(259,182)"/>
<path d="M0 0 C2.9375 2.0625 2.9375 2.0625 5 5 C5.3774552 9.00102513 4.75426624 11.08012313 2.203125 14.19140625 C-4.28919104 20.8140425 -4.28919104 20.8140425 -8.875 21.3125 C-12 21 -12 21 -14.375 19.4375 C-16.62431697 16.06352455 -16.42387255 14.00135682 -16 10 C-14.0234375 7.12890625 -14.0234375 7.12890625 -11.375 4.5625 C-10.51648438 3.69753906 -9.65796875 2.83257812 -8.7734375 1.94140625 C-5.49537033 -0.35324077 -3.91942242 -0.5699023 0 0 Z " fill="#EA9C33" transform="translate(235,437)"/>
<path d="M0 0 C2.7734375 1.94140625 2.7734375 1.94140625 5.375 4.5625 C6.68597656 5.83287109 6.68597656 5.83287109 8.0234375 7.12890625 C10.48766209 10.70836292 10.53725727 12.73708951 10 17 C7.9375 19.5 7.9375 19.5 5 21 C1.25465874 21.20807451 -0.96325267 20.82311455 -3.93359375 18.46484375 C-6.65734311 15.79772119 -8.88131121 13.17803319 -11 10 C-10.78206897 3.89793103 -10.78206897 3.89793103 -8.3125 1.0625 C-5.25816648 -0.34084243 -3.34641108 -0.3686377 0 0 Z " fill="#EA9C33" transform="translate(296,437)"/>
<path d="M0 0 C5.77045333 1.22976874 9.54209163 4.96250664 12.8125 9.8125 C13.14879776 13.13036451 13.14241973 15.0944394 11.75 18.125 C8.70023787 20.78124444 6.84471256 21.01080554 2.8125 20.8125 C-1.33198533 18.12681366 -4.45736607 14.90770089 -7.1875 10.8125 C-7.64417063 7.2352467 -7.62527431 5.47791695 -5.625 2.4375 C-3.1875 0.8125 -3.1875 0.8125 0 0 Z " fill="#EB9D33" transform="translate(186.1875,357.1875)"/>
<path d="M0 0 C3.5 0.875 3.5 0.875 5.5 2.5 C7.03364874 6.14241576 6.6519794 8.09906752 5.5 11.875 C2.95971673 15.07410985 0.1798175 18.03509125 -3.5 19.875 C-7.0817622 20.26432198 -8.86281721 20.31096718 -11.875 18.25 C-13.5 15.875 -13.5 15.875 -14.1875 13.125 C-12.83424396 6.72778964 -6.77705223 -0.24203758 0 0 Z " fill="#EA9C33" transform="translate(318.5,389.125)"/>
<path d="M0 0 C2.5 2.0625 2.5 2.0625 4 5 C4.07449923 9.24645609 3.67977595 11.220257 0.875 14.4375 C-2.75917665 16.41259601 -4.91874064 16.59363772 -9 16 C-12.07448654 13.95034231 -12.84112099 12.73084346 -13.625 9.125 C-12.86702323 5.33511614 -11.62491705 3.68890322 -8.78515625 1.14453125 C-5.70154155 -0.83249087 -3.50993233 -0.71498622 0 0 Z " fill="#EFD176" transform="translate(308,321)"/>
<path d="M0 0 C0.66 0.33 1.32 0.66 2 1 C-4.93 7.93 -11.86 14.86 -19 22 C-19 17.83256273 -16.7220201 16.1175327 -14 13.25 C-13.50395264 12.71793945 -13.00790527 12.18587891 -12.49682617 11.63769531 C-8.56892151 7.476431 -4.4406485 3.61359362 0 0 Z " fill="#FFC8AB" transform="translate(161,69)"/>
</svg>
